<svg width="459" height="480" viewBox="0 0 459 480" fill="none" xmlns="http://www.w3.org/2000/svg">
<path d="M375.572 377.267C375.38 377.282 375.302 377.301 375.167 377.327C372.947 377.56 370.733 377.846 368.526 378.185C378.175 382.24 384.325 384.592 394.727 386.406C396.378 386.723 398.285 387.039 399.901 387.432C392.553 380.973 385.601 376.475 375.572 377.267Z" fill="#E0DFC6"/>
<path d="M358.861 395.814C358.056 393.342 355.469 387.471 353.482 385.894C346.2 395.926 348.408 408.068 355.565 417.365C359.083 409.746 361.677 404.475 358.861 395.814Z" fill="#E0DFC6"/>
<path d="M364.906 366.351C374.085 364.42 380.672 361.827 387.8 355.137C389.38 353.654 391.566 351.376 392.753 349.537L392.717 349.275C392.21 349.275 392.052 349.254 391.562 349.367C380.57 350.865 372.745 352.272 365.8 362.189C365.164 363.097 363.31 365.448 363.242 366.499C363.921 366.633 364.236 366.504 364.906 366.351Z" fill="#E0DFC6"/>
<path d="M339.766 373.534C333.217 369.276 326.325 367.216 318.609 367.522C314.801 367.749 311.02 368.337 307.314 369.282C314.13 372.247 321.366 374.009 328.73 374.501C333.032 374.512 335.593 374.093 339.766 373.534Z" fill="#E0DFC6"/>
<path d="M366.435 385.781C365.625 385.388 364.6 384.799 363.797 384.477C366.981 389.305 368.244 392.15 368.974 397.876C377.87 402.749 386.72 404.136 396.355 400.961C398.999 400.077 401.567 398.966 404.036 397.64L409.024 395.054C394.03 396.315 379.977 392.36 366.435 385.781Z" fill="#E0DFC6"/>
<path d="M303.174 409.138L305.723 410.224C310.145 411.946 316.047 412.725 320.76 412.662C328.363 412.559 334.464 409.43 340.452 404.772C340.187 400.561 340.272 397.317 341.472 393.212C341.719 392.367 342.733 389.968 342.809 389.359C333.852 396.819 315.048 410.354 303.174 409.138Z" fill="#E0DFC6"/>
<path d="M317.487 394.087C316.939 394.889 315.011 397.716 314.886 398.565L315.019 398.692C321.542 396.64 337.237 387.768 341.958 382.862L341.985 382.602L341.902 382.55C340.137 382.787 334.898 383.325 333.511 383.69C327.951 385.152 320.902 389.082 317.487 394.087Z" fill="#E0DFC6"/>
<path d="M315.905 384.87C316.92 384.061 317.969 383.201 319.009 382.434C310.316 380.063 303.872 377.817 296.623 371.786C299.688 378.178 306.829 384.681 312.852 387.879C313.635 387.09 315.112 385.52 315.905 384.87Z" fill="#E0DFC6"/>
<path d="M382.518 370.225C385.214 370.541 387.878 371.104 390.481 371.906C393.323 368.491 399.828 358.787 400.068 354.285C393.819 361.924 389.793 366.019 380.569 370.036C380.934 370.071 382.233 370.161 382.518 370.225Z" fill="#E0DFC6"/>
<path d="M357.614 427.528C357.085 427.831 356.492 428.048 355.888 427.871C351.936 426.714 345.389 415.828 345.29 415.781L345.366 416.513C346.628 421.486 348.822 425.449 353.186 428.108C353.98 428.596 354.808 429.02 355.663 429.379C362.904 426.279 367.87 418.923 367.068 410.57C365.64 415.16 361.705 425.192 357.614 427.528Z" fill="#E0DFC6"/>
<path d="M356.172 374.981C355.603 375.043 355.137 375.07 354.571 375.095C353.587 376.431 354.733 381.429 352.643 381.556C351.369 379.654 352.587 377.203 353.231 375.13C352.574 375.589 352.162 376.017 351.403 375.976L351.195 375.709C351.66 374.262 352.605 373.742 353.774 372.846L354.687 372.839C355.406 373.158 355.989 373.964 356.321 374.692L356.172 374.981ZM361.491 394.373C364.607 402.476 362.33 410.281 358.89 417.754C358.257 419.132 357.768 420.122 356.317 420.647C354.835 420.293 354.146 419.429 353.176 418.166C348.385 411.931 345.728 404.988 346.512 396.897C347.028 391.564 349.213 385.83 353.25 382.395C356.882 382.504 360.367 391.449 361.491 394.373ZM350.051 373.055C349.301 373.172 348.839 373.346 348.373 372.602C348.973 371.682 353.232 371.227 354.327 371.06C354.845 370.98 355.437 370.943 355.882 371.246C355.322 371.904 351.14 372.794 350.051 373.055ZM328.592 377.595C320.459 377.247 312.639 374.783 305.168 371.464C294.705 366.815 316.246 364.355 318.652 364.185C327.334 363.542 338.346 367.476 345.011 373.199C342.513 377.446 333.077 377.365 328.592 377.595ZM361.055 364.219C366.246 355.776 373.33 349.656 382.941 347.837C387.394 346.994 391.919 346.391 396.388 345.375C396.898 345.276 396.937 345.309 397.468 345.318C398.106 345.718 397.885 345.442 398.149 346.177C398.004 348.144 395.988 350.171 394.787 351.613C387.121 360.814 373.412 368.696 361.574 369.125C361.016 369.131 360.602 369.104 360.052 369.062C358.764 368.105 360.4 365.285 361.055 364.219ZM369.122 373.005C367.253 373.289 362.82 373.238 361.491 373.596C362.533 374.538 362.84 374.738 364.007 375.445C378.511 372.747 389.942 374.148 401.292 384.358C402.907 385.812 405.036 387.169 406.444 388.848L406.383 389.192C406.1 389.393 405.809 389.598 405.498 389.75C400.567 392.162 379.102 385.995 373.348 383.61C370.255 382.329 362.044 378.666 361.011 375.127C360.835 374.524 361.043 374.158 361.29 373.63C359.823 372.879 357.788 373.6 356.296 372.443L356.201 372.035C356.76 371.486 359.885 371.552 360.87 371.515C377.647 370.878 393.943 362.663 401.369 346.21C402.128 344.53 403.078 342.402 403.563 340.557C400.13 341.922 396.577 342.924 392.955 343.549C386.893 344.644 380.871 344.819 375.082 347.337C366.927 350.885 360.127 357.913 356.787 366.514C356.279 367.822 356.107 368.726 354.605 368.599C353.257 367.687 353.318 365.388 353.292 363.902C353.179 357.295 351.212 350.636 346.781 345.8C345.544 344.449 343.962 343.156 342.726 341.786C340.683 350.225 342.595 357.397 348.017 364.061C349.351 365.7 351.379 366.957 350.744 369.481C350.583 370.1 350.483 370.094 350.013 370.371C349.196 370.217 349.03 370.222 348.62 369.375C347.435 366.929 345.46 365.14 344.051 362.856C339.734 356.401 338.092 348.851 339.872 341.135C340.155 339.907 340.441 338.981 341.325 338.117C342.412 337.97 344.606 339.677 345.485 340.398C351.552 345.37 354.58 352.359 355.53 360.219C355.628 361.085 355.707 361.952 355.764 362.822C356.282 362.081 356.731 361.485 357.145 360.67C357.245 352.071 355.095 346.168 349.29 339.932C346.841 337.302 343.136 334.165 340.064 332.255L339.915 332.5C337.746 336.129 336.498 343.637 336.516 347.826C336.549 355.55 340.355 362.946 345.613 368.178C345.979 368.543 346.855 369.724 346.554 370.251L346.443 370.443C345.903 370.588 345.841 370.635 345.212 370.208C343.277 368.893 341.441 367.759 339.441 366.615C326.48 359.197 315.99 362.029 302.51 365.133C300.191 365.667 297.28 366.627 294.928 367.331C296.649 369.158 299.026 370.712 301.132 372.012C309.638 377.335 319.357 380.153 329.262 380.173C333.828 380.203 338.205 380.191 342.741 379.572C343.61 379.453 345.803 379.087 346.445 379.548C346.78 385.571 313.735 404.621 309.305 403.061C308.581 402.186 309.328 400.941 309.873 400.118C312.229 396.561 314.634 392.558 317.559 389.5C318.91 388.097 320.405 386.855 322.017 385.797C323.878 384.565 325.703 383.71 327.691 382.753C322.717 382.77 319.08 384.601 315.72 388.362C310.295 394.436 306.177 400.778 300.428 406.631C305.486 407.366 308.202 406.749 312.945 404.814C326.038 399.472 338.506 391.535 348.294 380.9C348.66 380.501 349.336 380.295 349.854 380.362L350.068 380.61C349.588 382.221 347.064 386.661 346.133 388.541C342.118 396.649 342.815 405.223 346.748 413.2C348.806 417.374 352.826 422.759 356.838 425.031C358.303 423.689 359.255 422.044 360.207 420.388C366.6 409.266 370.097 393.978 360.256 383.765C358.79 382.245 355.643 379.423 355.454 377.28L355.703 376.915C357.143 376.795 359.888 379.568 361.483 380.424C377.504 389.025 394.033 394.508 412.105 391.891C412.928 391.123 413.71 390.435 414.439 389.566C398.072 379.555 389.868 369.857 369.122 373.005Z" fill="#BEBCA2"/>
<path d="M368.526 378.185C370.733 377.846 372.947 377.56 375.167 377.327C375.302 377.301 375.38 377.282 375.572 377.267C385.601 376.475 392.553 380.973 399.901 387.433C398.285 387.039 396.378 386.723 394.727 386.406C384.325 384.592 378.175 382.24 368.526 378.185ZM333.512 383.69C334.898 383.325 340.137 382.787 341.902 382.55L341.985 382.602L341.958 382.862C337.237 387.768 321.542 396.64 315.019 398.692L314.887 398.565C315.012 397.716 316.939 394.889 317.487 394.087C320.903 389.082 327.952 385.152 333.512 383.69ZM412.105 391.891C394.033 394.508 377.504 389.025 361.483 380.424C359.888 379.568 357.143 376.795 355.703 376.916L355.454 377.28C355.643 379.423 358.79 382.245 360.256 383.765C370.097 393.978 366.6 409.266 360.207 420.388C359.255 422.044 358.303 423.689 356.838 425.031C352.826 422.759 348.806 417.374 346.748 413.2C342.815 405.223 342.118 396.649 346.133 388.541C347.064 386.661 349.588 382.221 350.068 380.61L349.854 380.362C349.336 380.295 348.66 380.501 348.294 380.9C338.506 391.535 326.038 399.472 312.945 404.814C308.202 406.749 305.485 407.366 300.428 406.631C306.177 400.778 310.295 394.436 315.72 388.362C319.08 384.601 322.717 382.77 327.691 382.753C325.703 383.71 323.878 384.565 322.017 385.797C320.405 386.855 318.91 388.097 317.559 389.5C314.634 392.558 312.229 396.561 309.873 400.118C309.328 400.941 308.581 402.186 309.305 403.061C313.735 404.621 346.78 385.571 346.445 379.548C345.803 379.087 343.61 379.453 342.741 379.572C338.205 380.191 333.828 380.203 329.262 380.173C319.357 380.153 309.638 377.335 301.132 372.012C299.026 370.713 296.649 369.158 294.928 367.331C297.28 366.627 300.191 365.667 302.51 365.133C315.99 362.03 326.48 359.197 339.441 366.615C341.441 367.759 343.277 368.893 345.212 370.208C345.841 370.635 345.903 370.588 346.443 370.443L346.554 370.251C346.855 369.724 345.979 368.543 345.613 368.178C340.355 362.946 336.549 355.55 336.516 347.826C336.498 343.637 337.746 336.129 339.915 332.5L340.064 332.255C343.136 334.165 346.841 337.302 349.29 339.932C355.095 346.168 357.245 352.071 357.145 360.67C356.731 361.485 356.282 362.081 355.764 362.822C355.707 361.952 355.628 361.085 355.53 360.219C354.579 352.359 351.552 345.37 345.485 340.398C344.606 339.677 342.412 337.97 341.325 338.117C340.441 338.981 340.155 339.907 339.872 341.135C338.092 348.851 339.734 356.401 344.051 362.856C345.46 365.14 347.435 366.929 348.62 369.375C349.03 370.222 349.195 370.217 350.013 370.371C350.483 370.094 350.583 370.1 350.744 369.481C351.379 366.957 349.351 365.7 348.017 364.061C342.595 357.397 340.683 350.225 342.725 341.786C343.962 343.156 345.544 344.449 346.781 345.8C351.212 350.636 353.179 357.295 353.292 363.902C353.318 365.388 353.257 367.687 354.605 368.599C356.107 368.726 356.279 367.822 356.787 366.514C360.127 357.913 366.927 350.885 375.082 347.337C380.871 344.819 386.893 344.644 392.955 343.549C396.577 342.924 400.13 341.922 403.563 340.557C403.078 342.402 402.128 344.53 401.369 346.21C393.943 362.663 377.646 370.878 360.87 371.515C359.885 371.552 356.76 371.486 356.201 372.035L356.296 372.443C357.788 373.6 359.823 372.879 361.29 373.63C361.043 374.158 360.835 374.524 361.011 375.127C362.043 378.666 370.255 382.329 373.348 383.61C379.102 385.995 400.567 392.162 405.498 389.75C405.809 389.598 406.1 389.393 406.383 389.192L406.444 388.848C405.036 387.169 402.907 385.812 401.292 384.358C389.942 374.148 378.511 372.747 364.007 375.445C362.84 374.738 362.533 374.538 361.491 373.596C362.82 373.238 367.253 373.289 369.122 373.005C389.868 369.857 398.071 379.555 414.439 389.566C413.71 390.435 412.928 391.123 412.105 391.891ZM404.036 397.64C401.567 398.966 398.998 400.077 396.355 400.961C386.72 404.136 377.87 402.749 368.974 397.876C368.244 392.15 366.981 389.305 363.797 384.477C364.6 384.799 365.625 385.388 366.435 385.781C379.977 392.36 394.03 396.315 409.024 395.054L404.036 397.64ZM355.663 429.379C354.808 429.02 353.98 428.596 353.187 428.108C348.822 425.449 346.629 421.486 345.367 416.513L345.29 415.781C345.389 415.828 351.936 426.714 355.888 427.871C356.492 428.048 357.086 427.831 357.615 427.528C361.705 425.192 365.641 415.16 367.068 410.57C367.87 418.923 362.904 426.279 355.663 429.379ZM341.472 393.212C340.272 397.317 340.187 400.561 340.453 404.772C334.465 409.43 328.364 412.559 320.761 412.662C316.048 412.725 310.145 411.946 305.724 410.224L303.175 409.138C315.048 410.354 333.852 396.819 342.809 389.359C342.734 389.968 341.719 392.367 341.472 393.212ZM296.623 371.786C303.872 377.817 310.316 380.063 319.009 382.434C317.969 383.201 316.92 384.061 315.905 384.87C315.112 385.52 313.635 387.09 312.852 387.879C306.829 384.682 299.688 378.178 296.623 371.786ZM336.395 361.616C323.103 356.558 315.735 359.36 303.01 363.544C301.144 364.135 299.135 364.648 297.228 365.238C308.588 357.795 321.589 350.721 333.44 343.851C333.597 344.648 333.181 347.434 333.148 348.525C332.998 353.656 334.495 357.092 336.395 361.616ZM258.556 384.159C260.921 374.325 256.64 364.884 246.946 362.357C252.72 358.394 259.461 355.3 265.403 351.567C286.045 338.603 307.905 328.214 329.183 316.467L360.434 298.84C366.916 295.13 373.444 291.211 380.002 287.682C383.672 285.705 390.007 281.815 393.934 281.129C396.533 281.059 397.493 281.517 399.636 282.889C397.919 283.97 395.072 285.315 393.199 286.262C389.976 287.889 386.763 289.541 383.563 291.217C376.267 295.006 335.163 315.552 332.293 319.832L332.481 320.05C337.259 319.752 394.606 290.094 402.405 285.902C402.9 286.508 403.335 287.167 403.703 287.866C404.936 290.188 405.186 292.945 404.392 295.469C404.029 296.593 403.267 298.129 402.345 298.834C399.661 300.89 396.339 302.593 393.384 304.235C389.508 306.388 385.643 308.562 381.787 310.758L357.045 324.667C353.233 326.791 348.686 329.49 344.836 331.414C343.891 330.81 342.672 330.033 341.641 329.625C336.872 327.739 335.273 335.353 334.312 338.848C330.564 340.909 326.85 343.039 323.174 345.238C301.357 357.698 279.812 370.675 258.556 384.159ZM244.461 372.707C244.306 373.501 243.862 373.868 243.334 374.481C242.66 374.621 242.972 374.655 242.361 374.432L242.224 373.886C242.475 372.891 242.573 372.866 243.353 372.16C243.978 372.178 244.155 372.181 244.461 372.707ZM233.439 375.446L233.145 375.457C230.079 371.878 228.362 367.146 233.211 364.22C235.624 365.794 233.221 367.084 232.754 369.534C232.223 372.314 233.102 373.137 233.439 375.446ZM250.748 388.774C244.487 391.824 237.799 387.923 232.349 384.778C228.238 382.211 224.083 379.001 222.264 374.168C218.716 364.739 221.338 358.076 229.925 353.667C236.859 350.106 243.303 345.726 250.354 342.503C262.141 346.254 264.757 343.024 274.045 336.906L292.96 324.642C318.301 308.34 343.737 292.202 369.267 276.23C369.906 276.336 370.287 276.614 370.846 276.981C373.985 279.037 376.16 281.802 377.015 285.609C371.497 289.004 365.501 292.299 359.872 295.5L328.932 313.011C318.067 319.216 307.159 325.342 296.212 331.385C287.572 336.102 278.747 340.629 270.149 345.412C259.421 351.38 248.92 357.613 238.091 363.412C235.7 358.017 229.828 353.336 225.366 359.685C220.446 366.684 225.315 376.908 231.532 381.126C236.218 384.306 241.929 387.961 247.871 387.04C252.812 386.317 254.502 380.693 253.466 376.2C252.731 373.136 250.841 370.515 248.228 368.94C244.573 366.724 240.637 367.189 239.158 371.792C238.196 374.786 241.476 378.807 244.411 377.547C245.859 377.025 246.697 375.187 247.925 374.529C248.67 374.13 249.322 375.979 249.422 376.488C248.191 379.942 245.925 380.334 242.675 379.678C237.351 378.605 234.099 372.551 237.966 367.846C242.543 362.278 251.768 366.43 254.466 372.049C257.183 377.648 256.929 385.762 250.748 388.774ZM252.425 318.537C253.62 318.675 254.581 319.602 254.883 320.808C254.689 321.727 254.708 321.475 253.977 322.265C251.327 322.938 250.706 320.475 252.425 318.537ZM242.673 334.075C236.924 329.534 234.83 319.553 239.653 313.514C242.755 309.627 246.553 308.14 251.281 307.652C262.804 306.554 265.63 321.083 260.49 328.646C259.352 330.336 257.592 331.452 255.636 331.722C251.289 332.298 245.974 326.869 245.788 322.481C245.678 319.848 246.615 316.671 249.64 316.711C250.22 316.719 250.825 316.792 251.243 317.23C247.723 318.97 246.813 322.32 249.331 325.518C254.637 332.442 260.297 327.95 260.681 320.591C261.335 308.056 248.87 307.73 242.187 314.41C239.886 316.71 239.605 318.296 239.509 321.374C239.898 329.727 246.564 335.036 253.825 336.758C259.481 338.099 264.693 337.948 266.144 330.985L266.04 330.598C265.537 328.64 264.152 327.341 264.289 326.241C264.989 325.909 266.078 326.43 266.644 326.866C269.624 329.157 269.596 333.557 267.378 336.409C265.77 338.474 263.377 340.004 260.801 340.17C254.452 340.561 247.732 338.07 242.673 334.075ZM285.368 284.721C299.372 275.963 313.468 267.37 327.655 258.941C336.439 253.756 345.48 248.826 354.331 243.65L374.954 231.58C379.3 229.038 388.6 223.216 392.971 222.081C395.811 221.872 397.452 222.998 399.628 224.601C396.989 226.271 393.682 228.011 390.937 229.633L365.769 244.419C361.79 246.776 336.146 262.153 335.557 264.385C336.139 264.573 337.416 264.027 337.959 263.717C350.981 256.28 364.475 249.673 377.434 242.101L393.251 232.876C396.562 230.918 401.024 227.928 404.458 226.631C404.617 226.666 404.776 226.701 404.936 226.74C412.456 228.6 419.461 239.582 410.812 245.401C404.953 249.343 399.066 253.025 393.065 256.724L365.777 273.739L275.167 331.462C274.18 332.121 273.047 332.799 272.033 333.437C272.079 326.612 270.977 324.913 265.305 322.031L265.212 321.657C265.31 321.147 265.465 320.348 265.876 320.048C270.636 316.567 276.291 313.359 281.333 310.303C285.573 307.732 289.302 305.201 293.4 302.629C303.812 296.122 314.035 289.209 323.984 281.948C324.994 281.212 328.997 278.828 328.961 277.692L328.638 277.433C325.999 277.571 313.304 285.36 310.27 287.116C295.075 295.914 280.472 305.613 265.804 315.297C264.023 308.453 260.756 305.758 254.328 303.96C263.824 297.36 275.473 290.795 285.368 284.721ZM390.482 371.906C387.878 371.105 385.214 370.541 382.518 370.225C382.234 370.161 380.934 370.071 380.569 370.036C389.793 366.019 393.819 361.924 400.068 354.285C399.828 358.787 393.323 368.492 390.482 371.906ZM418.371 388.256C416.694 386.41 413.023 385.018 410.826 383.505C405.164 379.607 400.535 376.339 394.407 373.208C402.627 362.508 405.879 353.114 406.055 339.17C406.06 338.781 405.836 338.383 405.644 338.074C405.058 337.687 404.683 337.464 403.956 337.658C400.574 338.56 397.066 340.302 393.617 340.867C379.594 343.161 370.524 343.443 360.445 355.527C358.474 346.687 355.656 339.863 348.102 334.494C354.071 330.673 360.66 327.123 366.85 323.661C374.709 319.291 382.534 314.854 390.322 310.351C394.771 307.802 400.683 304.939 404.596 301.8C408.78 298.447 409.641 290.002 406.56 285.637C404.462 282.386 401.082 278.736 397.335 277.792C391.181 276.241 385.765 281.203 380.41 283.677C378.507 278.847 377.181 277.02 372.935 274.101C384.682 266.383 396.78 259.243 408.511 251.491C412.736 248.698 416.647 246.508 417.849 241.016C418.568 237.71 417.982 234.241 416.224 231.397C412.749 225.74 408.974 223.354 402.655 222.943C399.469 220.16 396.868 218.19 392.503 218.339C387.429 219.045 381.247 223.304 376.653 226.005C370.791 229.491 364.91 232.941 359.01 236.356C336.939 248.991 315.085 262.036 293.455 275.482C279.592 284.096 265.499 292.318 251.806 301.243C248.324 303.514 244.718 305.577 241.205 307.788C235.008 311.803 232.903 317.808 233.975 325.186C235.04 332.503 239.483 337.092 245.51 340.441C241.48 343.4 236.68 345.706 232.465 348.217C229.167 350.183 223.465 352.285 221.229 355.391C212.807 367.096 219.16 381.478 230.609 387.728C236.811 391.114 243.241 395.122 250.624 392.922C254.159 391.669 258.86 388.344 262.177 386.282C268.685 382.231 275.213 378.216 281.761 374.238C284.259 372.715 288.659 369.837 291.096 368.594C294.937 379.049 300.947 385.369 310.01 391.043C305.755 396.421 301.715 401.733 296.256 405.847C295.031 406.771 296.621 409.537 297.645 410.221C310.35 418.708 328.344 419.2 340.344 409.286C341.087 414.092 341.566 417.037 343.241 421.712C345.088 426.112 348.847 430.807 353.138 432.419C360.136 435.048 367.767 425.371 369.605 419.221C371.381 413.275 370.876 408.2 369.706 402.374C381.836 407.262 390.356 408.241 402.531 402.509C406.092 400.833 419.076 392.926 418.371 388.256Z" fill="#1C1C14"/>
<path d="M358.86 395.814C361.677 404.475 359.083 409.746 355.565 417.365C348.408 408.068 346.2 395.926 353.482 385.894C355.469 387.471 358.055 393.342 358.86 395.814ZM346.511 396.897C345.727 404.988 348.385 411.931 353.176 418.166C354.146 419.429 354.835 420.293 356.317 420.647C357.768 420.122 358.257 419.132 358.89 417.754C362.33 410.281 364.607 402.476 361.491 394.373C360.367 391.449 356.881 382.504 353.25 382.395C349.213 385.83 347.028 391.564 346.511 396.897Z" fill="#1C1C14"/>
<path d="M365.801 362.189C372.745 352.272 380.57 350.865 391.563 349.367C392.053 349.254 392.21 349.275 392.717 349.275L392.753 349.537C391.567 351.376 389.38 353.654 387.8 355.137C380.673 361.827 374.085 364.42 364.906 366.351C364.237 366.504 363.922 366.633 363.243 366.499C363.31 365.448 365.164 363.097 365.801 362.189ZM360.052 369.062C360.602 369.104 361.016 369.131 361.574 369.125C373.412 368.696 387.121 360.814 394.787 351.613C395.988 350.171 398.005 348.144 398.149 346.177C397.885 345.442 398.106 345.718 397.468 345.318C396.937 345.309 396.898 345.276 396.388 345.375C391.919 346.391 387.394 346.994 382.941 347.837C373.33 349.656 366.246 355.776 361.055 364.219C360.4 365.285 358.765 368.105 360.052 369.062Z" fill="#1C1C14"/>
<path d="M328.73 374.501C321.366 374.009 314.13 372.247 307.314 369.282C311.02 368.338 314.801 367.749 318.609 367.522C326.325 367.216 333.218 369.277 339.766 373.534C335.593 374.093 333.032 374.512 328.73 374.501ZM318.652 364.185C316.246 364.355 294.704 366.815 305.168 371.464C312.638 374.783 320.459 377.247 328.592 377.595C333.076 377.365 342.513 377.446 345.011 373.199C338.346 367.476 327.334 363.542 318.652 364.185Z" fill="#1C1C14"/>
<path d="M354.687 372.839L353.773 372.846C352.605 373.742 351.659 374.262 351.194 375.709L351.403 375.976C352.162 376.017 352.573 375.589 353.231 375.13C352.586 377.202 351.369 379.654 352.643 381.556C354.733 381.429 353.587 376.431 354.57 375.095C355.136 375.07 355.602 375.043 356.171 374.981L356.321 374.692C355.989 373.964 355.406 373.158 354.687 372.839Z" fill="#1C1C14"/>
<path d="M354.327 371.06C353.232 371.227 348.973 371.682 348.373 372.602C348.838 373.346 349.301 373.172 350.051 373.055C351.14 372.794 355.321 371.904 355.882 371.246C355.437 370.943 354.845 370.98 354.327 371.06Z" fill="#1C1C14"/>
<path d="M404.936 226.74C404.776 226.701 404.617 226.666 404.458 226.631C401.024 227.928 396.562 230.918 393.251 232.876L377.434 242.101C364.475 249.673 350.981 256.28 337.959 263.717C337.416 264.027 336.139 264.573 335.557 264.385C336.146 262.153 361.79 246.776 365.769 244.419L390.937 229.633C393.682 228.011 396.989 226.27 399.628 224.601C397.452 222.998 395.811 221.872 392.971 222.081C388.6 223.216 379.3 229.038 374.954 231.58L354.331 243.65C345.48 248.826 336.439 253.756 327.655 258.941C313.468 267.37 299.372 275.963 285.368 284.721C275.473 290.795 263.824 297.36 254.328 303.96C260.756 305.758 264.023 308.453 265.804 315.297C280.472 305.613 295.075 295.914 310.27 287.116C313.304 285.36 325.999 277.571 328.638 277.433L328.961 277.692C328.997 278.828 324.994 281.212 323.984 281.948C314.035 289.209 303.812 296.122 293.4 302.628C289.302 305.201 285.573 307.732 281.332 310.303C276.291 313.359 270.636 316.567 265.876 320.048C265.465 320.348 265.31 321.147 265.212 321.657L265.305 322.031C270.977 324.913 272.079 326.612 272.033 333.437C273.047 332.799 274.18 332.121 275.167 331.462L365.777 273.739L393.065 256.724C399.066 253.025 404.953 249.342 410.812 245.401C419.461 239.582 412.456 228.6 404.936 226.74Z" fill="#F0EFDE"/>
<path d="M402.405 285.902C394.606 290.094 337.259 319.752 332.481 320.05L332.292 319.832C335.163 315.552 376.266 295.006 383.562 291.217C386.763 289.541 389.976 287.889 393.199 286.262C395.072 285.315 397.919 283.97 399.635 282.889C397.492 281.517 396.533 281.059 393.934 281.129C390.007 281.815 383.672 285.705 380.002 287.682C373.444 291.211 366.916 295.13 360.434 298.84L329.183 316.467C307.905 328.214 286.045 338.603 265.403 351.567C259.46 355.3 252.72 358.394 246.946 362.357C256.64 364.884 260.921 374.325 258.556 384.159C279.812 370.675 301.357 357.698 323.174 345.237C326.85 343.039 330.564 340.909 334.312 338.848C335.273 335.353 336.871 327.739 341.641 329.625C342.672 330.033 343.89 330.81 344.836 331.414C348.686 329.49 353.232 326.791 357.045 324.667L381.787 310.758C385.642 308.562 389.508 306.388 393.384 304.235C396.339 302.593 399.661 300.89 402.345 298.834C403.266 298.129 404.029 296.593 404.392 295.469C405.186 292.945 404.935 290.188 403.702 287.866C403.335 287.167 402.9 286.508 402.405 285.902Z" fill="#F0EFDE"/>
<path d="M237.966 367.846C234.099 372.551 237.351 378.605 242.675 379.678C245.925 380.334 248.191 379.942 249.422 376.488C249.322 375.979 248.67 374.13 247.925 374.529C246.697 375.186 245.859 377.025 244.411 377.547C241.476 378.807 238.196 374.786 239.158 371.792C240.637 367.188 244.573 366.724 248.228 368.939C250.841 370.515 252.73 373.136 253.466 376.2C254.502 380.693 252.812 386.316 247.87 387.04C241.929 387.961 236.218 384.306 231.532 381.126C225.315 376.908 220.446 366.684 225.365 359.685C229.828 353.336 235.7 358.017 238.091 363.412C248.92 357.613 259.421 351.38 270.149 345.412C278.747 340.629 287.572 336.101 296.212 331.384C307.159 325.341 318.067 319.216 328.932 313.011L359.872 295.5C365.501 292.299 371.497 289.004 377.015 285.609C376.16 281.802 373.985 279.037 370.846 276.981C370.287 276.614 369.905 276.336 369.267 276.23C343.737 292.202 318.301 308.34 292.96 324.642L274.045 336.906C264.756 343.024 262.141 346.254 250.354 342.503C243.303 345.726 236.859 350.106 229.925 353.667C221.338 358.076 218.716 364.739 222.264 374.168C224.082 379.001 228.238 382.211 232.349 384.778C237.799 387.923 244.486 391.824 250.748 388.774C256.929 385.762 257.183 377.648 254.466 372.049C251.768 366.43 242.543 362.278 237.966 367.846Z" fill="#F0EFDE"/>
<path d="M242.673 334.074C247.732 338.07 254.452 340.561 260.801 340.17C263.377 340.004 265.77 338.474 267.377 336.409C269.596 333.557 269.624 329.157 266.644 326.866C266.078 326.43 264.989 325.909 264.289 326.241C264.152 327.341 265.537 328.64 266.04 330.598L266.144 330.985C264.693 337.948 259.481 338.099 253.824 336.758C246.564 335.036 239.898 329.727 239.509 321.374C239.605 318.296 239.886 316.71 242.187 314.41C248.87 307.73 261.335 308.056 260.681 320.591C260.297 327.95 254.637 332.442 249.331 325.518C246.813 322.32 247.723 318.97 251.243 317.23C250.825 316.792 250.22 316.719 249.64 316.711C246.615 316.671 245.677 319.848 245.788 322.481C245.974 326.869 251.289 332.298 255.636 331.722C257.592 331.452 259.352 330.336 260.49 328.646C265.63 321.083 262.804 306.554 251.281 307.652C246.553 308.14 242.755 309.627 239.653 313.514C234.83 319.553 236.924 329.534 242.673 334.074Z" fill="#F0EFDE"/>
<path d="M233.211 364.22C228.362 367.146 230.079 371.877 233.145 375.457L233.439 375.446C233.101 373.137 232.223 372.314 232.753 369.534C233.221 367.083 235.624 365.794 233.211 364.22Z" fill="#F0EFDE"/>
<path d="M253.977 322.265C254.708 321.475 254.689 321.727 254.883 320.808C254.581 319.602 253.619 318.675 252.424 318.537C250.706 320.475 251.327 322.938 253.977 322.265Z" fill="#F0EFDE"/>
<path d="M242.224 373.886L242.361 374.432C242.972 374.655 242.66 374.621 243.334 374.481C243.862 373.868 244.306 373.501 244.461 372.707C244.155 372.181 243.978 372.178 243.353 372.16C242.573 372.866 242.475 372.891 242.224 373.886Z" fill="#F0EFDE"/>
<path d="M226.408 276.667C231.138 276.055 236.914 275.165 241.508 273.95C244.837 270.459 249.809 260.665 252.005 256.11C257.874 243.316 261.286 234.078 265.416 220.588C221.443 233.349 150.271 231.915 110.272 208.157C105.159 205.12 100.196 201.729 95.7581 197.674C93.9398 196.014 92.2631 193.535 90.2969 192.14C92.295 198.19 94.8206 203.813 96.6581 210.056C98.1083 214.982 99.6524 220.225 101.238 225.06C107.293 243.518 120.175 255.829 136.874 264.074C163.225 277.082 197.668 280.378 226.408 276.667Z" fill="#F0EFDE"/>
<path d="M97.4947 196.325C127.704 222.404 185.145 227.835 223.081 224.73C250.399 222.495 296.854 213.61 315.759 191.089C320.398 185.563 323.184 177.762 322.469 170.33C321.615 161.458 316.421 154.435 309.917 149.036C295.218 136.838 274.749 130.098 256.661 126.51C249.02 124.972 241.3 123.908 233.539 123.327C236.025 125.594 241.74 131.789 244.377 132.287C263.311 135.865 282.345 139.86 298.727 151.205C304.645 155.303 312.475 162.472 312.784 170.752C313.153 176.9 310.428 182.781 306.58 187.329C289.347 207.062 246.638 215.135 222.535 216.641C208.06 217.585 193.54 217.427 179.088 216.173C156.525 214.049 121.675 206.452 104.881 190.342C73.6567 160.39 126.737 141.086 146.789 136.475C149.644 135.804 152.513 135.197 155.393 134.656C157.373 134.298 160.148 133.764 161.982 133.337C164.3 132.798 173.919 124.862 174.236 123.463C173.711 123.34 173.725 123.365 173.185 123.447C166.697 123.91 160.421 125.053 153.942 126.24C132.378 130.191 107.812 137.776 92.6466 155.397C88.073 160.71 85.1844 168.014 85.7489 175.188C86.427 183.805 91.2687 190.95 97.4947 196.325Z" fill="#F0EFDE"/>
<path d="M290.695 211.861C287.074 229.519 280.011 245.62 269.874 260.121C269.364 260.849 265.647 265.818 265.628 266.155C280.701 260.156 297.564 247.929 304.238 232.38C305.321 229.856 317.737 192.312 317.737 191.958C310.432 200.89 300.872 207.145 290.695 211.861Z" fill="#F0EFDE"/>
<path d="M99.3606 178.444L99.7365 179.036C100.755 179.019 102.871 175.57 103.827 174.772C107.139 172.007 111.305 171.171 114.828 168.888C117.74 166.945 118.834 162.857 122.098 160.651C125.282 158.499 128.503 158.671 131.571 156.935C134.756 155.134 137.177 150.734 140.171 148.526C142.536 146.783 145.772 145.766 148.477 144.549C154.134 142.004 156.429 138.805 160.741 134.487L160.598 134.299C144.324 137.29 128.206 141.127 113.802 149.981C103.454 156.341 94.4929 164.913 99.3606 178.444Z" fill="#F0EFDE"/>
<path d="M259.638 144.747C262.751 146.896 266.322 147.683 269.498 149.856C272.003 151.569 274.416 155.063 276.79 156.426C280.174 158.319 283.39 158.033 286.531 160.653C289.477 162.915 290.51 166.807 293.06 169.345C294.077 170.358 296.662 170.965 298.029 171.246C301.637 171.989 304.696 174.009 306.772 177.207C307.116 177.739 307.375 178.683 307.899 178.795C308.243 178.238 308.245 178.228 308.449 177.599C309.994 172.59 310.262 167.987 307.867 163.13C301.819 150.861 284.334 143.894 272.434 139.728C267.006 137.827 253.332 134.385 247.708 133.992C252.731 137.327 254.841 141.435 259.638 144.747Z" fill="#F0EFDE"/>
<path d="M143.769 271.056C145.283 272.389 146.707 273.43 148.352 274.569C171.211 289.709 206.339 291.227 232.162 285.229C240.629 283.263 257.311 277.194 263.612 271.084L263.662 270.815L263.372 270.824C229.042 285.256 178.354 284.797 143.769 271.056Z" fill="#F0EFDE"/>
<path d="M288.46 216.336C288.708 215.405 289.417 213.6 289.238 212.658C286.195 214.01 283.174 215.112 280.066 216.281C279.11 219.621 278.505 222.957 277.488 226.307C273.869 238.02 268.903 249.227 262.698 259.68C262.165 260.583 256.234 269.718 256.244 269.778C259.098 268.846 261.173 267.935 263.935 266.851L264.044 266.671C265.293 264.67 266.911 262.533 268.274 260.64C277.94 247.216 284.159 232.479 288.46 216.336Z" fill="#F0EFDE"/>
<path d="M272.65 218.742L272.306 218.701C270.231 219.351 268.227 219.842 266.187 220.459C265.893 223.043 264.408 227.281 263.565 229.816C260.056 240.556 255.751 250.993 250.689 261.028C249.236 263.869 247.766 266.665 246.118 269.388C245.625 270.201 244.02 272.362 243.928 273.046L244.283 273.091C245.484 272.824 246.817 272.556 247.995 272.245C257.75 258.013 265.432 242.338 270.787 225.734C271.178 224.521 272.764 219.825 272.65 218.742Z" fill="#F0EFDE"/>
<path d="M254.676 270.251C265.014 254.942 275.151 235.818 278.756 216.92C278.787 216.754 278.699 216.72 278.598 216.631L273.945 218.189C270.157 233.294 263.637 248.198 256.026 261.589C254.71 263.902 253.316 266.164 251.846 268.372C251.217 269.33 250.131 270.78 249.632 271.685L249.806 271.848C251.438 271.345 253.061 270.812 254.676 270.251Z" fill="#F0EFDE"/>
<path d="M315.76 191.09C296.853 213.613 250.397 222.496 223.082 224.732C185.144 227.836 127.703 222.404 97.4962 196.327C91.2694 190.949 86.4272 183.806 85.7469 175.19C85.1859 168.014 88.0745 160.712 92.6461 155.397C107.813 137.777 132.378 130.193 153.943 126.241C160.42 125.052 166.695 123.909 173.184 123.446C173.725 123.366 173.709 123.341 174.235 123.462C173.921 124.86 164.3 132.8 161.98 133.338C160.15 133.764 157.372 134.298 155.392 134.656C152.511 135.199 149.642 135.804 146.789 136.476C126.736 141.086 73.6554 160.391 104.881 190.339C121.675 206.453 156.525 214.051 179.089 216.17C193.54 217.427 208.063 217.585 222.533 216.642C246.637 215.135 289.349 207.062 306.581 187.332C310.428 182.78 313.153 176.901 312.784 170.751C312.473 162.473 304.643 155.305 298.726 151.204C282.346 139.859 263.312 135.866 244.376 132.286C241.739 131.79 236.025 125.594 233.538 123.325C241.301 123.909 249.02 124.973 256.659 126.508C274.751 130.096 295.217 136.838 309.915 149.034C316.42 154.433 321.616 161.459 322.468 170.329C323.184 177.761 320.399 185.562 315.76 191.09ZM304.237 232.379C297.565 247.93 280.702 260.154 265.627 266.154C265.647 265.816 269.364 260.851 269.872 260.121C280.01 245.623 287.072 229.518 290.698 211.86C300.872 207.146 310.432 200.891 317.737 191.958C317.737 192.313 305.32 229.855 304.237 232.379ZM263.932 266.851C261.171 267.935 259.098 268.846 256.245 269.78C256.245 269.768 256.392 269.53 256.643 269.133C256.687 269.067 256.73 268.995 256.779 268.92C256.786 268.912 256.79 268.904 256.794 268.896C256.838 268.829 256.882 268.762 256.93 268.687C257.351 268.028 257.929 267.127 258.557 266.15C258.652 266.004 258.744 265.858 258.839 265.712C258.887 265.637 258.939 265.558 258.982 265.487C259.082 265.337 259.178 265.19 259.273 265.04C259.368 264.89 259.468 264.74 259.564 264.59C259.659 264.439 259.758 264.289 259.854 264.139C260.093 263.764 260.332 263.392 260.562 263.037C260.654 262.892 260.745 262.753 260.833 262.612C260.924 262.474 261.011 262.341 261.095 262.207C261.267 261.941 261.43 261.686 261.581 261.448C261.661 261.327 261.732 261.214 261.803 261.102C261.839 261.047 261.875 260.993 261.907 260.939C261.971 260.835 262.038 260.734 262.098 260.638C262.34 260.255 262.528 259.959 262.635 259.787C262.647 259.766 262.659 259.746 262.671 259.729C262.679 259.712 262.691 259.692 262.699 259.679C268.902 249.227 273.867 238.02 277.488 226.305C278.506 222.959 279.111 219.621 280.066 216.279C283.173 215.111 286.193 214.009 289.237 212.657C289.416 213.6 288.708 215.403 288.457 216.338C284.16 232.479 277.942 247.216 268.273 260.638C266.912 262.533 265.293 264.669 264.043 266.671L263.932 266.851ZM263.61 271.086C257.312 277.194 240.628 283.265 232.162 285.23C206.34 291.226 171.211 289.707 148.353 274.569C146.706 273.431 145.285 272.387 143.769 271.056C178.353 284.796 229.042 285.255 263.372 270.823L263.661 270.815L263.61 271.086ZM273.947 218.189L278.598 216.629C278.698 216.721 278.785 216.754 278.757 216.921C275.152 235.818 265.015 254.943 254.674 270.251C253.062 270.815 251.439 271.344 249.803 271.85L249.632 271.686C250.129 270.781 251.216 269.329 251.844 268.374C253.316 266.162 254.709 263.902 256.026 261.59C263.638 248.197 270.155 233.293 273.947 218.189ZM270.788 225.734C265.432 242.339 257.749 258.014 247.993 272.246C246.816 272.554 245.483 272.826 244.281 273.093L243.927 273.047C244.019 272.363 245.626 270.201 246.115 269.387C247.766 266.664 249.235 263.868 250.687 261.026C255.752 250.992 260.057 240.557 263.566 229.818C264.41 227.281 265.894 223.042 266.188 220.459C268.225 219.842 270.231 219.349 272.307 218.699L272.65 218.741C272.765 219.825 271.178 224.524 270.788 225.734ZM136.874 264.073C120.175 255.828 107.292 243.52 101.24 225.061C99.6527 220.226 98.109 214.981 96.6567 210.054C94.8225 203.812 92.2959 198.192 90.2986 192.142C92.2641 193.536 93.9392 196.014 95.7574 197.674C100.198 201.73 105.159 205.118 110.272 208.155C150.271 231.912 221.443 233.347 265.416 220.589C261.287 234.078 257.876 243.316 252.004 256.112C249.807 260.664 244.838 270.46 241.508 273.948C236.913 275.166 231.139 276.055 226.409 276.668C197.67 280.378 163.225 277.082 136.874 264.073ZM99.7362 179.038L99.3623 178.445C94.4922 164.914 103.452 156.34 113.801 149.981C128.204 141.128 144.322 137.29 160.6 134.298L160.739 134.485C156.43 138.804 154.134 142.004 148.476 144.549C145.771 145.768 142.536 146.781 140.172 148.525C137.177 150.732 134.757 155.134 131.571 156.937C128.503 158.672 125.28 158.501 122.097 160.65C118.834 162.857 117.74 166.946 114.828 168.89C111.306 171.172 107.141 172.006 103.826 174.773C102.871 175.57 100.755 179.021 99.7362 179.038ZM247.706 133.993C253.333 134.385 267.007 137.827 272.435 139.73C284.335 143.894 301.818 150.862 307.866 163.128C310.261 167.989 309.995 172.591 308.451 177.597C308.243 178.228 308.243 178.236 307.898 178.795C307.376 178.683 307.118 177.74 306.771 177.205C304.695 174.01 301.635 171.99 298.03 171.248C296.662 170.964 294.075 170.359 293.061 169.345C290.51 166.809 289.476 162.915 286.531 160.654C283.388 158.034 280.174 158.318 276.791 156.428C274.417 155.063 272.001 151.567 269.498 149.857C266.324 147.682 262.751 146.898 259.639 144.745C254.841 141.437 252.732 137.327 247.706 133.993ZM177.625 125.474C180.207 123.433 183.823 122.715 186.581 120.609C191.276 117.024 192.728 113.678 198.859 112.79C205.476 112.085 211.444 117.162 216.728 120.438C220.822 122.979 226.225 122.661 230.224 125.144C233.041 126.896 235.162 130.059 237.716 132.249C240.401 134.556 243.354 135.654 246.302 137.414C247.138 137.92 247.929 138.5 248.67 139.154C252.1 142.171 254.156 145.788 258.334 148.5C261.64 150.645 264.939 151.467 268.086 153.457C270.509 154.993 272.634 158.513 275.407 160.086C278.045 161.58 281.614 161.647 283.866 163.27C286.886 165.439 288.267 170.68 291.346 172.883C294.226 174.94 298.173 174.547 301.186 176.525C303.871 178.29 304.472 180.335 305.164 183.313C304.567 184.186 303.879 184.995 303.175 185.771C284.347 206.537 235.245 212.912 209.009 213.738C178.476 214.981 123.414 208.352 102.275 182.605C106.433 174.556 111.203 176.112 117.557 171.343C118.667 170.509 120.621 167.53 121.54 166.199C124.858 161.396 129.998 162.357 134.646 159.089C137.582 157.028 139.476 153.432 141.84 151.717C145.285 149.21 149.881 148.534 153.828 145.692C157.619 142.963 159.43 140.606 162.76 137.489C164.443 135.916 167.754 134.431 169.767 132.762C172.551 130.459 174.848 127.672 177.625 125.474ZM326.144 170.609C324.851 149.059 299.308 136.104 282.302 129.767C269.916 125.148 256.356 122.386 243.342 120.687C239.164 120.112 234.975 119.649 230.777 119.306C229.352 119.195 227.709 118.998 226.297 118.998C215.351 118.977 210.72 108.267 198.847 109.168C198.577 109.189 198.306 109.214 198.04 109.243C189.299 110.6 187.552 117.321 182.634 118.631C180.048 119.319 177.024 119.361 174.35 119.658C169.297 120.204 164.252 120.838 159.219 121.568C134.133 125.386 104.415 134.106 87.8636 155.852C81.1593 164.66 80.9564 174.944 84.3941 185.053C86.9525 192.572 89.4273 200.215 92.1806 207.684C94.7588 215.044 96.8556 223.68 99.6965 230.761C101.192 234.445 102.983 237.987 105.052 241.35C108.979 247.771 114.856 253.537 120.7 258.014C123.597 260.213 126.621 262.228 129.748 264.047C135.294 267.248 134.869 266.722 139.42 271.519C156.756 289.798 188.896 292.122 210.402 291.651C230.622 290.358 253.014 286.031 268.596 271.207C269.992 269.876 271.181 268.056 272.757 266.943C275.144 265.432 277.802 264.227 280.285 262.783C287.208 258.84 293.443 253.7 298.723 247.571C308.025 236.577 310.369 225.6 314.908 212.178C317.498 204.663 320.001 197.12 322.424 189.547C323.474 186.163 324.731 182.308 325.484 178.866C326.093 176.166 326.316 173.384 326.144 170.609Z" fill="#1C1C14"/>
<path d="M266.351 191.967C266.049 191.992 265.754 191.842 265.595 191.566C265.432 191.295 265.432 190.953 265.591 190.678C265.75 190.406 266.041 190.248 266.347 190.273C266.765 190.311 267.092 190.678 267.092 191.116C267.092 191.558 266.773 191.93 266.351 191.967ZM263.36 159.277C262.819 159.147 262.862 159.14 262.492 158.697C262.365 158.009 262.592 157.692 262.874 157.045C263.486 157.291 263.471 157.245 263.865 157.788C263.928 158.48 263.717 158.685 263.36 159.277ZM262.679 195.25C261.832 194.992 262.006 195.183 261.513 194.579C261.632 193.736 261.633 193.966 262.237 193.202C262.823 193.394 263.041 193.382 263.383 193.886C263.28 194.654 263.201 194.537 262.679 195.25ZM259.95 197.487C259.36 198.238 258.485 198.538 257.614 198.96C257.077 198.179 257.145 198.576 257.213 197.783C257.758 197.183 258.689 197.14 259.587 196.319C260.025 196.861 260.037 196.895 259.95 197.487ZM258.043 154.158C258.915 154.491 258.652 154.204 259.046 154.855C258.951 155.463 258.645 155.643 258.199 156.06C257.387 155.597 257.431 155.789 257.069 155.076C257.364 154.417 257.316 154.604 258.043 154.158ZM247.854 147.307C247.711 147.632 247.401 147.846 247.058 147.853C246.589 147.866 246.187 147.495 246.135 147.002C246.084 146.515 246.398 146.063 246.864 145.968C247.198 145.896 247.543 146.034 247.755 146.318C247.962 146.602 248.001 146.985 247.854 147.307ZM243.569 164.835C243 164.764 242.674 164.793 242.272 164.38C242.061 163.762 242.323 163.287 242.542 162.627C243.052 162.782 243.056 162.84 243.481 163.195C243.803 163.883 243.7 164.08 243.569 164.835ZM243.111 169.35C242.868 169.554 242.538 169.591 242.256 169.445C241.978 169.303 241.803 169.003 241.811 168.677C241.819 168.348 242.001 168.056 242.288 167.926C242.654 167.755 243.087 167.897 243.295 168.256C243.505 168.619 243.426 169.086 243.111 169.35ZM237.287 180.034C236.61 179.9 236.562 179.947 236.033 179.467C235.699 178.8 235.819 178.424 235.902 177.668C236.797 177.768 236.618 177.614 237.259 178.103C237.557 178.795 237.398 179.27 237.287 180.034ZM223.986 148.129C223.683 148.266 223.329 148.216 223.067 148.004C222.803 147.791 222.677 147.444 222.728 147.098C222.784 146.756 223.011 146.468 223.325 146.355C223.787 146.184 224.292 146.427 224.471 146.907C224.65 147.382 224.435 147.924 223.986 148.129ZM218.029 180.072C217.763 180.239 217.424 180.231 217.166 180.047C216.908 179.863 216.776 179.542 216.824 179.216C216.875 178.895 217.098 178.633 217.401 178.545C217.787 178.432 218.188 178.636 218.347 179.021C218.507 179.404 218.371 179.855 218.029 180.072ZM216.02 133.622C215.574 133.634 215.193 133.28 215.149 132.812C215.109 132.345 215.423 131.924 215.865 131.853C216.179 131.803 216.489 131.936 216.677 132.203C216.863 132.47 216.895 132.821 216.76 133.121C216.621 133.418 216.338 133.609 216.02 133.622ZM216.633 180.652C215.789 180.652 215.157 180.677 214.492 180.134C214.225 179.346 214.266 179.755 214.484 178.858C215.296 178.874 215.853 178.778 216.518 179.246C216.856 179.997 216.768 179.709 216.633 180.652ZM209.884 176.421C208.5 176.254 208.182 176 207.983 174.644C208.739 174.702 208.902 174.669 209.578 175.061C210.016 175.854 209.888 175.428 209.884 176.421ZM206.873 174.948C206.125 175.115 205.695 175.149 205.066 174.723C204.66 173.913 204.776 174.348 204.808 173.35C205.679 173.359 205.818 173.304 206.542 173.738C206.992 174.469 206.889 174.08 206.873 174.948ZM204.362 173.847C203.574 173.684 203.32 173.697 202.794 173.104C202.683 172.27 202.643 172.683 203.041 171.844C203.706 172.003 204.08 172.019 204.585 172.495C204.772 173.283 204.764 172.971 204.362 173.847ZM186.733 132.57L186.494 132.658L187.178 133.643C186.752 134.06 186.776 134.026 186.211 134.189L186.012 134.018C185.642 132.717 186.888 131.135 187.623 130.201C188.093 130.418 188.125 130.485 188.55 130.81C188.921 131.933 187.548 132.27 186.733 132.57ZM174.581 144.666L173.992 144.545C173.463 144.086 173.598 144.37 173.531 143.694C173.813 142.935 174.016 142.88 174.665 142.433C175.361 142.838 175.282 142.659 175.631 143.281C175.357 144.136 175.317 143.965 174.581 144.666ZM164.722 197.763L164.491 197.858C164.014 197.341 163.692 197.086 163.64 196.39C164.996 195.501 165.131 197.074 166.87 195.401C167.606 195.797 167.599 195.835 167.818 196.415C167.201 197.508 166.206 197.166 164.722 197.763ZM162.999 160.22C162.804 159.811 162.967 159.311 163.357 159.11C163.751 158.902 164.228 159.073 164.423 159.486C164.618 159.903 164.451 160.404 164.057 160.604C163.663 160.804 163.19 160.633 162.999 160.22ZM162.486 196.748C162.243 196.907 161.94 196.911 161.694 196.761C161.447 196.615 161.304 196.335 161.312 196.035C161.324 195.739 161.495 195.471 161.75 195.343C162.115 195.163 162.553 195.309 162.748 195.68C162.943 196.056 162.828 196.523 162.486 196.748ZM160.293 196.281C159.967 196.581 159.473 196.553 159.184 196.218C158.893 195.885 158.909 195.367 159.219 195.051C159.426 194.841 159.729 194.767 160.003 194.854C160.282 194.946 160.488 195.183 160.548 195.48C160.608 195.776 160.512 196.085 160.293 196.281ZM158.419 195.651C156.86 195.802 155.642 195.605 155.725 193.748C157.118 193.886 158.639 193.949 158.419 195.651ZM158.288 151.183C158.937 151.729 158.957 151.558 159.096 152.218C158.79 152.906 158.538 153.265 158.129 153.895C157.603 153.498 157.504 153.507 157.281 152.864C157.365 152.13 157.807 151.763 158.288 151.183ZM159.792 157.078C160.619 157.095 160.858 157.028 161.554 157.424C162.064 158.218 161.917 157.888 161.996 158.893C161.117 158.772 160.994 158.777 160.202 158.405C159.637 157.679 159.796 158.092 159.792 157.078ZM164.825 160.008C165.545 160.015 165.629 159.961 166.285 160.296C166.675 161.025 166.568 160.625 166.493 161.56C165.8 161.543 165.756 161.584 165.1 161.288C164.662 160.579 164.801 160.976 164.825 160.008ZM139.54 163.521C139.103 163.095 139.122 163.099 138.82 162.556C138.931 161.789 138.995 161.931 139.556 161.23C140.487 161.805 140.511 162.907 139.54 163.521ZM138.108 166.779C136.715 166.316 135.784 165.194 136.731 163.716C136.93 163.879 138.398 165.302 138.601 165.54C138.581 166.249 138.545 166.078 138.108 166.779ZM124.735 192.705C124.031 192.931 123.852 192.88 123.41 192.172C122.964 191.412 122.348 192.518 121.572 191.17C121.739 190.461 121.572 190.741 122.033 190.269C122.646 190.402 122.953 190.845 123.486 191.337C124.381 191.387 124.114 191.254 124.819 191.713C125.018 192.38 125.038 192.063 124.735 192.705ZM116.149 177.527C115.823 177.594 115.488 177.469 115.273 177.201C115.059 176.934 114.995 176.567 115.11 176.242C115.226 175.912 115.5 175.674 115.827 175.616C116.328 175.532 116.801 175.883 116.889 176.404C116.98 176.93 116.65 177.43 116.149 177.527ZM301.186 176.525C298.173 174.547 294.226 174.94 291.346 172.883C288.267 170.68 286.886 165.439 283.866 163.27C281.614 161.647 278.045 161.58 275.407 160.086C272.634 158.513 270.509 154.993 268.086 153.457C264.939 151.467 261.641 150.645 258.334 148.5C254.156 145.788 252.1 142.171 248.67 139.154C247.929 138.5 247.138 137.92 246.302 137.414C243.354 135.654 240.402 134.556 237.716 132.249C235.162 130.059 233.041 126.896 230.224 125.144C226.225 122.661 220.822 122.979 216.728 120.438C211.444 117.162 205.477 112.085 198.86 112.79C192.728 113.678 191.276 117.024 186.581 120.609C183.823 122.715 180.207 123.433 177.625 125.474C174.848 127.672 172.552 130.459 169.767 132.762C167.754 134.431 164.443 135.916 162.761 137.489C159.43 140.606 157.62 142.963 153.828 145.692C149.881 148.534 145.285 149.21 141.84 151.717C139.476 153.432 137.582 157.028 134.646 159.089C129.999 162.357 124.858 161.396 121.54 166.199C120.621 167.53 118.667 170.509 117.557 171.344C111.203 176.112 106.433 174.556 102.275 182.605C123.414 208.352 178.477 214.981 209.009 213.738C235.245 212.912 284.347 206.537 303.175 185.771C303.879 184.995 304.567 184.186 305.164 183.313C304.472 180.335 303.871 178.29 301.186 176.525Z" fill="#BEBCA2"/>
<path d="M167.817 196.415C167.2 197.508 166.206 197.166 164.722 197.763L164.491 197.858C164.013 197.341 163.691 197.086 163.64 196.39C164.996 195.501 165.131 197.074 166.87 195.401C167.606 195.797 167.599 195.835 167.817 196.415Z" fill="#1C1C14"/>
<path d="M186.732 132.57L186.493 132.658L187.177 133.643C186.752 134.06 186.776 134.026 186.211 134.189L186.012 134.018C185.642 132.717 186.887 131.135 187.623 130.201C188.093 130.418 188.124 130.485 188.55 130.81C188.921 131.932 187.548 132.27 186.732 132.57Z" fill="#1C1C14"/>
<path d="M138.601 165.54C138.581 166.249 138.545 166.078 138.108 166.779C136.715 166.316 135.784 165.194 136.731 163.716C136.93 163.879 138.399 165.302 138.601 165.54Z" fill="#1C1C14"/>
<path d="M259.95 197.487C259.36 198.238 258.485 198.538 257.614 198.96C257.077 198.179 257.145 198.576 257.212 197.783C257.757 197.183 258.688 197.14 259.587 196.319C260.025 196.861 260.037 196.895 259.95 197.487Z" fill="#1C1C14"/>
<path d="M158.419 195.651C156.86 195.802 155.642 195.605 155.725 193.748C157.118 193.886 158.638 193.949 158.419 195.651Z" fill="#1C1C14"/>
<path d="M216.633 180.652C215.789 180.652 215.157 180.677 214.492 180.134C214.225 179.346 214.265 179.755 214.484 178.858C215.296 178.874 215.853 178.778 216.517 179.246C216.856 179.997 216.768 179.709 216.633 180.652Z" fill="#1C1C14"/>
<path d="M175.631 143.281C175.356 144.136 175.317 143.965 174.581 144.666L173.992 144.545C173.463 144.086 173.598 144.37 173.531 143.694C173.813 142.935 174.016 142.88 174.664 142.433C175.36 142.838 175.281 142.659 175.631 143.281Z" fill="#1C1C14"/>
<path d="M159.096 152.218C158.79 152.906 158.538 153.265 158.129 153.895C157.603 153.498 157.504 153.507 157.281 152.864C157.365 152.13 157.807 151.763 158.288 151.183C158.937 151.729 158.957 151.558 159.096 152.218Z" fill="#1C1C14"/>
<path d="M237.287 180.034C236.61 179.9 236.562 179.947 236.033 179.467C235.699 178.8 235.819 178.424 235.902 177.668C236.797 177.768 236.618 177.614 237.259 178.103C237.557 178.795 237.398 179.27 237.287 180.034Z" fill="#1C1C14"/>
<path d="M161.996 158.893C161.116 158.772 160.994 158.777 160.202 158.405C159.636 157.679 159.795 158.092 159.792 157.078C160.619 157.095 160.858 157.028 161.554 157.424C162.064 158.218 161.917 157.888 161.996 158.893Z" fill="#1C1C14"/>
<path d="M206.873 174.948C206.125 175.115 205.695 175.149 205.066 174.723C204.66 173.913 204.776 174.348 204.808 173.35C205.679 173.359 205.818 173.305 206.542 173.738C206.992 174.469 206.889 174.08 206.873 174.948Z" fill="#1C1C14"/>
<path d="M116.149 177.527C115.823 177.594 115.488 177.469 115.274 177.201C115.059 176.934 114.995 176.567 115.11 176.242C115.226 175.912 115.5 175.674 115.827 175.616C116.328 175.532 116.801 175.883 116.889 176.404C116.98 176.93 116.65 177.43 116.149 177.527Z" fill="#1C1C14"/>
<path d="M204.362 173.847C203.574 173.684 203.32 173.696 202.794 173.104C202.683 172.27 202.643 172.683 203.041 171.844C203.706 172.003 204.08 172.019 204.585 172.495C204.772 173.283 204.764 172.971 204.362 173.847Z" fill="#1C1C14"/>
<path d="M223.985 148.129C223.683 148.266 223.329 148.216 223.066 148.004C222.803 147.791 222.676 147.444 222.728 147.098C222.784 146.756 223.011 146.468 223.325 146.355C223.787 146.184 224.291 146.427 224.471 146.907C224.65 147.382 224.435 147.924 223.985 148.129Z" fill="#1C1C14"/>
<path d="M263.383 193.886C263.279 194.654 263.2 194.537 262.679 195.25C261.832 194.992 262.006 195.183 261.513 194.579C261.632 193.736 261.632 193.966 262.237 193.202C262.822 193.394 263.041 193.382 263.383 193.886Z" fill="#1C1C14"/>
<path d="M247.854 147.307C247.711 147.632 247.401 147.846 247.058 147.853C246.589 147.866 246.187 147.495 246.135 147.002C246.084 146.515 246.398 146.063 246.864 145.968C247.198 145.896 247.544 146.034 247.755 146.318C247.962 146.602 248.001 146.985 247.854 147.307Z" fill="#1C1C14"/>
<path d="M259.046 154.855C258.951 155.463 258.645 155.643 258.199 156.06C257.387 155.597 257.431 155.789 257.069 155.076C257.364 154.417 257.316 154.604 258.043 154.158C258.915 154.491 258.652 154.203 259.046 154.855Z" fill="#1C1C14"/>
<path d="M243.569 164.835C243 164.764 242.674 164.793 242.272 164.38C242.061 163.762 242.324 163.287 242.542 162.627C243.052 162.782 243.056 162.84 243.481 163.195C243.804 163.883 243.7 164.08 243.569 164.835Z" fill="#1C1C14"/>
<path d="M216.76 133.121C216.621 133.418 216.338 133.609 216.02 133.622C215.575 133.634 215.193 133.28 215.149 132.812C215.109 132.345 215.424 131.924 215.865 131.853C216.179 131.803 216.489 131.936 216.677 132.203C216.863 132.47 216.895 132.821 216.76 133.121Z" fill="#1C1C14"/>
<path d="M209.884 176.421C208.5 176.254 208.182 176 207.983 174.644C208.739 174.702 208.902 174.669 209.578 175.061C210.016 175.854 209.888 175.428 209.884 176.421Z" fill="#1C1C14"/>
<path d="M263.36 159.277C262.819 159.148 262.862 159.14 262.492 158.697C262.365 158.009 262.592 157.692 262.874 157.045C263.486 157.292 263.471 157.245 263.865 157.788C263.928 158.48 263.717 158.685 263.36 159.277Z" fill="#1C1C14"/>
<path d="M139.54 163.521C139.102 163.095 139.122 163.099 138.82 162.556C138.931 161.789 138.995 161.931 139.556 161.23C140.487 161.805 140.511 162.907 139.54 163.521Z" fill="#1C1C14"/>
<path d="M267.092 191.116C267.092 191.558 266.774 191.93 266.351 191.967C266.049 191.992 265.755 191.842 265.595 191.566C265.432 191.295 265.432 190.953 265.591 190.678C265.751 190.406 266.041 190.248 266.347 190.273C266.765 190.311 267.092 190.678 267.092 191.116Z" fill="#1C1C14"/>
<path d="M166.493 161.56C165.8 161.543 165.756 161.584 165.1 161.288C164.662 160.579 164.801 160.976 164.825 160.008C165.545 160.015 165.629 159.961 166.285 160.296C166.675 161.026 166.568 160.625 166.493 161.56Z" fill="#1C1C14"/>
<path d="M243.112 169.35C242.869 169.554 242.538 169.591 242.257 169.445C241.978 169.303 241.803 169.003 241.811 168.677C241.819 168.348 242.001 168.056 242.288 167.926C242.654 167.755 243.087 167.897 243.295 168.256C243.506 168.619 243.426 169.086 243.112 169.35Z" fill="#1C1C14"/>
<path d="M218.029 180.072C217.763 180.239 217.424 180.231 217.166 180.047C216.908 179.863 216.776 179.542 216.824 179.216C216.875 178.895 217.098 178.633 217.401 178.545C217.787 178.432 218.188 178.636 218.347 179.021C218.507 179.404 218.371 179.855 218.029 180.072Z" fill="#1C1C14"/>
<path d="M160.293 196.281C159.967 196.581 159.473 196.553 159.184 196.218C158.893 195.885 158.909 195.367 159.219 195.051C159.426 194.841 159.729 194.767 160.003 194.854C160.282 194.946 160.488 195.184 160.548 195.48C160.608 195.776 160.512 196.085 160.293 196.281Z" fill="#1C1C14"/>
<path d="M164.057 160.604C163.663 160.805 163.19 160.633 162.999 160.22C162.804 159.811 162.967 159.311 163.357 159.11C163.751 158.902 164.228 159.073 164.423 159.486C164.618 159.903 164.451 160.404 164.057 160.604Z" fill="#1C1C14"/>
<path d="M124.735 192.705C124.031 192.931 123.851 192.88 123.41 192.172C122.964 191.412 122.348 192.518 121.572 191.17C121.739 190.461 121.572 190.741 122.033 190.269C122.646 190.402 122.953 190.845 123.486 191.337C124.381 191.387 124.114 191.254 124.819 191.713C125.017 192.38 125.038 192.063 124.735 192.705Z" fill="#1C1C14"/>
<path d="M162.486 196.748C162.243 196.907 161.94 196.911 161.694 196.761C161.447 196.615 161.304 196.335 161.312 196.035C161.324 195.739 161.495 195.471 161.749 195.343C162.115 195.163 162.553 195.309 162.748 195.68C162.943 196.056 162.827 196.523 162.486 196.748Z" fill="#1C1C14"/>
<path d="M189.773 51.2808C190.681 50.1555 189.498 47.0887 190.073 44.8102C191.854 45.6426 192.149 51.451 195.234 50.1284C196.114 49.7508 198.413 48.6331 199.238 48.8702L199.38 49.2639C198.969 50.8075 196.551 52.241 196.038 53.5889C195.461 55.1063 198.642 57.8166 198.245 59.3965L197.879 59.4786C196.528 58.9664 195.335 57.8961 194.173 56.9741C191.557 56.1087 191.258 61.0044 189.399 61.5311L189.087 61.2517C188.977 60.1129 189.751 58.1332 189.924 56.6828C190.327 53.3019 185.79 54.8903 184.401 53.0496C185.113 52.0496 188.135 51.8811 189.773 51.2808ZM188.377 56.2493C187.794 58.2501 185.835 62.9061 188.742 63.7054C191.224 64.3887 192.167 59.7936 193.442 58.8859C193.949 59.0612 193.812 58.9681 194.231 59.2831C195.267 60.09 199.278 63.1077 200.324 60.7987C201.271 58.7056 198.906 55.8886 197.694 54.3552L197.855 54.1528C198.902 52.8514 201.548 50.7643 201.238 49.0057C200.546 45.0888 196.439 47.6848 194.438 48.7077C192.998 46.1201 192.124 42.9195 188.937 43.0017C187.887 44.4622 187.991 46.0388 188.217 47.7729C188.316 48.5044 188.433 49.2334 188.567 49.9591C186.587 50.2639 181.815 50.6458 182.018 53.55C182.947 55.7066 186.354 56.0681 188.377 56.2493Z" fill="#1C1C14"/>
<path d="M361.717 160.39C361.985 161.99 363.867 165.299 363.363 166.516C362.352 166.49 360.591 164.373 359.865 163.587C356.704 161.486 356.385 166.514 354.197 165.709C353.654 164.08 355.836 162.326 355.474 160.268C355.047 157.853 351.722 158.7 351.471 156.914C352.135 156.004 355.899 157.071 356.806 156.499C358.113 155.673 357.867 152.275 358.532 150.531C360.036 151.318 359.991 154.288 361.251 156.708C362.689 156.715 365.753 156.325 366.82 156.643L366.916 156.974C366.088 158.244 363.161 159.485 361.717 160.39ZM362.323 154.992C361.259 152.302 361.637 148.727 358.172 148.554C356.18 150.514 356.426 152.18 355.904 154.896C354.089 154.735 350.413 154.043 349.567 156.211C349.567 158.714 352.151 159.687 353.799 160.866C352.492 163.756 350.404 170.135 356.429 166.913C356.804 166.711 358.214 165.341 358.681 164.928L360.082 166.52C361.138 167.525 364.014 169.844 364.922 167.629C365.769 165.566 364.432 162.904 363.596 161.075C365.275 160.396 368.388 159.319 368.91 157.489C369.971 153.768 363.827 154.74 362.323 154.992Z" fill="#1C1C14"/>
<path d="M142.086 88.52C142.901 88.0365 145.18 87.6004 146.24 87.4031C149.468 86.8011 147.003 83.3626 148.552 80.7361C150.258 81.9368 149.874 84.8452 151.605 85.8714C153.074 86.7427 155.614 84.2153 156.824 85.0036C156.688 86.7986 153.884 88.0543 153.555 89.7096C153.206 91.469 155.215 93.8796 156.214 95.5155C154.216 94.9863 152.787 93.9939 151.007 92.9398C148.534 92.8847 148.427 95.5527 146.643 97.1725L146.402 96.9811C146.229 95.3105 146.87 93.6569 146.848 91.8518C146.82 89.5148 143.464 90.0855 142.014 88.7968L142.086 88.52ZM145.196 92.6663C145.359 93.966 142.371 100.091 147.262 99.0589C148.511 98.7948 149.424 95.2606 151.049 95.1675L151.77 95.5578C153.354 96.6611 156.398 98.6491 158.019 96.5391C158.523 94.0871 155.934 92.2446 155.461 90.3234C156.043 88.7308 161.193 85.6902 157.689 83.0587C156.39 82.0833 152.776 85.6716 151.667 83.3626C150.495 81.223 150.779 78.732 147.663 78.8327C145.746 81.2823 146.543 83.0722 146.725 85.9341C145.103 86.1805 140.79 86.2279 139.966 87.8146C138.255 91.1083 144.961 90.7807 145.196 92.6663Z" fill="#1C1C14"/>
<path d="M302.325 99.0125C301.66 98.1387 299.381 95.2065 299.28 94.3225C300.338 93.8898 302.984 95.701 304.64 96.0871C305.788 95.5655 306.814 92.9483 307.929 91.5749C309.099 92.6325 308.121 96.0151 307.99 97.6857C309.103 98.4909 312.617 99.5501 312.766 100.649C311.846 101.311 309.173 100.903 308.228 101.627C306.847 102.685 309.712 106.842 307.823 107.69C305.488 106.963 306.425 102.924 302.977 102.9C302.003 103.217 299.4 104.908 298.533 104.046C298.8 103.154 301.53 100.31 302.325 99.0125ZM296.25 103.956C296.788 108.153 301.321 105.723 303.472 104.777C305.1 106.067 306.654 111.969 309.314 108.722C310.311 107.505 309.715 104.535 309.578 103.02C311.249 102.853 314.885 102.742 315.331 100.548C314.868 98.12 311.669 97.4977 309.714 96.8889C310.119 94.3835 311.398 90.1669 307.899 89.7003C304.854 91.663 305.526 94.8339 302.353 93.2743C301.143 92.6791 297.827 90.9306 297.488 93.364C297.183 95.5316 299.117 97.6264 300.211 99.3486C299.365 100.127 296.099 102.777 296.25 103.956Z" fill="#1C1C14"/>
<path d="M68.5674 131.056C67.8171 132.41 69.116 135.378 69.4125 137.057L69.2187 137.331C67.3813 136.673 66.8884 134.178 64.9451 133.329C63.8907 134.042 61.3076 136.458 60.1092 136.217C59.848 134.766 62.0241 133.339 62.3558 131.8C62.8529 129.497 58.3036 127.654 58.5149 126.219C59.9029 125.984 61.8826 127.329 63.6465 126.895C64.7961 125.982 65.3162 122.848 66.1825 121.124L66.4981 121.304C67.104 122.106 67.0372 124.36 67.0777 125.477C67.2098 129.106 71.828 126.822 73.3578 128.263C73.2146 129.88 69.4531 129.458 68.5674 131.056ZM68.6983 125.294C67.7724 122.844 69.5673 119.487 65.5042 119.377C63.7539 121.332 63.801 123.067 63.0424 125.545C61.4135 124.909 57.081 123.049 56.0757 125.641C56.0719 128.326 59.8833 129.707 60.4797 131.138C59.9359 133.114 56.051 136.835 59.7246 138.196C61.4072 138.819 64.461 135.26 65.5065 135.531C66.4634 137.343 68.1087 140.934 70.6888 139.215C71.9132 137.423 70.2998 134.054 69.8625 131.996C71.8025 131.208 76.3626 130.205 75.5183 127.37C74.8443 125.106 69.3361 126.983 68.6983 125.294Z" fill="#1C1C14"/>
<path d="M257.993 75.5611C259.863 75.1292 261.053 73.197 260.658 71.2326C260.264 69.2674 258.434 68.0025 256.557 68.3953C254.652 68.795 253.425 70.7466 253.825 72.7398C254.224 74.7321 256.097 75.9997 257.993 75.5611Z" fill="#1C1C14"/>
<path d="M101.237 107.762C102.414 107.507 103.363 106.598 103.71 105.392C104.057 104.187 103.746 102.879 102.9 101.984C102.053 101.091 100.808 100.755 99.6558 101.111C97.9732 101.629 96.98 103.447 97.4046 105.231C97.8287 107.016 99.5197 108.132 101.237 107.762Z" fill="#1C1C14"/>
<path d="M342.889 123.467C341.772 123.942 341.236 125.277 341.689 126.447C342.143 127.618 343.416 128.182 344.532 127.707C345.649 127.231 346.186 125.895 345.732 124.724C345.278 123.554 344.006 122.99 342.889 123.467Z" fill="#1C1C14"/>
<path d="M238.317 90.249C239.45 89.8815 240.091 88.6284 239.757 87.4362C239.423 86.2432 238.237 85.5531 237.096 85.8859C236.342 86.106 235.76 86.7343 235.572 87.5302C235.384 88.3261 235.619 89.166 236.188 89.7299C236.757 90.2921 237.57 90.4911 238.317 90.249Z" fill="#1C1C14"/>
<path d="M84.5791 71.3369C85.3175 71.2454 85.9506 70.7408 86.2319 70.0194C86.5128 69.2972 86.3978 68.4725 85.931 67.8645C85.4644 67.2574 84.7199 66.9645 83.9874 67.0991C82.8984 67.2998 82.1592 68.3725 82.3191 69.519C82.4795 70.6663 83.4809 71.4715 84.5791 71.3369Z" fill="#1C1C14"/>
<path d="M78.3671 339.557C75.9381 329.717 81.8453 322.289 87.7542 315.671L87.9173 315.878C88.8389 324.405 85.5894 334.877 78.3671 339.557ZM62.8518 287.789C70.8349 289.968 77.3943 294.476 81.8012 301.963L80.3275 301.489C72.9476 299.081 66.5263 295.134 62.8518 287.789ZM82.0618 310.048C77.5845 313.006 74.1122 313.777 68.9565 314.421C62.738 314.679 60.7913 314.419 54.8294 312.602C58.6952 309.973 63.9158 308.193 68.481 307.646C73.1016 306.946 77.8502 308.122 82.0618 310.048ZM79.821 345.149C78.5453 346.121 76.5519 348.107 75.087 348.425C73.3798 347.527 72.8545 339.897 72.7797 338.14C72.2995 326.838 77.2116 320.173 84.8104 312.964C85.1075 312.682 85.9697 311.693 85.9526 311.234C85.322 310.97 85.3251 310.999 84.8155 310.545C84.6484 309.743 84.8342 309.809 85.349 308.844C79.8877 306.299 75.747 304.795 69.609 305.12C67.5623 305.231 65.5308 305.552 63.5434 306.078C60.4348 306.909 53.4964 309.72 50.8257 312.046C50.5691 312.268 50.6704 312.374 50.7124 312.786C52.5185 315.666 63.498 316.759 66.7761 316.947C71.5917 317.224 75.7486 315.951 80.1472 314.074C77.5052 316.78 76.6041 318.266 72.7666 318.909C64.0394 320.369 52.5702 317.461 45.3485 312.331C52.2264 309.719 58.4046 304.203 66.1494 303.22C69.3317 302.816 70.3547 302.813 73.6729 303.072C76.8014 303.318 80.3999 304.576 83.4261 304.311C83.8486 304.274 84.1041 303.756 84.301 303.4C84.4578 301.779 82.7728 299.659 81.806 298.169C76.6168 290.171 69.5124 286.305 60.5982 284.452C59.8524 284.296 59.2599 284.294 58.6669 284.748C58.6305 285.095 58.6152 285.361 58.7413 285.697C61.6912 293.541 66.4582 297.127 73.0125 300.922C71.097 300.839 69.1805 300.779 67.2639 300.741C60.7343 294.691 57.9677 291.069 55.9035 281.882C65.2637 285.1 72.9325 282.876 80.4142 292.495C82.8205 295.589 83.9055 298.735 86.1129 301.794C86.3286 302.092 86.3039 302.032 86.689 302.007C87.052 300.59 83.8462 292.257 83.6259 289.073C82.9936 279.949 88.0682 270.953 93.4367 264.04L93.5954 263.838C97.4445 269.586 101.435 284.82 98.3369 291.823C97.5018 293.71 94.3872 300.049 94.2571 301.427L94.5889 301.653C97.1775 301.017 98.9202 294.116 100.394 292.216C105.858 285.174 119.05 284.566 126.943 282.654C123.947 288.051 117.526 298.887 111.716 301.187C107.174 302.986 97.2027 303.799 95.2438 309.309C95.8264 309.656 96.3969 310.025 96.954 310.415C100.195 311.68 101.421 311.68 105.082 313.581C116.844 319.687 118.187 326.501 122.09 338.206C114.623 338.393 108.671 337.184 102.397 332.749C94.3156 327.036 93.4916 318.701 90.0122 310.187C84.1268 314.778 78.0257 321.84 75.9977 329.375C74.8638 333.588 74.9533 339.649 76.3057 343.789C82.3192 341.892 87.4398 334.641 89.4185 328.636C90.515 325.308 90.6173 321.981 90.6925 318.503C90.9397 319.514 91.1724 320.529 91.3912 321.547C93.4705 331.681 87.1466 339.559 79.821 345.149ZM51.9535 318.86C50.7968 318.203 50.0914 317.772 49.0021 316.995C50.1561 317.486 50.9675 317.836 52.0764 318.442C57.7725 320.89 63.9137 321.991 70.0617 321.664C71.9218 321.552 73.778 321.171 75.4856 321.06C68.1047 325.14 59.0062 322.481 51.9535 318.86ZM58.6064 294.345C59.1494 294.624 59.5596 295.549 59.8976 296.148C60.8031 297.287 63.7421 300.397 63.828 301.494C63.3857 301.662 63.6258 301.623 63.0473 301.381C61.6367 299.635 60.8777 298.507 59.7309 296.536C59.2669 295.941 58.5492 295.122 58.6064 294.345ZM117.142 301.087C117.134 300.862 117.232 300.571 117.371 300.409C120.212 297.099 122.778 293.887 125.191 290.222C125.065 292.789 119.197 299.596 117.142 301.087ZM103.192 309.785C105.839 308.887 110.347 308.303 113.073 308.067C116.778 307.646 123.153 308.502 126.915 309.145C124.199 310.766 120.227 312.33 117.201 313.096C111.583 314.161 108.305 312.122 103.192 309.785ZM134.999 306.801C131.777 310.324 125.416 314.736 121.111 316.802C119.629 317.513 117.099 318.22 115.481 318.658C114.443 317.616 113.177 316.556 112.062 315.58C115.557 315.9 117.506 315.548 120.815 314.493C120.977 314.429 121.137 314.363 121.297 314.297C123.57 313.35 129.496 310.927 130.4 308.737L130.226 308.298C127.52 306.137 117.25 305.401 113.67 305.495C111.252 305.556 108.843 305.838 106.472 306.338C103.916 306.886 101.769 307.843 99.301 308.555C98.9596 308.653 98.8152 308.542 98.5904 308.327L98.7726 308.026C103.235 305.744 108.061 304.344 113.007 303.896C118.526 303.043 128.957 305.881 134.999 306.801ZM94.0307 326.732C97.916 333.754 103.101 337.71 110.594 339.927C113.897 340.905 121.45 341.807 124.466 340.171C125.659 338.431 120.663 326.591 119.62 324.216C126.333 320.616 130.631 317.463 135.554 311.31C141.656 303.683 137.406 304.532 130.647 303.524C127.677 303.081 124.318 302.209 121.246 301.774C124.359 296.76 130.104 288.206 130.274 281.741C130.35 278.825 125.631 280.299 124.317 280.753C118.986 282.303 113.449 282.441 108.164 284.274C106.008 285.002 103.966 286.061 102.105 287.416C102.281 279.352 100.244 271.937 97.0463 264.664C96.2609 262.878 95.1551 260.556 93.1888 260.18C91.3614 261.312 89.7715 263.849 88.5437 265.666C83.8017 272.684 80.627 279.81 80.6693 288.521C79.1489 287.179 76.8909 285.127 75.2091 284.167C70.2078 281.312 63.9473 280.993 58.4765 279.485C56.8214 279.029 55.1265 277.642 53.5811 277.536C53.1433 277.507 52.7089 277.794 52.3718 278.061C51.4935 279.646 52.4121 282.992 52.7526 284.809C53.8931 290.895 55.8361 297.038 59.4042 302.042C53.718 304.59 47.373 308.219 41.6127 310.736C38.7894 311.969 46.5821 318.728 47.6021 319.511C54.2148 324.696 64.5487 327.032 72.5876 324.905C69.2947 332.711 68.7337 340.867 71.2534 349.008C72.0066 351.441 74.2956 352.813 76.4851 351.457C80.9115 348.716 86.0584 344.461 89.1727 340.226C92.292 336.142 93.8493 331.967 94.0307 326.732Z" fill="#1C1C14"/>
<path d="M115.318 332.931C113.193 332.803 111.017 331.951 109.126 330.963C102.231 327.36 98.5245 321.098 96.142 313.669C104.377 316.865 113.455 323.308 115.318 332.931ZM92.7071 308.851C91.8946 312.242 95.3056 318.968 96.9974 321.935C100.453 327.995 105.802 333.053 112.484 334.677C113.943 335.032 115.793 335.568 117.29 335.345C118.513 334.44 118.085 333.121 117.732 331.81C114.614 320.207 106.202 315.863 96.7421 310.751C95.9232 310.291 95.8352 310.205 95.1349 309.545L94.9619 309.379C94.3588 308.81 94.2942 308.706 93.5741 308.387C92.8966 308.429 93.1826 308.292 92.7071 308.851Z" fill="#1C1C14"/>
<path d="M92.7029 273.06C93.2368 273.532 93.3594 274.409 93.5476 275.083C95.693 282.749 94.1305 291.132 90.1803 298.005C89.5259 296.454 88.8566 293.77 88.549 292.108C87.1605 284.611 88.684 279.258 92.7029 273.06ZM89.6389 302.061C92.0297 301.005 93.626 295.82 94.8714 293.654C97.5017 289.079 97.7285 273.177 94.0465 269.66L93.1668 269.398C90.3403 270.666 88.6342 274.891 87.4883 277.688C84.5579 284.84 85.6665 292.921 88.4433 299.916C88.7742 300.75 89.0209 301.407 89.6389 302.061Z" fill="#1C1C14"/>
<path d="M118.054 288.627L118.213 288.747C118.092 289.559 116.87 291.118 116.358 291.824C111.846 298.047 105.566 299.955 98.7397 302.11L98.6425 302.033L98.6262 301.696C103.904 293.703 109.156 290.925 118.054 288.627ZM97.4294 304.772C99.9548 304.073 102.682 302.958 105.028 302.323C112.662 300.256 117.24 296.181 121.23 289.105C121.833 288.035 122.533 286.814 121.44 285.902C120.693 285.748 120.696 285.781 119.98 285.913C109.009 288.191 103.427 289.663 96.6337 300.128C95.8702 301.305 95.002 302.707 95.2033 304.167C95.8812 305.169 96.2983 304.898 97.4294 304.772Z" fill="#1C1C14"/>
<path d="M87.277 304.152C87.9916 303.915 88.754 304.332 88.9768 305.082C89.1992 305.833 88.7978 306.631 88.0808 306.861C87.3686 307.09 86.6142 306.672 86.3931 305.926C86.1713 305.18 86.5669 304.386 87.277 304.152ZM90.3985 307.625C92.1053 306.687 94.2758 304.97 93.2079 302.778L92.7722 302.459C91.3661 304.932 93.5417 305.298 91.5176 306.18C91.0788 306.372 90.8859 306.281 90.5655 306.105C90.2131 305.024 89.977 303.692 88.9191 303.205C87.2285 302.429 85.1576 303.742 84.8843 305.608C86.1746 308.55 87.4848 309.226 90.3985 307.625Z" fill="#1C1C14"/>
<path d="M163.95 371.026C162.779 371.822 156.236 374.576 154.595 375.328L154.404 375.277L154.333 374.925C159.802 361.066 167.957 355.189 180.528 349L180.784 349.109C180.774 349.279 180.774 349.449 180.707 349.618C177.389 358.025 171.224 366.078 163.95 371.026ZM147.783 368.84C147.565 369.447 147.588 369.702 147.179 370.049C142.96 360.377 140.129 351.307 142.444 340.558C143.567 341.231 145.737 345.338 146.386 346.644C149.947 353.804 150.167 361.207 147.783 368.84ZM116.126 396.344C112.643 396.885 109.111 396.971 105.608 396.601C109.953 391.746 115.8 388.664 122.108 387.902C125.299 387.371 129.704 388.183 132.851 388.839C126.708 393.208 123.476 394.911 116.126 396.344ZM178.607 391.366C175.857 391.411 172.968 391.319 170.22 390.893C166.716 390.35 156.457 385.028 153.482 386.411C153.135 387.028 153.217 386.695 153.289 387.458C154.2 388.609 156.172 388.728 157.549 389.151C159.962 389.912 162.313 390.873 164.58 392.026C171.578 395.655 177.255 402.191 180.095 409.814C182.228 415.539 183.61 421.647 186.226 427.179C186.598 427.964 187.413 429.069 187.653 429.803L187.397 430.06C184.854 430.698 176.627 426.573 174.1 425.263C162.83 418.922 156.145 411.156 151.916 398.442C151.311 396.621 149.652 391.06 147.781 391.019C146.856 391.828 146.756 393.166 146.794 394.363C147.084 403.699 144.501 413.202 139.057 420.766C134.402 427.235 124.882 433.33 116.993 434.379C117.916 430.869 118.911 427.257 119.666 423.701C120.944 417.678 121.851 411.661 124.486 406.057C125.881 402.805 128.025 400.255 130.022 397.457C132.514 393.967 136.469 391.496 139.015 388.249C134.248 385.572 128.419 384.593 122.93 384.964C114.698 385.521 107.744 390.244 102.239 396.455C101.758 396.997 101.664 397.318 101.74 398.013C103.256 400.23 112.074 399.458 114.485 399.313C119.043 399.04 123.5 397.213 127.706 395.445C126.38 397.113 125.182 398.877 123.961 400.629C115.645 403.09 99.9519 403.191 91.7095 400.914C93.8005 399.056 97.3022 396.888 99.0731 395.05C109.338 384.398 120.297 379.593 134.709 383.821C135.434 384.035 138.572 384.935 139.091 384.697C139.683 380.134 122.356 379.161 119.458 379.654C109.818 371.732 104.449 363.581 101.226 351.163C107.16 353.564 111.051 354.335 117.081 355.753C124.718 357.776 131.516 360.737 136.318 367.534C137.82 369.661 142.869 379.666 144.471 380.05C145.084 379.43 145.412 378.799 145.016 377.899C142.853 373.11 139.738 368.728 138.014 363.697C134.078 352.207 136.184 337.427 140.984 326.418C142.406 327.827 144.622 331.611 145.683 333.458C150.062 341.064 154.253 349.179 154.031 358.331C153.509 359.251 152.743 360.235 152.114 361.099C152.106 354.874 151.198 349.239 148.187 343.768C146.914 341.454 144.667 337.678 142.542 336.209C140.097 334.517 139.027 342.768 138.918 344.055C137.713 352.68 140.103 360.871 143.369 368.68C144.588 371.612 145.647 374.703 146.969 377.657C148.62 375.243 150.57 369.911 152.073 367C154.394 362.506 155.975 360.516 159.294 356.837C168.249 346.909 176.68 345.209 188.43 341.3C185.858 348.215 183.12 356.028 178.964 362.079C177.307 364.492 174.224 367.76 172.173 370.032L169.695 370.342C175.596 364.509 179.919 358.904 182.926 350.889C183.475 349.425 185.38 346.042 184.096 344.804C182.498 344.64 177.742 346.977 176.159 347.751C164.506 353.456 155.001 361.997 151.085 375.179C150.721 376.405 150.29 377.283 150.848 378.523C151.013 378.664 151.177 378.804 151.342 378.946C154.857 379.019 160.015 375.754 163.265 374.786C166.824 373.726 168.737 373.026 171.95 372.56C180.999 371.246 189.685 373.546 198.131 376.679C201.431 377.903 205.232 379.711 208.614 380.548C198.91 386.947 190.496 391.171 178.607 391.366ZM198.566 389.907C193.217 393.653 186.929 396.512 180.549 397.408C178.642 397.677 177.914 397.74 176.596 397.885L175.07 396.208C174.372 395.557 173.767 394.953 173.098 394.269C183.518 394.579 188.821 394.035 198.591 389.504L198.739 389.597C198.68 389.701 198.623 389.804 198.566 389.907ZM156.345 417.177C153.798 413.249 152.103 409.997 151.616 405.251C152.656 406.778 153.909 409.769 155.111 411.614C161.784 421.857 168.07 425.848 178.613 430.405C169.26 430.117 161.543 425.192 156.345 417.177ZM144.265 421.592C140.699 426.787 135.09 431.015 129.213 432.717C129.232 432.444 134.705 428.855 135.434 428.267C142.813 422.306 146.102 415.266 148.562 406.116C149.435 410.548 146.719 418.016 144.265 421.592ZM102.258 406.025L99.8497 404.993C101.896 404.982 105.192 405.479 107.505 405.561C112.764 405.745 116.475 405.302 121.525 404.376L121.739 404.387C121.817 405.003 120.658 407.444 120.34 408.185C113.315 408.532 109.069 408.249 102.258 406.025ZM179.945 369.67L176.713 369.674C176.667 369.208 178.666 366.954 179.077 366.454C182.865 361.843 184.748 357.689 187.224 352.303C187.803 356.069 182.084 366.262 179.945 369.67ZM205.768 376.21C198.328 373.286 191.515 370.742 183.551 369.832C188.853 361.495 191.892 349.455 191.026 339.317C190.985 338.835 190.679 338.465 190.371 338.136C189.386 337.653 188.261 337.841 187.3 338.299C183.48 340.116 179.422 340.999 175.435 342.385C167.384 345.182 162.941 348.785 156.98 354.781C156.518 352.678 155.294 346.737 154.318 344.423C151.613 338.007 146.807 327.643 141.619 323.197C141.175 322.815 140.277 322.927 139.727 322.961C136.441 325.739 133.336 340.765 132.876 345.265C132.272 351.173 133.011 356.061 134.298 361.833C131.046 359.084 128.075 356.938 124.218 355.094C117.21 351.742 109.316 351.715 102.402 348.11C101.538 347.659 100.157 346.983 99.1956 347.014C96.4029 347.375 97.6675 351.904 98.1174 353.484C101.145 363.918 106.992 373.206 114.951 380.226C106.853 383.425 102.418 387.699 95.9733 393.441C93.8931 395.294 91.3626 396.776 89.2885 398.582C88.6905 399.093 88.1522 399.677 87.6851 400.321C87.7372 402.948 91.7728 404.7 93.7248 405.739C101.898 410.089 109.95 411.852 119.034 411.585C117.294 417.499 116.469 423.718 114.815 429.685C114.399 431.186 113.259 434.509 113.855 435.976C114.231 436.9 116.15 437.525 116.999 437.58C125.265 438.23 134.394 435.062 140.83 429.723C146.462 425.049 148.668 420.446 151.078 413.791L152.137 416.066C156.084 423.853 161.798 429.411 169.894 432.253C173.471 433.509 188.622 435.217 190.906 431.669C190.804 429.102 188.307 425.051 187.431 422.423C184.945 414.971 183.164 407.756 179.06 401.044C192.385 398.541 201.62 393.136 211.086 382.993C215.912 377.822 209.122 377.701 205.768 376.21Z" fill="#1C1C14"/>
<path d="M178.828 385.65C172.529 386.355 164.578 384.044 158.509 382.325C164.26 379.082 168.942 377.616 175.44 376.849C181.413 375.899 190.441 378.555 195.808 381.235C189.694 384.049 185.426 385.129 178.828 385.65ZM175.132 373.933C168.962 374.426 162.958 376.267 157.506 379.337C153.25 381.709 151.902 383.656 157.739 384.924C162.477 385.953 167.111 387.404 171.941 388.024C174.502 388.362 177.085 388.49 179.665 388.408C186.036 387.892 191.753 386.532 197.618 383.791C198.938 383.174 200.384 382.591 200.483 380.931C199.903 379.592 198.523 379.147 197.297 378.62C190.041 375.504 183.107 373.341 175.132 373.933Z" fill="#1C1C14"/>
<path d="M177.64 420.039C176.387 419.651 173.657 418.243 172.472 417.579C162.135 411.775 158.433 404.158 155.16 392.909C166.843 397.976 174.838 406.942 177.64 420.039ZM151.915 391.945C154.08 401.402 158.741 411.024 166.362 416.903C169.854 419.597 175.462 423.409 179.866 423.905C179.917 423.893 179.969 423.88 180.02 423.868C181.535 422.058 180.386 418.779 179.849 416.657C178.001 409.344 173.936 402.433 168.446 397.513C165.142 394.519 156.91 389.509 152.499 389.467C151.93 390.239 151.685 390.943 151.915 391.945Z" fill="#1C1C14"/>
<path d="M126.398 424.941L126.241 424.55C128.507 410.292 130.259 404.695 141.248 394.652L141.499 395.018C142.357 409.086 137.612 417.522 126.398 424.941ZM142.104 389.68C135.713 394.407 129.33 402.135 126.484 409.731C125.47 412.437 121.587 427.031 122.964 429.105C123.643 429.431 123.448 429.324 124.308 429.212C131.503 425.783 139.424 417.903 142.115 409.969C143.341 406.352 146.235 391.633 142.104 389.68Z" fill="#1C1C14"/>
<path d="M134.7 376.999C124.607 374.728 116.761 369.393 111.129 360.259C113.107 360.3 115.075 360.566 116.998 361.053C126.671 363.418 132.153 369.026 137.178 377.515C136.35 377.354 135.524 377.182 134.7 376.999ZM140.883 379.243C141.028 378.142 140.614 377.298 140.081 376.367C132.997 363.974 122.648 356.521 108.482 357.612C107.772 357.937 107.447 357.995 107.033 358.677C106.892 359.422 107.038 359.787 107.459 360.411C115.066 371.677 123.36 377.381 136.402 379.776C137.473 379.973 138.452 380.125 139.532 380.092C140.453 379.729 140.313 379.934 140.883 379.243Z" fill="#1C1C14"/>
<path d="M145.626 385.859C144.445 385.505 143.599 385.378 143.732 383.907C144.413 382.711 145.02 382.495 146.255 381.959C149.115 381.909 148.506 384.842 145.626 385.859ZM147.301 379.253C146.134 380.459 141.781 381.114 141.359 384.134C141.139 385.709 143.513 386.728 144.611 387.131C150.593 387.687 150.936 382.362 147.301 379.253Z" fill="#1C1C14"/>
<path d="M117.412 320.612C117.647 321.016 117.795 321.274 118.07 321.646C119.441 322.075 126.757 317.017 127.877 315.758L127.858 315.52C123.287 318.696 122.626 319.147 117.412 320.612Z" fill="#E0DFC6"/>
<path d="M84.8845 305.608C85.1578 303.742 87.2287 302.429 88.9194 303.205C89.9773 303.692 90.2133 305.024 90.5657 306.105C90.8861 306.281 91.079 306.372 91.5179 306.18C93.5419 305.298 91.3663 304.932 92.7724 302.459L93.2081 302.778C94.276 304.971 92.1055 306.687 90.3987 307.625C87.485 309.226 86.1748 308.55 84.8845 305.608ZM87.4886 277.688C88.6345 274.891 90.3405 270.666 93.1671 269.399L94.0468 269.66C97.7288 273.177 97.502 289.079 94.8716 293.654C93.6262 295.82 92.0299 301.005 89.6391 302.061C89.0212 301.407 88.7745 300.751 88.4435 299.917C85.6667 292.921 84.5582 284.84 87.4886 277.688ZM96.6338 300.128C103.427 289.663 109.009 288.191 119.98 285.913C120.696 285.781 120.693 285.749 121.44 285.902C122.533 286.815 121.833 288.035 121.23 289.105C117.24 296.181 112.662 300.256 105.029 302.323C102.682 302.958 99.9549 304.073 97.4295 304.772C96.2984 304.898 95.8813 305.169 95.2034 304.167C95.0021 302.707 95.8703 301.305 96.6338 300.128ZM91.3913 321.547C91.1725 320.529 90.9398 319.514 90.6926 318.503C90.6175 321.981 90.5152 325.308 89.4187 328.636C87.44 334.641 82.3193 341.892 76.3058 343.789C74.9534 339.649 74.8639 333.588 75.9979 329.375C78.0258 321.84 84.1269 314.778 90.0123 310.187C93.4917 318.701 94.3157 327.036 102.397 332.749C108.671 337.184 114.623 338.393 122.09 338.206C118.187 326.502 116.844 319.687 105.082 313.581C101.421 311.68 100.195 311.68 96.9541 310.415L96.7421 310.751C106.202 315.863 114.614 320.207 117.732 331.81C118.085 333.121 118.513 334.44 117.29 335.345C115.793 335.568 113.943 335.032 112.484 334.677C105.802 333.053 100.453 327.995 96.9974 321.935C95.3056 318.968 91.8946 312.242 92.7071 308.851C93.1826 308.292 92.8966 308.429 93.5741 308.387C94.2942 308.706 94.3588 308.81 94.9619 309.379L95.135 309.544L95.244 309.309C97.2028 303.799 107.174 302.986 111.716 301.187C117.526 298.887 123.947 288.051 126.943 282.654C119.051 284.566 105.858 285.174 100.394 292.216C98.9204 294.116 97.1777 301.017 94.589 301.653L94.2573 301.427C94.3873 300.049 97.502 293.71 98.3371 291.823C101.435 284.821 97.4446 269.587 93.5956 263.838L93.4368 264.04C88.0683 270.953 82.9938 279.949 83.626 289.073C83.8464 292.257 87.0521 300.59 86.6892 302.007C86.304 302.032 86.3288 302.092 86.1131 301.794C83.9056 298.735 82.8207 295.589 80.4143 292.495C72.9327 282.876 65.2638 285.1 55.9037 281.882C57.9679 291.069 60.7344 294.691 67.264 300.741C69.1806 300.779 71.0972 300.839 73.0126 300.922C66.4584 297.127 61.6913 293.541 58.7415 285.697C58.6154 285.361 58.6306 285.095 58.667 284.748C59.26 284.294 59.8525 284.296 60.5984 284.452C69.5125 286.305 76.6169 290.171 81.8061 298.169C82.773 299.659 84.458 301.779 84.3012 303.4C84.1043 303.756 83.8488 304.274 83.4262 304.311C80.4 304.576 76.8016 303.318 73.6731 303.072C70.3548 302.813 69.3318 302.817 66.1496 303.22C58.4048 304.203 52.2266 309.719 45.3486 312.331C52.5704 317.461 64.0395 320.369 72.7667 318.909C76.6043 318.266 77.5054 316.78 80.1474 314.074C75.7488 315.952 71.5918 317.224 66.7763 316.947C63.4981 316.759 52.5186 315.666 50.7125 312.786C50.6705 312.374 50.5692 312.268 50.8258 312.046C53.4966 309.72 60.4349 306.91 63.5435 306.078C65.5309 305.552 67.5625 305.231 69.6092 305.12C75.7472 304.795 79.8879 306.299 85.3492 308.844C84.8343 309.809 84.6486 309.743 84.8156 310.545C85.3253 310.999 85.3221 310.97 85.9527 311.234C85.9698 311.693 85.1077 312.682 84.8105 312.964C77.2118 320.173 72.2996 326.838 72.7798 338.14C72.8547 339.897 73.3799 347.527 75.0872 348.425C76.5521 348.107 78.5454 346.122 79.8211 345.149C87.1468 339.56 93.4706 331.681 91.3913 321.547Z" fill="#BEBCA2"/>
<path d="M88.0809 306.861C88.7979 306.631 89.1993 305.833 88.9769 305.082C88.7541 304.332 87.9917 303.915 87.2771 304.152C86.567 304.386 86.1714 305.18 86.3932 305.926C86.6143 306.672 87.3687 307.09 88.0809 306.861Z" fill="#BEBCA2"/>
<path d="M121.297 314.297C121.137 314.363 120.976 314.429 120.815 314.493C117.506 315.548 115.557 315.9 112.062 315.58C113.177 316.556 114.443 317.616 115.481 318.658C117.099 318.22 119.629 317.513 121.111 316.802C125.416 314.736 131.777 310.324 134.999 306.801C128.957 305.881 118.526 303.043 113.007 303.896C108.061 304.344 103.235 305.744 98.7726 308.026L98.5903 308.327C98.8151 308.542 98.9596 308.653 99.3009 308.555C101.768 307.843 103.916 306.886 106.471 306.338C108.843 305.838 111.252 305.556 113.669 305.495C117.25 305.401 127.52 306.137 130.226 308.298L130.4 308.737C129.495 310.927 123.57 313.35 121.297 314.297Z" fill="#BEBCA2"/>
<path d="M70.0618 321.664C63.9138 321.991 57.7726 320.89 52.0765 318.442L51.9536 318.86C59.0063 322.481 68.1048 325.14 75.4858 321.06C73.7781 321.171 71.9219 321.552 70.0618 321.664Z" fill="#BEBCA2"/>
<path d="M117.37 300.409C117.232 300.571 117.134 300.862 117.142 301.087C119.197 299.596 125.065 292.789 125.191 290.222C122.778 293.887 120.212 297.099 117.37 300.409Z" fill="#BEBCA2"/>
<path d="M180.02 423.868C179.969 423.88 179.917 423.893 179.866 423.905C175.462 423.409 169.854 419.597 166.362 416.903C158.741 411.024 154.08 401.401 151.915 391.945C151.685 390.943 151.93 390.239 152.5 389.467C156.91 389.509 165.142 394.519 168.447 397.513C173.936 402.433 178.001 409.344 179.849 416.657C180.386 418.779 181.535 422.058 180.02 423.868ZM144.612 387.131C143.513 386.728 141.139 385.709 141.359 384.134C141.782 381.114 146.135 380.459 147.301 379.252C150.936 382.361 150.593 387.686 144.612 387.131ZM142.115 409.969C139.424 417.903 131.503 425.783 124.308 429.213C123.448 429.324 123.643 429.431 122.964 429.105C121.587 427.031 125.471 412.437 126.485 409.731C129.33 402.135 135.713 394.407 142.104 389.68C146.236 391.633 143.342 406.352 142.115 409.969ZM136.403 379.776C123.36 377.381 115.066 371.677 107.459 360.411C107.038 359.787 106.893 359.422 107.033 358.676C107.447 357.995 107.772 357.937 108.482 357.612C122.649 356.521 132.997 363.973 140.081 376.367C140.614 377.298 141.028 378.142 140.883 379.243C140.313 379.934 140.453 379.729 139.532 380.091C138.452 380.124 137.473 379.973 136.403 379.776ZM157.506 379.337C162.958 376.267 168.962 374.426 175.132 373.933C183.107 373.341 190.041 375.504 197.296 378.62C198.523 379.147 199.903 379.592 200.483 380.931C200.384 382.591 198.938 383.173 197.618 383.791C191.753 386.532 186.036 387.892 179.665 388.408C177.085 388.49 174.502 388.362 171.941 388.024C167.111 387.404 162.477 385.953 157.739 384.924C151.902 383.656 153.25 381.709 157.506 379.337ZM180.095 409.814C177.255 402.191 171.578 395.655 164.58 392.026C162.313 390.873 159.962 389.912 157.549 389.151C156.172 388.728 154.2 388.609 153.289 387.458C153.217 386.695 153.135 387.028 153.482 386.411C156.457 385.028 166.716 390.35 170.22 390.893C172.968 391.319 175.857 391.411 178.607 391.366C190.496 391.171 198.91 386.947 208.614 380.548C205.232 379.711 201.431 377.903 198.131 376.679C189.685 373.546 180.999 371.246 171.95 372.56C168.737 373.027 166.824 373.726 163.264 374.786C160.015 375.754 154.857 379.019 151.342 378.946C151.177 378.804 151.013 378.664 150.848 378.523C150.29 377.283 150.721 376.405 151.085 375.179C155.001 361.997 164.506 353.456 176.159 347.751C177.742 346.977 182.498 344.64 184.096 344.804C185.379 346.042 183.475 349.425 182.926 350.889C179.919 358.904 175.596 364.509 169.695 370.342L172.173 370.032C174.224 367.76 177.307 364.492 178.964 362.079C183.12 356.028 185.857 348.215 188.43 341.3C176.68 345.209 168.249 346.909 159.293 356.837C155.975 360.516 154.394 362.506 152.073 367C150.57 369.911 148.62 375.243 146.969 377.657C145.647 374.703 144.588 371.612 143.369 368.68C140.103 360.871 137.713 352.68 138.918 344.055C139.027 342.768 140.097 334.517 142.542 336.209C144.667 337.678 146.914 341.454 148.187 343.768C151.198 349.239 152.106 354.874 152.114 361.099C152.743 360.235 153.509 359.251 154.031 358.331C154.253 349.179 150.062 341.064 145.683 333.458C144.621 331.611 142.406 327.827 140.984 326.418C136.184 337.427 134.078 352.207 138.014 363.697C139.738 368.728 142.853 373.11 145.016 377.899C145.412 378.799 145.084 379.43 144.471 380.05C142.869 379.666 137.82 369.661 136.318 367.534C131.516 360.737 124.718 357.776 117.081 355.753C111.051 354.335 107.16 353.564 101.226 351.163C104.449 363.581 109.818 371.732 119.458 379.654C122.356 379.161 139.683 380.134 139.091 384.697C138.572 384.935 135.434 384.035 134.709 383.821C120.297 379.593 109.338 384.398 99.0731 395.05C97.3021 396.889 93.8004 399.056 91.7095 400.914C99.9519 403.191 115.645 403.09 123.961 400.629C125.182 398.877 126.38 397.113 127.706 395.445C123.5 397.213 119.042 399.04 114.485 399.313C112.074 399.458 103.256 400.23 101.74 398.013C101.664 397.318 101.758 396.997 102.239 396.455C107.744 390.244 114.698 385.521 122.93 384.964C128.419 384.593 134.248 385.572 139.015 388.249C136.469 391.496 132.514 393.967 130.022 397.457C128.025 400.255 125.881 402.805 124.486 406.057C121.851 411.661 120.944 417.678 119.666 423.701C118.911 427.257 117.916 430.869 116.993 434.379C124.882 433.33 134.402 427.235 139.057 420.766C144.501 413.202 147.084 403.699 146.794 394.363C146.756 393.166 146.856 391.828 147.781 391.019C149.652 391.06 151.311 396.621 151.916 398.442C156.145 411.156 162.83 418.922 174.1 425.263C176.627 426.573 184.854 430.698 187.397 430.06L187.653 429.803C187.413 429.069 186.598 427.964 186.226 427.179C183.61 421.647 182.228 415.539 180.095 409.814Z" fill="#BEBCA2"/>
<path d="M146.255 381.959C145.02 382.495 144.413 382.711 143.733 383.907C143.599 385.377 144.446 385.504 145.627 385.858C148.506 384.842 149.116 381.909 146.255 381.959Z" fill="#BEBCA2"/>
<path d="M135.433 428.267C134.705 428.855 129.231 432.444 129.213 432.717C135.09 431.015 140.699 426.787 144.264 421.592C146.719 418.016 149.434 410.548 148.562 406.116C146.101 415.266 142.813 422.306 135.433 428.267Z" fill="#BEBCA2"/>
<path d="M121.739 404.387L121.525 404.376C116.474 405.302 112.764 405.745 107.504 405.561C105.192 405.479 101.896 404.982 99.8496 404.993L102.258 406.026C109.069 408.249 113.315 408.533 120.339 408.185C120.657 407.444 121.817 405.004 121.739 404.387Z" fill="#BEBCA2"/>
<path d="M96.9539 310.415C96.3969 310.025 95.8263 309.656 95.2438 309.309L95.1348 309.544C95.8351 310.205 95.923 310.291 96.7419 310.751L96.9539 310.415Z" fill="#E0DFC6"/>
<path d="M115.317 332.931C113.454 323.308 104.376 316.865 96.1416 313.669C98.5241 321.098 102.231 327.36 109.126 330.963C111.017 331.951 113.192 332.803 115.317 332.931Z" fill="#E0DFC6"/>
<path d="M92.7031 273.06C88.6842 279.258 87.1607 284.611 88.5493 292.108C88.8568 293.77 89.5261 296.454 90.1805 298.005C94.1307 291.132 95.6932 282.749 93.5478 275.083C93.3596 274.409 93.237 273.532 92.7031 273.06Z" fill="#E0DFC6"/>
<path d="M98.7394 302.11C105.566 299.955 111.846 298.047 116.358 291.825C116.87 291.118 118.092 289.56 118.213 288.748L118.054 288.627C109.156 290.925 103.903 293.703 98.626 301.696L98.6423 302.033L98.7394 302.11Z" fill="#E0DFC6"/>
<path d="M68.4812 307.646C63.916 308.193 58.6954 309.973 54.8296 312.602C60.7914 314.419 62.7382 314.679 68.9567 314.421C74.1123 313.777 77.5846 313.006 82.0619 310.048C77.8504 308.122 73.1017 306.946 68.4812 307.646Z" fill="#E0DFC6"/>
<path d="M87.7542 315.671C81.8453 322.289 75.938 329.717 78.367 339.557C85.5894 334.877 88.8388 324.405 87.9173 315.878L87.7542 315.671Z" fill="#E0DFC6"/>
<path d="M113.073 308.067C110.347 308.303 105.839 308.887 103.192 309.785C108.305 312.122 111.583 314.161 117.201 313.096C120.227 312.33 124.199 310.766 126.915 309.145C123.153 308.502 116.779 307.646 113.073 308.067Z" fill="#E0DFC6"/>
<path d="M80.3272 301.489L81.801 301.963C77.3941 294.476 70.8347 289.968 62.8516 287.789C66.5261 295.134 72.9474 299.081 80.3272 301.489Z" fill="#E0DFC6"/>
<path d="M51.9533 318.86L52.0762 318.442C50.9674 317.836 50.1559 317.486 49.002 316.996C50.0912 317.772 50.7966 318.203 51.9533 318.86Z" fill="#E0DFC6"/>
<path d="M178.828 385.65C185.425 385.129 189.694 384.049 195.807 381.235C190.44 378.555 181.412 375.899 175.44 376.849C168.941 377.616 164.26 379.082 158.509 382.325C164.578 384.044 172.529 386.355 178.828 385.65Z" fill="#E0DFC6"/>
<path d="M172.472 417.579C173.657 418.243 176.387 419.651 177.64 420.039C174.838 406.941 166.843 397.976 155.16 392.909C158.434 404.157 162.135 411.775 172.472 417.579Z" fill="#E0DFC6"/>
<path d="M141.249 394.652C130.259 404.695 128.507 410.292 126.241 424.551L126.398 424.941C137.612 417.522 142.357 409.086 141.499 395.018L141.249 394.652Z" fill="#E0DFC6"/>
<path d="M111.129 360.259C116.761 369.393 124.607 374.728 134.7 376.999C135.524 377.182 136.35 377.354 137.178 377.515C132.153 369.026 126.671 363.418 116.998 361.053C115.075 360.566 113.107 360.3 111.129 360.259Z" fill="#E0DFC6"/>
<path d="M154.595 375.328C156.236 374.576 162.779 371.822 163.95 371.026C171.224 366.078 177.389 358.025 180.707 349.618C180.774 349.449 180.774 349.279 180.783 349.109L180.528 349C167.957 355.189 159.802 361.066 154.333 374.925L154.404 375.277L154.595 375.328Z" fill="#E0DFC6"/>
<path d="M142.443 340.558C140.129 351.307 142.959 360.377 147.179 370.049C147.588 369.702 147.565 369.447 147.782 368.84C150.167 361.207 149.946 353.804 146.385 346.644C145.736 345.338 143.567 341.231 142.443 340.558Z" fill="#E0DFC6"/>
<path d="M122.108 387.902C115.799 388.664 109.953 391.746 105.607 396.601C109.11 396.972 112.643 396.885 116.126 396.344C123.476 394.911 126.708 393.208 132.851 388.839C129.704 388.183 125.298 387.371 122.108 387.902Z" fill="#E0DFC6"/>
<path d="M155.111 411.615C153.909 409.769 152.655 406.778 151.616 405.251C152.103 409.997 153.798 413.25 156.345 417.177C161.543 425.192 169.26 430.117 178.613 430.405C168.07 425.848 161.784 421.857 155.111 411.615Z" fill="#E0DFC6"/>
<path d="M198.591 389.504C188.821 394.035 183.517 394.579 173.098 394.269C173.767 394.953 174.372 395.557 175.07 396.208L176.596 397.885C177.914 397.74 178.642 397.677 180.549 397.408C186.929 396.512 193.217 393.653 198.566 389.907C198.623 389.804 198.68 389.701 198.738 389.598L198.591 389.504Z" fill="#E0DFC6"/>
<path d="M176.713 369.674L179.945 369.67C182.084 366.262 187.803 356.069 187.224 352.303C184.748 357.689 182.865 361.843 179.077 366.454C178.666 366.954 176.667 369.208 176.713 369.674Z" fill="#E0DFC6"/>
<path d="M59.8974 296.148C59.5594 295.549 59.1492 294.624 58.6062 294.345C58.5491 295.122 59.2667 295.941 59.7307 296.536C60.8776 298.507 61.6366 299.635 63.0472 301.381C63.6256 301.623 63.3855 301.662 63.8278 301.494C63.742 300.397 60.8029 297.287 59.8974 296.148Z" fill="#3A392D"/>
</svg>
