<?xml version="1.0" encoding="UTF-8" standalone="no"?><!DOCTYPE svg PUBLIC "-//W3C//DTD SVG 1.1//EN" "http://www.w3.org/Graphics/SVG/1.1/DTD/svg11.dtd"><svg width="100%" height="100%" viewBox="0 0 64 64" version="1.1" xmlns="http://www.w3.org/2000/svg" xmlns:xlink="http://www.w3.org/1999/xlink" xml:space="preserve" xmlns:serif="http://www.serif.com/" style="fill-rule:evenodd;clip-rule:evenodd;stroke-linecap:round;stroke-linejoin:round;stroke-miterlimit:2;"><rect id="_01---Burger" serif:id="01 - Burger" x="0" y="0" width="64" height="64" style="fill:none;"/><path d="M10.182,39.227c0,0 1.304,-1.304 2.351,-2.35c0.34,-0.341 0.803,-0.533 1.285,-0.533c0.482,0 0.945,0.192 1.286,0.533c0.345,0.345 0.719,0.719 1.065,1.065c0.341,0.341 0.803,0.532 1.286,0.532c0.482,0 0.944,-0.191 1.285,-0.532c0.346,-0.346 0.72,-0.72 1.065,-1.065c0.341,-0.341 0.804,-0.533 1.286,-0.533c0.482,0 0.945,0.192 1.286,0.533c0.345,0.345 0.719,0.719 1.065,1.065c0.341,0.341 0.803,0.532 1.285,0.532c0.482,0 0.945,-0.191 1.286,-0.532c0.346,-0.346 0.719,-0.72 1.065,-1.065c0.341,-0.341 0.803,-0.533 1.286,-0.533c0.482,0 0.944,0.192 1.285,0.533c0.346,0.345 0.72,0.719 1.065,1.065c0.341,0.341 0.804,0.532 1.286,0.532c0.482,0 0.945,-0.191 1.286,-0.532c0.345,-0.346 0.719,-0.72 1.065,-1.065c0.341,-0.341 0.803,-0.533 1.285,-0.533" style="fill:none;stroke:currentColor;stroke-width:2px;"/><path d="M46.803,39.227c0,0 2.897,-2.883 3.379,-2.883c0.482,0 0.945,0.192 1.285,0.533c1.047,1.046 2.351,2.35 2.351,2.35" style="fill:none;stroke:currentColor;stroke-width:2px;"/><path d="M12.909,44l38.182,0" style="fill:none;stroke:currentColor;stroke-width:2px;"/><path d="M12.909,31l38.182,0" style="fill:none;stroke:currentColor;stroke-width:2px;"/><path d="M32,31.045l6.697,8.182l6.697,-8.182" style="fill:none;stroke:currentColor;stroke-width:2px;"/><path d="M52.909,52.75c0,-2.071 -1.679,-3.75 -3.75,-3.75c-7.941,0 -26.377,0 -34.318,0c-2.071,0 -3.75,1.679 -3.75,3.75c0,0 0,0 0,0c0,2.071 1.679,3.75 3.75,3.75c7.941,0 26.377,0 34.318,0c2.071,0 3.75,-1.679 3.75,-3.75c0,0 0,0 0,0Z" style="fill:none;stroke:currentColor;stroke-width:2px;"/><path d="M52,23.89c0,-9.604 -7.786,-17.39 -17.39,-17.39c-1.731,0 -3.489,0 -5.22,0c-9.604,0 -17.39,7.786 -17.39,17.39c0,0 0,0.001 0,0.001c0,1.19 0.964,2.154 2.154,2.154c6.951,0 28.741,0 35.692,0c1.19,0 2.154,-0.964 2.154,-2.154c0,0 0,-0.001 0,-0.001Z" style="fill:none;stroke:currentColor;stroke-width:2px;"/><circle cx="22" cy="22.409" r="1.364" style="fill:currentColor;"/><circle cx="37" cy="13.773" r="1.364" style="fill:currentColor;"/><circle cx="43.944" cy="21.045" r="1.364" style="fill:currentColor;"/><circle cx="22" cy="14.682" r="1.364" style="fill:currentColor;"/></svg>
