<?xml version="1.0" encoding="UTF-8" standalone="no"?><!DOCTYPE svg PUBLIC "-//W3C//DTD SVG 1.1//EN" "http://www.w3.org/Graphics/SVG/1.1/DTD/svg11.dtd"><svg width="100%" height="100%" viewBox="0 0 64 64" version="1.1" xmlns="http://www.w3.org/2000/svg" xmlns:xlink="http://www.w3.org/1999/xlink" xml:space="preserve" xmlns:serif="http://www.serif.com/" style="fill-rule:evenodd;clip-rule:evenodd;stroke-linecap:round;stroke-linejoin:round;stroke-miterlimit:2;"><rect id="_50---Chiken-Thighs" serif:id="50 - Chiken Thighs" x="0" y="0" width="64" height="64" style="fill:none;"/><path d="M49.967,20.318l2.016,4.204l0,31.478" style="fill:none;stroke:currentColor;stroke-width:2px;"/><path d="M51.983,24.522l2.016,-4.204" style="fill:none;stroke:currentColor;stroke-width:2px;"/><path d="M56,26.92l0,-2.398l-14.597,0" style="fill:none;stroke:currentColor;stroke-width:2px;"/><path d="M22.336,24.522l-10.156,0" style="fill:none;stroke:currentColor;stroke-width:2px;"/><path d="M10.164,20.318l2.016,4.204l0,31.478" style="fill:none;stroke:currentColor;stroke-width:2px;"/><path d="M12.18,24.522l2.016,-4.204" style="fill:none;stroke:currentColor;stroke-width:2px;"/><path d="M31.669,23.303c0,0 -0.695,-2.3 -4.46,-3.873c-3.766,-1.573 -6.708,2.639 -3.882,7.696c3.476,6.219 17.383,6.661 19.99,1.564c0.195,-0.38 0.289,-0.721 0.312,-1.032" style="fill:none;stroke:currentColor;stroke-width:2px;"/><path d="M32.067,56c8.164,0 8.444,-6.968 5.78,-10.305c0,0 -0.199,3.112 -3.723,2.909c-3.31,-0.19 -5.023,-7.108 -1.307,-10.445c0,0 -3.79,1.632 -6.214,5.825c-2.424,4.192 -1.508,12.016 5.464,12.016Z" style="fill:none;stroke:currentColor;stroke-width:2px;"/><path d="M43.552,24.522c-1.3,-4.711 -6.646,-10.27 -14.489,-4.174" style="fill:none;stroke:currentColor;stroke-width:2px;"/><path d="M20.677,26.92c-1.123,0.883 -1.567,1.222 -1.852,1.385c-0.106,-0.064 -0.239,-0.06 -0.341,0.009c-0.102,0.069 -0.155,0.192 -0.134,0.314c0.045,0.436 0.463,1.828 2.081,0.699c2.039,-1.423 4.899,0.07 4.899,0.07" style="fill:none;stroke:currentColor;stroke-width:2px;"/><path d="M23.907,19.43c0,0 -4.082,-3.003 -5.761,-4.238c-0.407,-0.3 -0.972,-0.257 -1.329,0.1c-0.001,0.001 -0.001,0.001 -0.001,0.002c-0.159,0.158 -0.246,0.374 -0.243,0.598c0.003,0.224 0.097,0.437 0.26,0.591c1.479,1.394 5.085,4.792 5.085,4.792" style="fill:none;stroke:currentColor;stroke-width:2px;"/><path d="M42.295,10.6l0,-2.6" style="fill:none;stroke:currentColor;stroke-width:2px;"/><path d="M26.655,10.6l0,-2.6" style="fill:none;stroke:currentColor;stroke-width:2px;"/><path d="M37.382,10.6l0,-2.6" style="fill:none;stroke:currentColor;stroke-width:2px;"/><path d="M21.742,10.6l0,-2.6" style="fill:none;stroke:currentColor;stroke-width:2px;"/></svg>
