<?xml version="1.0" encoding="UTF-8" standalone="no"?><!DOCTYPE svg PUBLIC "-//W3C//DTD SVG 1.1//EN" "http://www.w3.org/Graphics/SVG/1.1/DTD/svg11.dtd"><svg width="100%" height="100%" viewBox="0 0 64 64" version="1.1" xmlns="http://www.w3.org/2000/svg" xmlns:xlink="http://www.w3.org/1999/xlink" xml:space="preserve" xmlns:serif="http://www.serif.com/" style="fill-rule:evenodd;clip-rule:evenodd;stroke-linecap:round;stroke-linejoin:round;stroke-miterlimit:2;"><rect id="_31---Biscuits" serif:id="31 - Biscuits" x="0" y="0" width="64" height="64" style="fill:none;"/><path d="M32.766,49.711c-7.581,6.818 -19.272,6.199 -26.09,-1.383c-0.413,-0.458 -0.798,-0.932 -1.156,-1.418c2.419,-0.533 4.23,-2.69 4.23,-5.268c0,-1.064 -0.309,-2.057 -0.842,-2.893c0.121,-0.08 0.241,-0.161 0.361,-0.243c7.256,-4.944 7.002,-15.543 4.927,-17.85c-0.52,-0.578 -1.132,-1.023 -1.795,-1.333c3.414,-1.643 7.213,-2.166 10.863,-1.599" style="fill:none;stroke:currentColor;stroke-width:2px;"/><path d="M23.264,44.437l0.874,0.497" style="fill:none;stroke:currentColor;stroke-width:2px;"/><path d="M19.982,36.026l0.785,1.212" style="fill:none;stroke:currentColor;stroke-width:2px;"/><path d="M12.965,44.657l0.066,0.454" style="fill:none;stroke:currentColor;stroke-width:2px;"/><path d="M57.979,31.653c-2.242,7.679 -9.339,13.296 -17.738,13.296c-10.196,0 -18.475,-8.278 -18.475,-18.475c0,-10.196 8.279,-18.474 18.475,-18.474c2.902,0 5.649,0.671 8.093,1.865c-1.57,1.763 -2.524,4.087 -2.524,6.631c0,3.52 1.827,6.617 4.583,8.394c-0.148,0.502 -0.227,1.034 -0.227,1.584c0,3.103 2.519,5.622 5.622,5.622c0.777,0 1.517,-0.158 2.191,-0.443Z" style="fill:none;stroke:currentColor;stroke-width:2px;"/><path d="M32.042,22.936l-0.955,0.318" style="fill:none;stroke:currentColor;stroke-width:2px;"/><path d="M45.515,30.855l-1.427,-0.227" style="fill:none;stroke:currentColor;stroke-width:2px;"/><path d="M33.698,35.803l1.272,0.445" style="fill:none;stroke:currentColor;stroke-width:2px;"/><path d="M38.765,15.131l-0.382,-0.254" style="fill:none;stroke:currentColor;stroke-width:2px;"/></svg>
