<?xml version="1.0" encoding="UTF-8" standalone="no"?><!DOCTYPE svg PUBLIC "-//W3C//DTD SVG 1.1//EN" "http://www.w3.org/Graphics/SVG/1.1/DTD/svg11.dtd"><svg width="100%" height="100%" viewBox="0 0 64 64" version="1.1" xmlns="http://www.w3.org/2000/svg" xmlns:xlink="http://www.w3.org/1999/xlink" xml:space="preserve" xmlns:serif="http://www.serif.com/" style="fill-rule:evenodd;clip-rule:evenodd;stroke-linecap:round;stroke-linejoin:round;stroke-miterlimit:2;"><rect id="_69---Bread" serif:id="69 - Bread" x="0" y="0" width="64" height="64" style="fill:none;"/><path d="M30.915,18c1.783,0 3.493,0.718 4.754,1.995c1.261,1.278 1.969,3.011 1.969,4.818l0,0.001c0,1.807 -0.708,3.54 -1.969,4.817c-0.827,0.838 -0.174,16.873 -0.174,16.873c0.044,0.648 -0.228,1.283 -0.754,1.756c-0.525,0.472 -1.257,0.74 -2.023,0.74c-5.014,0 -15.146,0 -20.16,0c-0.765,0 -1.497,-0.268 -2.023,-0.74c-0.525,-0.473 -0.798,-1.108 -0.754,-1.756c0,0 0.653,-16.035 -0.174,-16.873c-1.26,-1.277 -1.969,-3.01 -1.969,-4.817l0,-0.001c0,-1.807 0.709,-3.54 1.969,-4.818c1.261,-1.277 2.972,-1.995 4.755,-1.995l16.553,0Z" style="fill:none;stroke:currentColor;stroke-width:2px;"/><path d="M31.473,18l18.165,0c1.783,0 3.494,0.718 4.755,1.995c1.26,1.278 1.969,3.011 1.969,4.818l0,0.001c0,1.807 -0.709,3.54 -1.969,4.817c-0.827,0.838 -1.847,1.435 -2.955,1.747l0.691,15.126c0.037,0.648 -0.192,1.283 -0.632,1.756c-0.44,0.472 -1.053,0.74 -1.694,0.74c-4.199,0 -22.363,0 -18.165,0" style="fill:none;stroke:currentColor;stroke-width:2px;"/><path d="M24,31l-0.5,1.5" style="fill:none;stroke:currentColor;stroke-width:2px;"/><path d="M19.5,41.5l-0.5,-0.5" style="fill:none;stroke:currentColor;stroke-width:2px;"/><path d="M29.5,21.5l0.5,1" style="fill:none;stroke:currentColor;stroke-width:2px;"/><path d="M51.5,31.5c0,0 -4.201,0.5 -10.5,0.5" style="fill:none;stroke:currentColor;stroke-width:2px;"/></svg>
