<?xml version="1.0" encoding="UTF-8" standalone="no"?><!DOCTYPE svg PUBLIC "-//W3C//DTD SVG 1.1//EN" "http://www.w3.org/Graphics/SVG/1.1/DTD/svg11.dtd"><svg width="100%" height="100%" viewBox="0 0 64 64" version="1.1" xmlns="http://www.w3.org/2000/svg" xmlns:xlink="http://www.w3.org/1999/xlink" xml:space="preserve" xmlns:serif="http://www.serif.com/" style="fill-rule:evenodd;clip-rule:evenodd;stroke-linecap:round;stroke-linejoin:round;stroke-miterlimit:2;"><rect id="_07---Burger" serif:id="07 - Burger" x="0" y="0" width="64" height="64" style="fill:none;"/><path d="M11.694,38.182c0.427,-0.427 0.946,-0.946 1.412,-1.413c0.335,-0.334 0.788,-0.522 1.26,-0.522c0.473,0 0.926,0.188 1.26,0.522c0.339,0.339 0.705,0.705 1.044,1.044c0.334,0.334 0.787,0.522 1.26,0.522c0.473,0 0.926,-0.188 1.26,-0.522c0.339,-0.339 0.705,-0.705 1.044,-1.044c0.334,-0.334 0.787,-0.522 1.26,-0.522c0.472,0 0.925,0.188 1.26,0.522c0.338,0.339 0.705,0.705 1.043,1.044c0.334,0.334 0.788,0.522 1.26,0.522c0.473,0 0.926,-0.188 1.26,-0.522c0.339,-0.339 0.705,-0.705 1.044,-1.044c0.334,-0.334 0.787,-0.522 1.26,-0.522c0.472,0 0.926,0.188 1.26,0.522c0.339,0.339 0.705,0.705 1.044,1.044c0.334,0.334 0.787,0.522 1.26,0.522c0.472,0 0.925,-0.188 1.259,-0.522c0.339,-0.339 0.705,-0.705 1.044,-1.044c0.334,-0.334 0.788,-0.522 1.26,-0.522c0.473,0 0.926,0.188 1.26,0.522c0.339,0.339 0.705,0.705 1.044,1.044c0.334,0.334 0.787,0.522 1.26,0.522c0.472,0 0.926,-0.188 1.26,-0.522c0.338,-0.339 0.705,-0.705 1.043,-1.044c0.335,-0.334 0.788,-0.522 1.26,-0.522c0.473,0 0.926,0.188 1.26,0.522c0.339,0.339 0.705,0.705 1.044,1.044c0.334,0.334 0.787,0.522 1.26,0.522c0.473,0 0.926,-0.188 1.26,-0.522c0.339,-0.339 0.705,-0.705 1.044,-1.044c0.334,-0.334 0.787,-0.522 1.26,-0.522c0.472,0 0.925,0.188 1.26,0.522c0.338,0.339 0.705,0.705 1.043,1.044" style="fill:none;stroke:currentColor;stroke-width:2px;"/><path d="M13.291,43l37.418,0" style="fill:none;stroke:currentColor;stroke-width:2px;"/><path d="M13.291,31l37.418,0" style="fill:none;stroke:currentColor;stroke-width:2px;"/><path d="M52.491,51.99c0,-2.214 -1.795,-4.008 -4.008,-4.008c-7.841,0 -25.125,0 -32.966,0c-2.213,0 -4.008,1.794 -4.008,4.008c0,0.001 0,0.001 0,0.002c0,2.214 1.795,4.008 4.008,4.008c7.841,0 25.125,0 32.966,0c2.213,0 4.008,-1.794 4.008,-4.008c0,-0.001 0,-0.001 0,-0.002Z" style="fill:none;stroke:currentColor;stroke-width:2px;"/><path d="M51.6,23.88c0,-4.477 -1.778,-8.77 -4.944,-11.936c-3.166,-3.166 -7.459,-4.944 -11.936,-4.944c-1.82,0 -3.672,0 -5.492,0c-9.294,0 -16.828,7.534 -16.828,16.828c0,0.001 0,0.001 0,0.002c0,1.198 0.972,2.17 2.17,2.17c6.873,0 28.111,0 34.912,0c0.562,0 1.1,-0.223 1.498,-0.62c0.397,-0.398 0.62,-0.936 0.62,-1.498c0,-0.001 0,-0.001 0,-0.002Z" style="fill:none;stroke:currentColor;stroke-width:2px;"/><circle cx="22.2" cy="22.591" r="1.336" style="fill:currentColor;"/><circle cx="36.9" cy="14.127" r="1.336" style="fill:currentColor;"/><circle cx="43.705" cy="21.255" r="1.336" style="fill:currentColor;"/><circle cx="22.2" cy="15.018" r="1.336" style="fill:currentColor;"/></svg>
