<?xml version="1.0" encoding="UTF-8" standalone="no"?><!DOCTYPE svg PUBLIC "-//W3C//DTD SVG 1.1//EN" "http://www.w3.org/Graphics/SVG/1.1/DTD/svg11.dtd"><svg width="100%" height="100%" viewBox="0 0 64 64" version="1.1" xmlns="http://www.w3.org/2000/svg" xmlns:xlink="http://www.w3.org/1999/xlink" xml:space="preserve" xmlns:serif="http://www.serif.com/" style="fill-rule:evenodd;clip-rule:evenodd;stroke-linecap:round;stroke-linejoin:round;stroke-miterlimit:2;"><rect id="_03---Grilled-Chicken" serif:id="03 - Grilled Chicken" x="0" y="0" width="64" height="64" style="fill:none;"/><path d="M12.815,34.996c0,-8.311 6.748,-15.059 15.06,-15.059c3.23,0 6.224,1.019 8.678,2.754c0.503,0.353 1.016,0.688 1.54,1.003" style="fill:none;stroke:currentColor;stroke-width:2px;"/><path d="M41.813,28c0.227,0.01 5.833,-0.533 5.833,-0.533c0.776,0 1.499,0.395 1.919,1.048c0.419,0.653 0.477,1.475 0.154,2.181c-0.936,2.042 -1.971,4.3 -1.971,4.3" style="fill:none;stroke:currentColor;stroke-width:2px;"/><path d="M54.257,38.59c-0.471,0.269 -1.004,0.41 -1.546,0.41c-1.253,0 -3.653,0 -5.217,0c-0.945,0 -1.838,0.429 -2.429,1.165c-0.235,0.293 -0.488,0.608 -0.723,0.901c-0.591,0.736 -1.484,1.165 -2.428,1.165c-4.134,0 -15.694,0 -19.828,0c-0.944,0 -1.837,-0.429 -2.428,-1.165c-0.235,-0.293 -0.488,-0.608 -0.723,-0.901c-0.591,-0.736 -1.484,-1.165 -2.429,-1.165c-1.564,0 -3.964,0 -5.217,0c-0.542,0 -1.075,-0.141 -1.546,-0.41c-1.683,-0.963 -5.743,-3.283 -5.743,-3.283l56,0c0,0 -4.06,2.32 -5.743,3.283Z" style="fill:none;stroke:currentColor;stroke-width:2px;"/><path d="M16.266,35.307c-0.046,-3.103 1.544,-6.139 4.42,-7.799c2.385,-1.378 5.149,-1.515 7.543,-0.614c1.82,0.665 3.842,0.49 5.52,-0.479c1.388,-0.783 2.939,-1.67 4.016,-2.289c0.752,-0.431 1.711,-0.173 2.145,0.578c0.502,0.871 1.153,1.997 1.656,2.868c0.208,0.361 0.265,0.79 0.157,1.193c-0.108,0.403 -0.372,0.746 -0.733,0.955c-1.076,0.621 -2.622,1.513 -4,2.309c-1.296,0.749 -2.286,1.909 -2.826,3.278" style="fill:none;stroke:currentColor;stroke-width:2px;"/><path d="M51.451,19.953c-0.52,-0.9 -1.671,-1.208 -2.571,-0.688c-2.998,1.73 -9.083,5.244 -9.083,5.244l1.882,3.26c0,0 6.086,-3.513 9.083,-5.244c0.901,-0.52 1.209,-1.671 0.689,-2.571c0,0 0,0 0,-0.001Z" style="fill:none;stroke:currentColor;stroke-width:2px;"/><path d="M53.5,27.026c1.213,1.19 2.006,2.966 2.006,4.72c0,0.053 0,0.105 -0.002,0.157c0.943,1.137 1.385,3.404 1.385,3.404" style="fill:none;stroke:currentColor;stroke-width:2px;"/><path d="M8.148,35.307c0,0 0.55,-2.552 1.674,-3.729" style="fill:none;stroke:currentColor;stroke-width:2px;"/></svg>
