<?xml version="1.0" encoding="UTF-8" standalone="no"?><!DOCTYPE svg PUBLIC "-//W3C//DTD SVG 1.1//EN" "http://www.w3.org/Graphics/SVG/1.1/DTD/svg11.dtd"><svg width="100%" height="100%" viewBox="0 0 64 64" version="1.1" xmlns="http://www.w3.org/2000/svg" xmlns:xlink="http://www.w3.org/1999/xlink" xml:space="preserve" xmlns:serif="http://www.serif.com/" style="fill-rule:evenodd;clip-rule:evenodd;stroke-linecap:round;stroke-linejoin:round;stroke-miterlimit:2;"><rect id="_04---Rice" serif:id="04 - Rice" x="0" y="0" width="64" height="64" style="fill:none;"/><path d="M54.448,33c0.389,0 0.759,0.17 1.013,0.464c0.254,0.295 0.367,0.686 0.309,1.07c-0.175,1.167 -0.435,2.897 -0.726,4.839c-1.175,7.833 -7.903,13.627 -15.823,13.627c-4.636,0 -9.806,0 -14.442,0c-7.92,0 -14.648,-5.794 -15.823,-13.627c-0.291,-1.942 -0.551,-3.672 -0.726,-4.839c-0.058,-0.384 0.055,-0.775 0.309,-1.07c0.254,-0.294 0.624,-0.464 1.013,-0.464c7.24,0 37.656,0 44.896,0Z" style="fill:none;stroke:currentColor;stroke-width:2px;"/><path d="M47.5,45.284c-2.628,2.155 -5.982,3.432 -9.6,3.432" style="fill:none;stroke:currentColor;stroke-width:2px;"/><path d="M43,52.503l0,2.735c0,0.467 -0.186,0.916 -0.516,1.246c-0.33,0.33 -0.779,0.516 -1.246,0.516c-4.122,0 -14.354,0 -18.476,0c-0.467,0 -0.916,-0.186 -1.246,-0.516c-0.33,-0.33 -0.516,-0.779 -0.516,-1.246c0,-1.26 0,-2.735 0,-2.735" style="fill:none;stroke:currentColor;stroke-width:2px;"/><path d="M12.3,33c0.848,-1.032 1.896,-1.893 3.085,-2.524c-0.084,-0.378 -0.129,-0.771 -0.129,-1.175c0,-2.973 2.415,-5.388 5.388,-5.388c0.137,0 0.273,0.006 0.408,0.016c1.271,-1.284 3.033,-2.079 4.98,-2.079c0.326,0 0.647,0.022 0.961,0.066c0.504,-1.912 2.058,-3.399 4.007,-3.805" style="fill:none;stroke:currentColor;stroke-width:2px;"/><path d="M43.869,20.845c2.346,0.411 4.131,2.461 4.131,4.924c0,0.547 -0.088,1.074 -0.251,1.566c0.505,0.472 0.961,0.994 1.362,1.558c1.981,0.451 3.516,2.078 3.83,4.107" style="fill:none;stroke:currentColor;stroke-width:2px;"/><path d="M41,7l-7,17" style="fill:none;stroke:currentColor;stroke-width:2px;"/><path d="M39,26l17,-18" style="fill:none;stroke:currentColor;stroke-width:2px;"/><path d="M26.5,28.5l-1,-0.5" style="fill:none;stroke:currentColor;stroke-width:2px;"/><path d="M42.5,29l0.5,-0.5" style="fill:none;stroke:currentColor;stroke-width:2px;"/></svg>
