<?xml version="1.0" encoding="UTF-8" standalone="no"?><!DOCTYPE svg PUBLIC "-//W3C//DTD SVG 1.1//EN" "http://www.w3.org/Graphics/SVG/1.1/DTD/svg11.dtd"><svg width="100%" height="100%" viewBox="0 0 64 64" version="1.1" xmlns="http://www.w3.org/2000/svg" xmlns:xlink="http://www.w3.org/1999/xlink" xml:space="preserve" xmlns:serif="http://www.serif.com/" style="fill-rule:evenodd;clip-rule:evenodd;stroke-linecap:round;stroke-linejoin:round;stroke-miterlimit:2;"><rect id="_86---Drink" serif:id="86 - Drink" x="0" y="0" width="64" height="64" style="fill:none;"/><path d="M33.788,18.678c0.198,-0.347 0.197,-0.774 -0.004,-1.119c-0.2,-0.346 -0.57,-0.559 -0.97,-0.559c-5.209,0 -19.497,0 -24.706,0c-0.399,0 -0.769,0.213 -0.97,0.559c-0.2,0.345 -0.202,0.772 -0.003,1.119c3.202,5.604 13.326,23.322 13.326,23.322c0,0 10.125,-17.718 13.327,-23.322Z" style="fill:none;stroke:currentColor;stroke-width:2px;"/><path d="M32.286,22.234l11.239,19.668c0,0 10.125,-17.717 13.327,-23.321c0.199,-0.348 0.197,-0.774 -0.004,-1.12c-0.2,-0.346 -0.57,-0.559 -0.97,-0.559c-3.8,0 -11.878,0 -11.878,0" style="fill:none;stroke:currentColor;stroke-width:2px;"/><path d="M20.461,41.902l0,10.598" style="fill:none;stroke:currentColor;stroke-width:2px;"/><path d="M43.525,41.402l0,11" style="fill:none;stroke:currentColor;stroke-width:2px;"/><path d="M15.247,53l10.5,0" style="fill:none;stroke:currentColor;stroke-width:2px;"/><path d="M38.311,52.902l10.5,0" style="fill:none;stroke:currentColor;stroke-width:2px;"/><path d="M10.15,23.956c4.913,2.505 5.254,-0.307 12.526,-1.456c3.885,-0.614 6.321,0.541 7.815,1.948" style="fill:none;stroke:currentColor;stroke-width:2px;"/><path d="M33.05,22.261c1.703,0.272 3.508,-0.248 4.82,-1.56c2.173,-2.173 2.173,-5.702 0,-7.876c-2.173,-2.173 -5.702,-2.173 -7.876,0" style="fill:none;stroke:currentColor;stroke-width:2px;"/><path d="M51.064,28.5c0,0 -1.59,-1.422 -5,-0.5c-3.41,0.922 -5.984,2.866 -10.322,0.281" style="fill:none;stroke:currentColor;stroke-width:2px;"/></svg>
