<?xml version="1.0" encoding="UTF-8" standalone="no"?><!DOCTYPE svg PUBLIC "-//W3C//DTD SVG 1.1//EN" "http://www.w3.org/Graphics/SVG/1.1/DTD/svg11.dtd"><svg width="100%" height="100%" viewBox="0 0 64 64" version="1.1" xmlns="http://www.w3.org/2000/svg" xmlns:xlink="http://www.w3.org/1999/xlink" xml:space="preserve" xmlns:serif="http://www.serif.com/" style="fill-rule:evenodd;clip-rule:evenodd;stroke-linecap:round;stroke-linejoin:round;stroke-miterlimit:2;"><rect id="_53---Pudding" serif:id="53 - Pudding" x="0" y="0" width="64" height="64" style="fill:none;"/><path d="M54.292,49.575c-0.493,0.304 -1.06,0.466 -1.639,0.466c-1.395,0 -4.096,0 -5.591,0c-0.689,0 -1.358,0.228 -1.903,0.648c-0.292,0.226 -0.619,0.478 -0.911,0.704c-0.545,0.42 -1.214,0.648 -1.902,0.648c-3.824,0 -16.868,0 -20.692,0c-0.688,0 -1.357,-0.228 -1.902,-0.648c-0.292,-0.226 -0.619,-0.478 -0.911,-0.704c-0.545,-0.42 -1.214,-0.648 -1.903,-0.648c-1.495,0 -4.196,0 -5.591,0c-0.579,0 -1.146,-0.162 -1.639,-0.466c-1.704,-1.055 -5.708,-3.534 -5.708,-3.534l56,0c0,0 -4.004,2.479 -5.708,3.534Z" style="fill:none;stroke:currentColor;stroke-width:2px;"/><circle cx="32" cy="15.459" r="3.5" style="fill:none;stroke:currentColor;stroke-width:2px;"/><path d="M13.227,35.171c-0.365,0.142 -0.779,0.059 -1.061,-0.212c-0.282,-0.271 -0.38,-0.682 -0.252,-1.052c0.686,-2.086 1.829,-5.388 1.829,-5.388c1.981,-5.722 7.37,-9.56 13.426,-9.56c3.118,0 6.55,0 9.668,0c6.056,0 11.445,3.838 13.426,9.56c0,0 0.838,2.42 1.52,4.391c0.159,0.457 -0.018,0.963 -0.428,1.221c-0.41,0.257 -0.944,0.197 -1.286,-0.145c0,-0.002 -0.001,-0.002 -0.001,-0.003c-1.011,-1.011 -2.105,-2.104 -3.116,-3.115c-0.997,-0.998 -2.35,-1.558 -3.761,-1.558c-1.41,0 -2.763,0.56 -3.761,1.558c-1.011,1.011 -2.104,2.104 -3.115,3.115c-0.998,0.998 -2.351,1.558 -3.761,1.558c-1.411,0 -2.764,-0.56 -3.761,-1.558c-1.011,-1.011 -2.105,-2.104 -3.116,-3.115c-0.997,-0.998 -2.35,-1.558 -3.761,-1.558c-1.41,0 -2.763,0.56 -3.761,1.558c-1.011,1.011 -2.104,2.104 -3.115,3.115c-0.522,0.522 -1.14,0.924 -1.813,1.188Z" style="fill:none;stroke:currentColor;stroke-width:2px;"/><path d="M41,31.041l2,8" style="fill:none;stroke:currentColor;stroke-width:2px;"/><path d="M49.698,33.614l4.302,12.427l-44,0l3.867,-11.173" style="fill:none;stroke:currentColor;stroke-width:2px;"/><path d="M20,46.041l2,-8" style="fill:none;stroke:currentColor;stroke-width:2px;"/><path d="M23.875,30.541l-0.625,2.5" style="fill:none;stroke:currentColor;stroke-width:2px;"/></svg>
