<?xml version="1.0" encoding="UTF-8" standalone="no"?><!DOCTYPE svg PUBLIC "-//W3C//DTD SVG 1.1//EN" "http://www.w3.org/Graphics/SVG/1.1/DTD/svg11.dtd"><svg width="100%" height="100%" viewBox="0 0 64 64" version="1.1" xmlns="http://www.w3.org/2000/svg" xmlns:xlink="http://www.w3.org/1999/xlink" xml:space="preserve" xmlns:serif="http://www.serif.com/" style="fill-rule:evenodd;clip-rule:evenodd;stroke-linecap:round;stroke-linejoin:round;stroke-miterlimit:2;"><rect id="_42---Dish" serif:id="42 - Dish" x="0" y="0" width="64" height="64" style="fill:none;"/><path d="M54.257,49.395c-0.471,0.269 -1.004,0.41 -1.546,0.41c-1.253,0 -3.653,0 -5.217,0c-0.945,0 -1.838,0.429 -2.429,1.165c-0.235,0.293 -0.488,0.608 -0.723,0.901c-0.591,0.737 -1.484,1.165 -2.428,1.165c-4.134,0 -15.694,0 -19.828,0c-0.944,0 -1.837,-0.428 -2.428,-1.165c-0.235,-0.293 -0.488,-0.608 -0.723,-0.901c-0.591,-0.736 -1.484,-1.165 -2.429,-1.165c-1.564,0 -3.964,0 -5.217,0c-0.542,0 -1.075,-0.141 -1.546,-0.41c-1.683,-0.962 -5.743,-3.283 -5.743,-3.283l56,0c0,0 -4.06,2.321 -5.743,3.283Z" style="fill:none;stroke:currentColor;stroke-width:2px;"/><path d="M57,46.051c0,0.081 -50,0.081 -50,0c0,-13.798 11.202,-25 25,-25c13.798,0 25,11.202 25,25Z" style="fill:none;stroke:currentColor;stroke-width:2px;"/><path d="M13,46.066c0,-3.34 0.864,-6.48 2.38,-9.209" style="fill:none;stroke:currentColor;stroke-width:2px;"/><path d="M20.294,31.104c1.214,-0.952 2.546,-1.758 3.97,-2.395" style="fill:none;stroke:currentColor;stroke-width:2px;"/><path d="M32,20.869l0,-4" style="fill:none;stroke:currentColor;stroke-width:2px;"/><path d="M37,16.869l-10,0" style="fill:none;stroke:currentColor;stroke-width:2px;"/><path d="M10.704,18.869c0,0 1.226,-2.87 -0.334,-6.214" style="fill:none;stroke:currentColor;stroke-width:2px;"/><path d="M53.296,18.869c0,0 -1.226,-2.87 0.334,-6.214" style="fill:none;stroke:currentColor;stroke-width:2px;"/><path d="M20.285,12.655c0,0 1.227,-2.871 -0.334,-6.215" style="fill:none;stroke:currentColor;stroke-width:2px;"/><path d="M43.715,12.655c0,0 -1.227,-2.871 0.334,-6.215" style="fill:none;stroke:currentColor;stroke-width:2px;"/></svg>
