<?xml version="1.0" encoding="UTF-8" standalone="no"?><!DOCTYPE svg PUBLIC "-//W3C//DTD SVG 1.1//EN" "http://www.w3.org/Graphics/SVG/1.1/DTD/svg11.dtd"><svg width="100%" height="100%" viewBox="0 0 64 64" version="1.1" xmlns="http://www.w3.org/2000/svg" xmlns:xlink="http://www.w3.org/1999/xlink" xml:space="preserve" xmlns:serif="http://www.serif.com/" style="fill-rule:evenodd;clip-rule:evenodd;stroke-linecap:round;stroke-linejoin:round;stroke-miterlimit:2;"><rect id="_89---Fish" serif:id="89 - Fish" x="0" y="0" width="64" height="64" style="fill:none;"/><path d="M30.744,41.01c-1.104,-0.239 -2.278,-0.539 -3.45,-0.89" style="fill:none;stroke:currentColor;stroke-width:2px;"/><path d="M24.471,39.16c-3.462,-1.333 -6.306,-3.096 -6.306,-5.028c0,-4.156 13.162,-7.529 17.317,-7.529c4.156,0 11.294,3.373 11.294,7.529c0,4.156 -7.138,7.529 -11.294,7.529c-0.44,0 -0.983,-0.038 -1.6,-0.11" style="fill:none;stroke:currentColor;stroke-width:2px;"/><path d="M13.647,29.614c2.493,0 4.518,2.025 4.518,4.518c0,2.493 -2.025,4.518 -4.518,4.518l0,-9.036Z" style="fill:none;stroke:currentColor;stroke-width:2px;"/><path d="M35.765,26.608c0,0 -2.649,3.758 0,9.406" style="fill:none;stroke:currentColor;stroke-width:2px;"/><path d="M30.471,36.956l-4.706,-7.53" style="fill:none;stroke:currentColor;stroke-width:2px;"/><path d="M21.296,31.311l0.669,1.07" style="fill:none;stroke:currentColor;stroke-width:2px;"/><path d="M48.362,12.828l-22.145,35.422" style="fill:none;stroke:currentColor;stroke-width:2px;"/><path d="M31.157,5.868l-7.989,39.435" style="fill:none;stroke:currentColor;stroke-width:2px;"/><path d="M33.882,10.205c4.89,0.38 9.37,2.228 13.001,5.103" style="fill:none;stroke:currentColor;stroke-width:2px;"/><path d="M49.45,17.661c4.06,4.3 6.55,10.097 6.55,16.471c0,13.246 -10.754,24 -24,24c-13.246,0 -24,-10.754 -24,-24c0,-12.452 9.504,-22.702 21.647,-23.886" style="fill:none;stroke:currentColor;stroke-width:2px;"/><path d="M44.616,20.165c2.783,2.508 4.847,5.867 5.739,9.795" style="fill:none;stroke:currentColor;stroke-width:2px;"/><path d="M47.827,44.315c-2.573,4 -6.654,7.036 -11.655,8.172c-2.13,0.485 -4.259,0.586 -6.315,0.35" style="fill:none;stroke:currentColor;stroke-width:2px;"/></svg>
