<?xml version="1.0" encoding="UTF-8" standalone="no"?><!DOCTYPE svg PUBLIC "-//W3C//DTD SVG 1.1//EN" "http://www.w3.org/Graphics/SVG/1.1/DTD/svg11.dtd"><svg width="100%" height="100%" viewBox="0 0 64 64" version="1.1" xmlns="http://www.w3.org/2000/svg" xmlns:xlink="http://www.w3.org/1999/xlink" xml:space="preserve" xmlns:serif="http://www.serif.com/" style="fill-rule:evenodd;clip-rule:evenodd;stroke-linecap:round;stroke-linejoin:round;stroke-miterlimit:2;"><rect id="_15---Potato-Sticks" serif:id="15 - Potato Sticks" x="0" y="0" width="64" height="64" style="fill:none;"/><path d="M44.5,56l-25.885,0c-1.499,0 -2.768,-1.106 -2.972,-2.59c-0.981,-7.111 -3.643,-26.41 -3.643,-26.41l8.5,0c0,6.347 5.153,11.5 11.5,11.5c6.347,0 11.5,-5.153 11.5,-11.5l8.5,0l-0.875,6.344" style="fill:none;stroke:currentColor;stroke-width:2px;"/><path d="M22,32.679l0,-17.679l5,0l0,22.357" style="fill:none;stroke:currentColor;stroke-width:2px;"/><path d="M17,27l0,-19l5,0l0,24.679" style="fill:none;stroke:currentColor;stroke-width:2px;"/><path d="M27,37.357l0,-26.357l5,0l0,27.5" style="fill:none;stroke:currentColor;stroke-width:2px;"/><path d="M32,38.5l0,-30.5l5,0l0,29.357" style="fill:none;stroke:currentColor;stroke-width:2px;"/><path d="M37,37.357l0,-25.357l5,0l0,20.679" style="fill:none;stroke:currentColor;stroke-width:2px;"/><path d="M42,32.679l0,-15.679l5,0l0,10" style="fill:none;stroke:currentColor;stroke-width:2px;"/><path d="M57.019,48.308l-14.538,0l2.769,9.692l9,0l2.769,-9.692Z" style="fill:none;stroke:currentColor;stroke-width:2px;"/><path d="M44.558,48.308c0,0 -0.052,-4.724 4.154,-5.539c4.205,-0.814 4.153,-2.769 4.153,-2.769c0,0 3.62,3.588 2.77,8.308l-11.077,0Z" style="fill:none;stroke:currentColor;stroke-width:2px;"/></svg>
