<?xml version="1.0" encoding="UTF-8" standalone="no"?><!DOCTYPE svg PUBLIC "-//W3C//DTD SVG 1.1//EN" "http://www.w3.org/Graphics/SVG/1.1/DTD/svg11.dtd"><svg width="100%" height="100%" viewBox="0 0 64 64" version="1.1" xmlns="http://www.w3.org/2000/svg" xmlns:xlink="http://www.w3.org/1999/xlink" xml:space="preserve" xmlns:serif="http://www.serif.com/" style="fill-rule:evenodd;clip-rule:evenodd;stroke-linecap:round;stroke-linejoin:round;stroke-miterlimit:2;"><rect id="_59---Ice-Cream" serif:id="59 - Ice Cream" x="0" y="0" width="64" height="64" style="fill:none;"/><path d="M29,44l6,0l0,12c0,0.796 -0.316,1.559 -0.879,2.121c-0.562,0.563 -1.325,0.879 -2.121,0.879c-1.657,0 -3,-1.343 -3,-3l0,-12Z" style="fill:none;stroke:currentColor;stroke-width:2px;"/><path d="M22.044,26.56c-1.224,-0.424 -2.044,-1.578 -2.044,-2.873c0,-2.401 0,-6.187 0,-6.187c0,-6.904 5.373,-12.5 12,-12.5c0,0 0,0 0,0c6.627,0 12,5.596 12,12.5c0,0 0,6.152 0,9.884c0,1.392 -1.104,2.534 -2.495,2.581c-0.44,0.005 -0.818,0.066 -1.007,0.211c-0.649,0.499 -1.031,1.289 -1.031,2.128c0,0.883 0,1.788 0,2.529c0,0.442 -0.169,0.866 -0.469,1.179c-0.3,0.312 -0.707,0.488 -1.131,0.488c-0.425,0 -0.832,-0.176 -1.132,-0.488c-0.3,-0.313 -0.468,-0.737 -0.468,-1.179c0,-0.882 0,-2.027 0,-3.214c0,-1.536 -0.658,-2.993 -1.794,-3.972c-1.136,-0.979 -2.633,-1.38 -4.082,-1.092c-0.733,0.145 -1.46,0.289 -2.13,0.422c-2.073,0.412 -4.212,0.269 -6.217,-0.415c0,0 0,0 0,-0.001c0,-0.001 0,-0.001 0,-0.001Z" style="fill:none;stroke:currentColor;stroke-width:2px;"/><path d="M43,29.791l0,12.126c0,1.151 -0.912,2.083 -2.036,2.083c-4.191,0 -13.737,0 -17.928,0c-1.124,0 -2.036,-0.932 -2.036,-2.083l0,-15.688" style="fill:none;stroke:currentColor;stroke-width:2px;"/><path d="M28.5,40c-0.951,0 -1.803,0 -2.428,0c-0.592,0 -1.072,-0.643 -1.072,-1.437l0,-2.299" style="fill:none;stroke:currentColor;stroke-width:2px;"/></svg>
