<?xml version="1.0" encoding="UTF-8" standalone="no"?><!DOCTYPE svg PUBLIC "-//W3C//DTD SVG 1.1//EN" "http://www.w3.org/Graphics/SVG/1.1/DTD/svg11.dtd"><svg width="100%" height="100%" viewBox="0 0 64 64" version="1.1" xmlns="http://www.w3.org/2000/svg" xmlns:xlink="http://www.w3.org/1999/xlink" xml:space="preserve" xmlns:serif="http://www.serif.com/" style="fill-rule:evenodd;clip-rule:evenodd;stroke-linecap:round;stroke-linejoin:round;stroke-miterlimit:2;"><rect id="_18---Pizza" serif:id="18 - Pizza" x="0" y="0" width="64" height="64" style="fill:none;"/><path d="M45.432,45.432c-3.439,3.44 -8.189,5.568 -13.432,5.568c-10.486,0 -19,-8.514 -19,-19c0,-10.486 8.514,-19 19,-19c10.486,0 19,8.514 19,19l-19,0l13.432,13.432Z" style="fill:none;stroke:currentColor;stroke-width:2px;"/><path d="M32,8l0,48" style="fill:none;stroke:currentColor;stroke-width:2px;"/><path d="M48.971,15.029l-33.942,33.942" style="fill:none;stroke:currentColor;stroke-width:2px;"/><path d="M51,32l-43,0" style="fill:none;stroke:currentColor;stroke-width:2px;"/><path d="M45,45l-29.971,-29.971" style="fill:none;stroke:currentColor;stroke-width:2px;"/><path d="M19,27l-1,1" style="fill:none;stroke:currentColor;stroke-width:2px;"/><path d="M45,26l0,1" style="fill:none;stroke:currentColor;stroke-width:2px;"/><path d="M36,44l0,-2" style="fill:none;stroke:currentColor;stroke-width:2px;"/><path d="M37,19l-1,0" style="fill:none;stroke:currentColor;stroke-width:2px;"/><path d="M52.126,32.846c-0.701,-0.527 -1.135,-1.335 -1.188,-2.21c-0.687,-9.851 -8.911,-17.636 -18.938,-17.636c-10.486,0 -19,8.514 -19,19c0,10.486 8.514,19 19,19c4.932,0 9.427,-1.883 12.806,-4.969c0.409,-0.381 0.938,-0.607 1.496,-0.639c0.119,-0.015 0.247,-0.023 0.381,-0.03c0.79,-0.045 1.552,0.302 2.038,0.927c0.486,0.625 0.634,1.449 0.396,2.204c0,0 0,0 0,0.001c-0.101,0.319 -0.279,0.608 -0.519,0.84c-4.315,4.127 -10.162,6.666 -16.598,6.666c-13.246,0 -24,-10.754 -24,-24c0,-13.246 10.754,-24 24,-24c12.783,0 23.245,10.015 23.961,22.619c0.041,0.849 -0.313,1.668 -0.959,2.22c0.007,0.008 0.007,0.008 0.007,0.008c-0.788,0.674 -1.938,0.71 -2.766,0.087c-0.039,-0.029 -0.078,-0.059 -0.117,-0.088Z" style="fill:none;stroke:currentColor;stroke-width:2px;"/></svg>
