<?xml version="1.0" encoding="UTF-8" standalone="no"?><!DOCTYPE svg PUBLIC "-//W3C//DTD SVG 1.1//EN" "http://www.w3.org/Graphics/SVG/1.1/DTD/svg11.dtd"><svg width="100%" height="100%" viewBox="0 0 64 64" version="1.1" xmlns="http://www.w3.org/2000/svg" xmlns:xlink="http://www.w3.org/1999/xlink" xml:space="preserve" xmlns:serif="http://www.serif.com/" style="fill-rule:evenodd;clip-rule:evenodd;stroke-linecap:round;stroke-linejoin:round;stroke-miterlimit:2;"><rect id="_56---Ramen-Noodle" serif:id="56 - Ramen Noodle" x="0" y="0" width="64" height="64" style="fill:none;"/><path d="M54.448,33c0.389,0 0.759,0.17 1.013,0.464c0.254,0.295 0.367,0.686 0.309,1.07c-0.175,1.167 -0.435,2.897 -0.726,4.839c-1.175,7.833 -7.903,13.627 -15.823,13.627c-4.636,0 -9.806,0 -14.442,0c-7.92,0 -14.648,-5.794 -15.823,-13.627c-0.291,-1.942 -0.551,-3.672 -0.726,-4.839c-0.058,-0.384 0.055,-0.775 0.309,-1.07c0.254,-0.294 0.624,-0.464 1.013,-0.464c7.24,0 37.656,0 44.896,0Z" style="fill:none;stroke:currentColor;stroke-width:2px;"/><path d="M35.903,32.875c0,-2.323 1.886,-4.209 4.209,-4.209c2.323,0 4.209,1.886 4.209,4.209" style="fill:none;stroke:currentColor;stroke-width:2px;"/><path d="M32.395,32.875c0,-4.259 3.458,-7.717 7.717,-7.717c4.259,0 7.717,3.458 7.717,7.717" style="fill:none;stroke:currentColor;stroke-width:2px;"/><path d="M29.062,32.875c0,-6.099 4.951,-11.05 11.05,-11.05c6.099,0 11.05,4.951 11.05,11.05" style="fill:none;stroke:currentColor;stroke-width:2px;"/><path d="M13.079,32.875c0,-7.46 6.057,-13.517 13.517,-13.517c3.453,0 6.605,1.298 8.996,3.432" style="fill:none;stroke:currentColor;stroke-width:2px;"/><path d="M17.156,32.875c0,-5.21 4.23,-9.44 9.44,-9.44c2.068,0 3.982,0.667 5.538,1.797" style="fill:none;stroke:currentColor;stroke-width:2px;"/><path d="M21.447,32.875c0,-2.842 2.307,-5.149 5.149,-5.149c1.218,0 2.338,0.424 3.22,1.133" style="fill:none;stroke:currentColor;stroke-width:2px;"/><path d="M43,52.503l0,2.088c0,0.639 -0.254,1.252 -0.706,1.703c-0.451,0.452 -1.064,0.706 -1.703,0.706c-4.232,0 -12.95,0 -17.182,0c-0.639,0 -1.252,-0.254 -1.703,-0.706c-0.452,-0.451 -0.706,-1.064 -0.706,-1.703c0,-1.068 0,-2.088 0,-2.088" style="fill:none;stroke:currentColor;stroke-width:2px;"/><path d="M37.466,21.387l0,-8.733" style="fill:none;stroke:currentColor;stroke-width:2px;"/><path d="M33.717,21.387l0,-8.801" style="fill:none;stroke:currentColor;stroke-width:2px;"/><path d="M58.189,6.705l-26.581,6.775" style="fill:none;stroke:currentColor;stroke-width:2px;"/><path d="M30.994,11.436l27.808,1.09" style="fill:none;stroke:currentColor;stroke-width:2px;"/></svg>
