<?xml version="1.0" encoding="UTF-8" standalone="no"?><!DOCTYPE svg PUBLIC "-//W3C//DTD SVG 1.1//EN" "http://www.w3.org/Graphics/SVG/1.1/DTD/svg11.dtd"><svg width="100%" height="100%" viewBox="0 0 64 64" version="1.1" xmlns="http://www.w3.org/2000/svg" xmlns:xlink="http://www.w3.org/1999/xlink" xml:space="preserve" xmlns:serif="http://www.serif.com/" style="fill-rule:evenodd;clip-rule:evenodd;stroke-linecap:round;stroke-linejoin:round;stroke-miterlimit:2;"><rect id="_51---Roasted-Meat" serif:id="51 - Roasted Meat" x="0" y="0" width="64" height="64" style="fill:none;"/><path d="M49.967,20.318l2.016,4.204l0,31.478" style="fill:none;stroke:currentColor;stroke-width:2px;"/><path d="M51.983,24.522l2.016,-4.204" style="fill:none;stroke:currentColor;stroke-width:2px;"/><path d="M56,26.397l0,-2.397l-11,0" style="fill:none;stroke:currentColor;stroke-width:2px;"/><path d="M19,24l-6.82,0" style="fill:none;stroke:currentColor;stroke-width:2px;"/><path d="M10.164,20.318l2.016,4.204l0,31.478" style="fill:none;stroke:currentColor;stroke-width:2px;"/><path d="M12.18,24.522l2.016,-4.204" style="fill:none;stroke:currentColor;stroke-width:2px;"/><path d="M32.067,56c8.164,0 8.444,-6.968 5.78,-10.305c0,0 -0.199,3.112 -3.723,2.909c-3.31,-0.19 -5.023,-7.108 -1.307,-10.445c0,0 -3.79,1.632 -6.214,5.825c-2.424,4.192 -1.508,12.016 5.464,12.016Z" style="fill:none;stroke:currentColor;stroke-width:2px;"/><path d="M42.295,10.6l0,-2.6" style="fill:none;stroke:currentColor;stroke-width:2px;"/><path d="M26.655,10.6l0,-2.6" style="fill:none;stroke:currentColor;stroke-width:2px;"/><path d="M37.382,10.6l0,-2.6" style="fill:none;stroke:currentColor;stroke-width:2px;"/><path d="M21.742,10.6l0,-2.6" style="fill:none;stroke:currentColor;stroke-width:2px;"/><path d="M45,24c0,-0.663 -0.263,-1.299 -0.732,-1.768c-0.469,-0.469 -1.105,-0.732 -1.768,-0.732c-4.968,0 -16.032,0 -21,0c-0.663,0 -1.299,0.263 -1.768,0.732c-0.469,0.469 -0.732,1.105 -0.732,1.768c0,0.663 0.263,1.299 0.732,1.768c0.469,0.469 1.105,0.732 1.768,0.732c4.968,0 16.032,0 21,0c0.663,0 1.299,-0.263 1.768,-0.732c0.469,-0.469 0.732,-1.105 0.732,-1.768c0,0 0,0 0,0Z" style="fill:none;stroke:currentColor;stroke-width:2px;"/></svg>
