<?xml version="1.0" encoding="UTF-8" standalone="no"?><!DOCTYPE svg PUBLIC "-//W3C//DTD SVG 1.1//EN" "http://www.w3.org/Graphics/SVG/1.1/DTD/svg11.dtd"><svg width="100%" height="100%" viewBox="0 0 64 64" version="1.1" xmlns="http://www.w3.org/2000/svg" xmlns:xlink="http://www.w3.org/1999/xlink" xml:space="preserve" xmlns:serif="http://www.serif.com/" style="fill-rule:evenodd;clip-rule:evenodd;stroke-linecap:round;stroke-linejoin:round;stroke-miterlimit:2;"><rect id="_55---Borrito" serif:id="55 - Borrito" x="0" y="0" width="64" height="64" style="fill:none;"/><path d="M40.305,22.751c1.371,-5.684 0.108,-11.138 -1.027,-14.419c-0.246,-0.655 -0.824,-1.128 -1.515,-1.239c-0.691,-0.111 -1.388,0.157 -1.827,0.703c-5.802,7.147 -22.048,27.356 -28.309,35.145c-1.425,1.772 -1.287,4.333 0.321,5.941c2.13,2.13 5.038,5.037 7.167,7.167c1.608,1.608 4.169,1.746 5.941,0.322c7.742,-6.224 27.752,-22.311 35.04,-28.17c0.568,-0.456 0.842,-1.186 0.713,-1.904c-0.129,-0.717 -0.639,-1.306 -1.33,-1.537c-6.269,-2.011 -20.142,-4.744 -30.643,5.757c-1.854,1.854 -3.4,3.651 -4.689,5.374" style="fill:none;stroke:currentColor;stroke-width:2px;"/><path d="M17.761,39.466c-5.509,9.377 -3.425,15.804 -3.425,15.804" style="fill:none;stroke:currentColor;stroke-width:2px;"/><path d="M41.037,14.316c1.073,-0.576 2.439,-0.412 3.344,0.493c0.186,0.186 0.341,0.392 0.464,0.61c1.038,-0.454 2.293,-0.257 3.141,0.592c0.978,0.978 1.091,2.495 0.339,3.597c0.608,0.073 1.198,0.343 1.664,0.809c0.701,0.701 0.958,1.678 0.77,2.582" style="fill:none;stroke:currentColor;stroke-width:2px;"/><path d="M40.724,10.627c3.457,-1.003 7.343,-0.144 10.067,2.58c2.73,2.73 3.587,6.63 2.571,10.094" style="fill:none;stroke:currentColor;stroke-width:2px;"/><path d="M39.666,7.691c1.225,-1.225 3.213,-1.225 4.438,0c0.327,0.327 0.567,0.709 0.719,1.116c1.232,-1.027 3.07,-0.963 4.226,0.193c0.407,0.406 0.678,0.896 0.815,1.415c1.111,-0.407 2.408,-0.165 3.299,0.727c0.892,0.892 1.134,2.188 0.728,3.3c0.518,0.136 1.008,0.408 1.414,0.814c1.156,1.156 1.221,2.994 0.193,4.226c0.407,0.152 0.789,0.392 1.117,0.72c1.224,1.224 1.224,3.213 0,4.437" style="fill:none;stroke:currentColor;stroke-width:2px;"/><path d="M17.541,35.24l6.409,1.602" style="fill:none;stroke:currentColor;stroke-width:2px;"/></svg>
