<?xml version="1.0" encoding="UTF-8" standalone="no"?><!DOCTYPE svg PUBLIC "-//W3C//DTD SVG 1.1//EN" "http://www.w3.org/Graphics/SVG/1.1/DTD/svg11.dtd"><svg width="100%" height="100%" viewBox="0 0 64 64" version="1.1" xmlns="http://www.w3.org/2000/svg" xmlns:xlink="http://www.w3.org/1999/xlink" xml:space="preserve" xmlns:serif="http://www.serif.com/" style="fill-rule:evenodd;clip-rule:evenodd;stroke-linecap:round;stroke-linejoin:round;stroke-miterlimit:2;"><rect id="_57---Noodle" serif:id="57 - Noodle" x="0" y="0" width="64" height="64" style="fill:none;"/><path d="M54.257,45.359c-0.471,0.269 -1.004,0.41 -1.546,0.41c-1.253,0 -3.653,0 -5.217,0c-0.945,0 -1.838,0.429 -2.429,1.165c-0.235,0.293 -0.488,0.608 -0.723,0.901c-0.591,0.736 -1.484,1.165 -2.428,1.165c-4.134,0 -15.694,0 -19.828,0c-0.944,0 -1.837,-0.429 -2.428,-1.165c-0.235,-0.293 -0.488,-0.608 -0.723,-0.901c-0.591,-0.736 -1.484,-1.165 -2.429,-1.165c-1.564,0 -3.964,0 -5.217,0c-0.542,0 -1.075,-0.141 -1.546,-0.41c-1.683,-0.963 -5.743,-3.283 -5.743,-3.283l56,0c0,0 -4.06,2.32 -5.743,3.283Z" style="fill:none;stroke:currentColor;stroke-width:2px;"/><path d="M35.903,42.076c0,-2.323 1.886,-4.209 4.209,-4.209c2.323,0 4.209,1.886 4.209,4.209" style="fill:none;stroke:currentColor;stroke-width:2px;"/><path d="M32.395,42.076c0,-4.259 3.458,-7.717 7.717,-7.717c4.259,0 7.717,3.458 7.717,7.717" style="fill:none;stroke:currentColor;stroke-width:2px;"/><path d="M29.062,42.076c0,-6.099 4.951,-11.05 11.05,-11.05c6.099,0 11.05,4.951 11.05,11.05" style="fill:none;stroke:currentColor;stroke-width:2px;"/><path d="M13.079,42.076c0,-7.46 6.057,-13.517 13.517,-13.517c3.453,0 6.605,1.298 8.996,3.432" style="fill:none;stroke:currentColor;stroke-width:2px;"/><path d="M17.156,42.076c0,-5.21 4.23,-9.44 9.44,-9.44c2.068,0 3.982,0.667 5.538,1.797" style="fill:none;stroke:currentColor;stroke-width:2px;"/><path d="M21.447,42.076c0,-2.842 2.307,-5.149 5.149,-5.149c1.218,0 2.338,0.424 3.22,1.133" style="fill:none;stroke:currentColor;stroke-width:2px;"/><path d="M37.466,30.588l0,-8.733" style="fill:none;stroke:currentColor;stroke-width:2px;"/><path d="M33.717,30.588l0,-8.801" style="fill:none;stroke:currentColor;stroke-width:2px;"/><path d="M58.189,15.906l-26.581,6.775" style="fill:none;stroke:currentColor;stroke-width:2px;"/><path d="M30.994,20.637l27.808,1.09" style="fill:none;stroke:currentColor;stroke-width:2px;"/></svg>
