<?xml version="1.0" encoding="UTF-8" standalone="no"?><!DOCTYPE svg PUBLIC "-//W3C//DTD SVG 1.1//EN" "http://www.w3.org/Graphics/SVG/1.1/DTD/svg11.dtd"><svg width="100%" height="100%" viewBox="0 0 64 64" version="1.1" xmlns="http://www.w3.org/2000/svg" xmlns:xlink="http://www.w3.org/1999/xlink" xml:space="preserve" xmlns:serif="http://www.serif.com/" style="fill-rule:evenodd;clip-rule:evenodd;stroke-linecap:round;stroke-linejoin:round;stroke-miterlimit:2;"><rect id="_43---Pancake" serif:id="43 - Pancake" x="0" y="0" width="64" height="64" style="fill:none;"/><path d="M10.875,37.639l-0.315,0c-2.948,0 -5.356,-2.354 -5.423,-5.301c0,0 0,-0.001 0,-0.001c-0.032,-1.404 0.503,-2.761 1.485,-3.765c0.981,-1.003 2.326,-1.569 3.73,-1.569c1.015,0 2.04,0 2.936,0c1.75,0 3.386,-0.867 4.368,-2.315c0.443,-0.654 0.941,-1.388 1.441,-2.124c1.937,-2.856 5.164,-4.567 8.615,-4.567c2.793,0 6.17,0 8.944,0c3.354,0 6.471,1.728 8.247,4.572c0.421,0.673 0.84,1.344 1.22,1.953c0.964,1.543 2.656,2.481 4.475,2.481l2.842,0c2.948,0 5.356,2.354 5.423,5.301c0,0 0,0.001 0,0.001c0.032,1.404 -0.503,2.761 -1.485,3.765c-0.981,1.003 -2.326,1.569 -3.73,1.569l-0.023,0c-1.975,0.535 -4.554,0.858 -7.375,0.858c-2.355,0 -4.542,-0.225 -6.349,-0.611c-2.249,0.386 -4.971,0.611 -7.901,0.611c-2.811,0 -5.43,-0.207 -7.624,-0.564c-1.763,0.357 -3.867,0.564 -6.126,0.564c-2.821,0 -5.4,-0.323 -7.375,-0.858Z" style="fill:none;stroke:currentColor;stroke-width:2px;"/><path d="M52.383,37.931l-3.548,4.019c-0.591,0.669 -1.441,1.053 -2.335,1.053c-0.732,0 -1.633,0 -2.406,0c-1.067,0 -2.059,0.546 -2.63,1.448c-0.022,0.034 -0.044,0.069 -0.066,0.104c-0.571,0.901 -1.564,1.448 -2.631,1.448c-3.208,0 -10.084,0 -13.292,0c-1.068,0 -2.06,-0.547 -2.631,-1.448c-0.007,-0.011 -0.014,-0.021 -0.02,-0.032c-0.596,-0.941 -1.649,-1.492 -2.761,-1.445c-0.712,0.03 -1.522,0.063 -2.205,0.092c-0.96,0.04 -1.885,-0.366 -2.506,-1.099l-3.562,-4.209" style="fill:none;stroke:currentColor;stroke-width:2px;"/><path d="M27.121,23.003l-4,4" style="fill:none;stroke:currentColor;stroke-width:2px;"/><path d="M37.121,23.003l4,4" style="fill:none;stroke:currentColor;stroke-width:2px;"/><path d="M32.121,23.003l0,5" style="fill:none;stroke:currentColor;stroke-width:2px;"/><path d="M45.621,43.003l-11,0" style="fill:none;stroke:currentColor;stroke-width:2px;"/></svg>
