<?xml version="1.0" encoding="UTF-8" standalone="no"?><!DOCTYPE svg PUBLIC "-//W3C//DTD SVG 1.1//EN" "http://www.w3.org/Graphics/SVG/1.1/DTD/svg11.dtd"><svg width="100%" height="100%" viewBox="0 0 64 64" version="1.1" xmlns="http://www.w3.org/2000/svg" xmlns:xlink="http://www.w3.org/1999/xlink" xml:space="preserve" xmlns:serif="http://www.serif.com/" style="fill-rule:evenodd;clip-rule:evenodd;stroke-linecap:round;stroke-linejoin:round;stroke-miterlimit:2;"><rect id="_77---Coffee" serif:id="77 - Coffee" x="0" y="0" width="64" height="64" style="fill:none;"/><path d="M48.594,18l-33.335,0c0,0 1.094,9.479 2.07,17.946c0.856,7.413 7.133,13.008 14.596,13.008l0.003,0c7.462,0 13.739,-5.595 14.595,-13.008c0.977,-8.467 2.071,-17.946 2.071,-17.946Z" style="fill:none;stroke:currentColor;stroke-width:2px;"/><path d="M23,14c0,0 0.269,-2.471 -1,-5" style="fill:none;stroke:currentColor;stroke-width:2px;"/><path d="M41,14c0,0 -0.269,-2.471 1,-5" style="fill:none;stroke:currentColor;stroke-width:2px;"/><path d="M28.488,12c0,0 0.269,-2.471 -1,-5" style="fill:none;stroke:currentColor;stroke-width:2px;"/><path d="M35.512,12c0,0 -0.269,-2.471 1,-5" style="fill:none;stroke:currentColor;stroke-width:2px;"/><path d="M50.064,51.301c-0.441,0.226 -0.928,0.344 -1.423,0.344c-0.987,0 -2.735,0 -3.967,0c-0.887,0 -1.732,0.379 -2.322,1.04c-0.082,0.092 -0.164,0.184 -0.246,0.275c-0.591,0.662 -1.436,1.04 -2.323,1.04c-3.435,0 -12.278,0 -15.714,0c-0.887,0 -1.732,-0.378 -2.323,-1.04c-0.081,-0.091 -0.164,-0.183 -0.245,-0.275c-0.591,-0.661 -1.436,-1.04 -2.323,-1.04c-1.231,0 -2.98,0 -3.966,0c-0.495,0 -0.983,-0.118 -1.423,-0.344c-1.413,-0.725 -4.571,-2.347 -4.571,-2.347l45.416,0c0,0 -3.157,1.622 -4.57,2.347Z" style="fill:none;stroke:currentColor;stroke-width:2px;"/><path d="M47.491,27.612c0,0 1.18,-0.708 2.489,-1.494c0.819,-0.491 1.839,-0.503 2.669,-0.03c0.83,0.473 1.34,1.357 1.334,2.312c-0.082,3.567 -1.442,8.282 -7.735,9.927" style="fill:none;stroke:currentColor;stroke-width:2px;"/><path d="M34.427,28.597c-1.132,3.006 -0.934,3.955 -4.316,6.91c-1.538,1.343 -2.249,3.042 -2.533,4.621l-0.11,-0.043c-2.147,-1.24 -2.381,-4.86 -0.522,-8.079c1.858,-3.22 5.11,-4.827 7.257,-3.588l0.224,0.179Z" style="fill:none;stroke:currentColor;stroke-width:2px;"/><path d="M36.778,29.905c1.937,1.332 2.087,4.801 0.298,7.9c-1.833,3.174 -5.019,4.781 -7.147,3.63c0.284,-1.578 0.995,-3.278 2.532,-4.621c3.383,-2.954 3.185,-3.904 4.317,-6.909Z" style="fill:none;stroke:currentColor;stroke-width:2px;"/></svg>
