<?xml version="1.0" encoding="UTF-8" standalone="no"?><!DOCTYPE svg PUBLIC "-//W3C//DTD SVG 1.1//EN" "http://www.w3.org/Graphics/SVG/1.1/DTD/svg11.dtd"><svg width="100%" height="100%" viewBox="0 0 64 64" version="1.1" xmlns="http://www.w3.org/2000/svg" xmlns:xlink="http://www.w3.org/1999/xlink" xml:space="preserve" xmlns:serif="http://www.serif.com/" style="fill-rule:evenodd;clip-rule:evenodd;stroke-linecap:round;stroke-linejoin:round;stroke-miterlimit:2;"><rect id="_11---Fried-Chiken" serif:id="11 - Fried Chiken" x="0" y="0" width="64" height="64" style="fill:none;"/><path d="M25.386,43.15l-3.536,-3.536c0,0 -8.96,8.96 -12.85,12.85c-0.469,0.469 -0.732,1.105 -0.732,1.768c0,0.663 0.263,1.299 0.732,1.768c0.469,0.469 1.105,0.732 1.768,0.732c0.663,0 1.299,-0.263 1.768,-0.732c3.89,-3.89 12.85,-12.85 12.85,-12.85Z" style="fill:none;stroke:currentColor;stroke-width:2px;"/><path d="M36,26c0,0 0.269,-0.135 0.61,-0.305c0.354,-0.177 0.767,-0.195 1.135,-0.05c0.369,0.145 0.658,0.44 0.796,0.812c0,0.001 0,0.002 0,0.002" style="fill:none;stroke:currentColor;stroke-width:2px;"/><path d="M49,29c0,0 0.706,0.573 0,1" style="fill:none;stroke:currentColor;stroke-width:2px;"/><path d="M26.288,27.05c0.079,-0.299 0.152,-0.6 0.219,-0.903c-1.316,-0.576 -2.236,-1.89 -2.236,-3.418c0,-1.712 1.157,-3.157 2.731,-3.594c-0.001,-0.045 -0.002,-0.09 -0.002,-0.135c0,-1.472 0.797,-2.759 1.982,-3.453c0.645,-1.13 1.45,-2.193 2.414,-3.157c4.199,-4.198 10.275,-5.385 15.535,-3.562c0.539,-0.513 1.267,-0.828 2.069,-0.828c1.656,0 3,1.344 3,3c0,0.253 -0.031,0.499 -0.09,0.733c0.238,0.21 0.472,0.43 0.7,0.657c3.101,3.102 4.559,7.228 4.374,11.293c0.761,0.367 1.287,1.146 1.287,2.046c0,1.204 -0.939,2.19 -2.124,2.266c-0.721,2.049 -1.9,3.972 -3.537,5.609c-2.106,2.105 -4.683,3.453 -7.393,4.044c-0.6,1.167 -1.816,1.966 -3.217,1.966c-1.067,0 -2.027,-0.463 -2.688,-1.2c-1.431,0.29 -2.829,0.709 -4.175,1.251c0.138,0.299 0.215,0.632 0.215,0.984c0,1.297 -1.053,2.351 -2.351,2.351c-0.864,0 -1.62,-0.467 -2.029,-1.162c-1.361,0.891 -2.638,1.926 -3.804,3.093c-0.014,-0.014 -0.014,-0.014 -0.014,-0.014c0,0 -6.956,-6.956 -7.07,-7.069c-0.001,-0.001 -0.001,-0.002 0,-0.003c0,0 0,0 0,0c0.99,-0.99 1.885,-2.059 2.678,-3.192c-0.483,-0.769 -0.762,-1.679 -0.762,-2.653c0,-2.518 1.865,-4.603 4.288,-4.95Z" style="fill:none;stroke:currentColor;stroke-width:2px;"/><path d="M56.604,23.506c0,0 -1.142,-1.26 -3,-1" style="fill:none;stroke:currentColor;stroke-width:2px;"/><path d="M35,39c0,0 -0.436,-2.009 -1,-2" style="fill:none;stroke:currentColor;stroke-width:2px;"/><path d="M38,15c0,0 -1.254,-0.462 -2,0" style="fill:none;stroke:currentColor;stroke-width:2px;"/></svg>
