<?xml version="1.0" encoding="UTF-8" standalone="no"?><!DOCTYPE svg PUBLIC "-//W3C//DTD SVG 1.1//EN" "http://www.w3.org/Graphics/SVG/1.1/DTD/svg11.dtd"><svg width="100%" height="100%" viewBox="0 0 64 64" version="1.1" xmlns="http://www.w3.org/2000/svg" xmlns:xlink="http://www.w3.org/1999/xlink" xml:space="preserve" xmlns:serif="http://www.serif.com/" style="fill-rule:evenodd;clip-rule:evenodd;stroke-linecap:round;stroke-linejoin:round;stroke-miterlimit:2;"><rect id="_58---Ice-Cream" serif:id="58 - Ice Cream" x="0" y="0" width="64" height="64" style="fill:none;"/><path d="M22.17,20.122c-0.385,-0.49 -0.651,-1.083 -0.75,-1.737c0,-0.001 0,-0.001 0,-0.001c-0.174,-1.139 0.112,-2.299 0.795,-3.227c0.682,-0.927 1.705,-1.546 2.844,-1.719c3.617,-0.551 8.768,-1.334 12.385,-1.885c1.139,-0.173 2.299,0.113 3.227,0.795c0.927,0.683 1.546,1.706 1.719,2.844c0,0.001 0,0.001 0,0.001c0.112,0.733 0.001,1.454 -0.285,2.09c0.381,0.192 0.745,0.423 1.086,0.691c1.525,1.199 2.436,3.017 2.484,4.956c0,0.001 0,0.002 0,0.003c0.069,2.817 -1.981,5.24 -4.77,5.639c-1.498,0.214 -3.135,0.448 -4.594,0.656c-2.881,0.412 -5.807,0.412 -8.689,0c-1.688,-0.241 -3.615,-0.516 -5.289,-0.755c-2.38,-0.34 -4.113,-2.432 -4.004,-4.834c0,-0.001 0,-0.001 0.001,-0.002c0.072,-1.596 1.209,-2.943 2.771,-3.282l1.069,-0.233Z" style="fill:none;stroke:currentColor;stroke-width:2px;"/><path d="M22.17,20.122c2.459,-0.581 6.83,-0.622 6.83,-0.622" style="fill:none;stroke:currentColor;stroke-width:2px;"/><path d="M28.298,12.945c0,0 -1.187,-2.374 1.27,-4.405c2.457,-2.03 2.54,-2.54 2.54,-2.54c0,0 3.66,3.198 3.387,5.85" style="fill:none;stroke:currentColor;stroke-width:2px;"/><path d="M43,28.142l-9.499,29.582c-0.236,0.624 -0.834,1.037 -1.501,1.037c-0.667,0 -1.265,-0.413 -1.501,-1.037l-9.498,-29.705" style="fill:none;stroke:currentColor;stroke-width:2px;"/><path d="M41.845,31.739c0,0 -2.385,1.5 -9.72,1.5" style="fill:none;stroke:currentColor;stroke-width:2px;"/></svg>
