<?xml version="1.0" encoding="UTF-8" standalone="no"?><!DOCTYPE svg PUBLIC "-//W3C//DTD SVG 1.1//EN" "http://www.w3.org/Graphics/SVG/1.1/DTD/svg11.dtd"><svg width="100%" height="100%" viewBox="0 0 64 64" version="1.1" xmlns="http://www.w3.org/2000/svg" xmlns:xlink="http://www.w3.org/1999/xlink" xml:space="preserve" xmlns:serif="http://www.serif.com/" style="fill-rule:evenodd;clip-rule:evenodd;stroke-linecap:round;stroke-linejoin:round;stroke-miterlimit:2;"><rect id="_84---Ice-Cream" serif:id="84 - Ice Cream" x="0" y="0" width="64" height="64" style="fill:none;"/><path d="M20.613,30.835c0,0 5.272,18.151 7.141,24.584c0.383,1.319 1.592,2.227 2.967,2.227c0.792,0 1.676,0 2.467,0c1.371,0 2.578,-0.902 2.964,-2.217c1.89,-6.425 7.235,-24.594 7.235,-24.594" style="fill:none;stroke:currentColor;stroke-width:2px;"/><path d="M21,31l0,-0.071c-0.782,-0.149 -1.508,-0.53 -2.078,-1.101c-0.751,-0.75 -1.172,-1.767 -1.172,-2.828c0,0 0,0 0,0c0,-1.061 0.421,-2.078 1.172,-2.828c0.75,-0.751 1.767,-1.172 2.828,-1.172l4.25,0l0,-0.087c-0.582,-0.138 -1.119,-0.435 -1.549,-0.864c-0.609,-0.609 -0.951,-1.436 -0.951,-2.297c0,-0.001 0,-0.003 0,-0.004c0,-0.861 0.342,-1.688 0.951,-2.297c0.609,-0.609 1.436,-0.951 2.297,-0.951c3.017,0 7.487,0 10.504,0c0.861,0 1.688,0.342 2.297,0.951c0.609,0.609 0.951,1.436 0.951,2.297c0,0.001 0,0.003 0,0.004c0,0.861 -0.342,1.688 -0.951,2.297c-0.43,0.429 -0.967,0.726 -1.549,0.864l0,0.087l4.25,0c1.061,0 2.078,0.421 2.828,1.172c0.751,0.75 1.172,1.767 1.172,2.828c0,0 0,0 0,0c0,1.061 -0.421,2.078 -1.172,2.828c-0.57,0.571 -1.296,0.952 -2.078,1.101c0,0 -0.477,0 -1.12,0c-1.867,0 -3.38,1.513 -3.38,3.38c0,0.429 0,0.858 0,1.26c0,1.173 -0.951,2.124 -2.124,2.124c-0.001,0 -0.001,0 -0.002,0c-1.173,0 -2.124,-0.951 -2.124,-2.124c0,-0.402 0,-0.831 0,-1.26c0,-0.896 -0.356,-1.756 -0.99,-2.39c-0.634,-0.634 -1.494,-0.99 -2.39,-0.99c-3.926,0 -9.87,0 -9.87,0" style="fill:none;stroke:currentColor;stroke-width:2px;"/><path d="M30,23l8.5,0" style="fill:none;stroke:currentColor;stroke-width:2px;"/><circle cx="32" cy="13" r="3.5" style="fill:none;stroke:currentColor;stroke-width:2px;"/><path d="M32,9.5l0.5,-2.5" style="fill:none;stroke:currentColor;stroke-width:2px;"/></svg>
