<?xml version="1.0" encoding="UTF-8" standalone="no"?><!DOCTYPE svg PUBLIC "-//W3C//DTD SVG 1.1//EN" "http://www.w3.org/Graphics/SVG/1.1/DTD/svg11.dtd"><svg width="100%" height="100%" viewBox="0 0 64 64" version="1.1" xmlns="http://www.w3.org/2000/svg" xmlns:xlink="http://www.w3.org/1999/xlink" xml:space="preserve" xmlns:serif="http://www.serif.com/" style="fill-rule:evenodd;clip-rule:evenodd;stroke-linecap:round;stroke-linejoin:round;stroke-miterlimit:2;"><rect id="_28---Lemon" serif:id="28 - Lemon" x="0" y="0" width="64" height="64" style="fill:none;"/><path d="M45.562,56.558c-4.951,-0.726 -7.768,-9.519 -6.286,-19.624c1.482,-10.104 6.705,-17.719 11.656,-16.992c4.951,0.726 7.767,9.519 6.285,19.623c-1.482,10.105 -6.705,17.719 -11.655,16.993Z" style="fill:none;stroke:currentColor;stroke-width:2px;"/><path d="M45.562,56.558c-5.624,-0.825 -10.453,-3.501 -13.768,-7.191" style="fill:none;stroke:currentColor;stroke-width:2px;"/><path d="M40.158,20.819c3.297,-1.08 6.983,-1.433 10.774,-0.877" style="fill:none;stroke:currentColor;stroke-width:2px;"/><path d="M9.209,10.701c4.311,-2.541 12.02,2.54 17.205,11.339c5.185,8.799 5.894,18.005 1.583,20.545c-4.311,2.54 -12.021,-2.541 -17.205,-11.34c-5.185,-8.798 -5.894,-18.004 -1.583,-20.544Z" style="fill:none;stroke:currentColor;stroke-width:2px;"/><path d="M11.129,14.76c3.002,-1.769 8.632,2.211 12.564,8.884c3.931,6.672 4.686,13.525 1.683,15.295c-3.003,1.769 -8.633,-2.212 -12.564,-8.884c-3.932,-6.672 -4.686,-13.526 -1.683,-15.295Z" style="fill:none;stroke:currentColor;stroke-width:2px;"/><path d="M9.209,10.701c8.901,-5.245 19.592,-4.079 25.557,2.286c0.37,-0.176 0.77,-0.303 1.195,-0.369c2.367,-0.372 4.591,1.247 4.963,3.614c0.287,1.827 -0.612,3.569 -2.126,4.439c1.729,7.955 -2.449,16.992 -10.801,21.914" style="fill:none;stroke:currentColor;stroke-width:2px;"/><path d="M35.108,23.644c0,0 0.22,3.746 -1.482,6.411" style="fill:none;stroke:currentColor;stroke-width:2px;"/><path d="M16.777,30.055l6.701,-5.757" style="fill:none;stroke:currentColor;stroke-width:2px;"/><path d="M14.513,20.949l6.432,10.296" style="fill:none;stroke:currentColor;stroke-width:2px;"/><path d="M25.32,38.25l-1.842,-2.95" style="fill:none;stroke:currentColor;stroke-width:2px;"/><path d="M19.155,27.34l0,-3.202" style="fill:none;stroke:currentColor;stroke-width:2px;"/><path d="M10.591,24.618l4.562,2.802" style="fill:none;stroke:currentColor;stroke-width:2px;"/><path d="M46.174,52.128c-3.447,-0.515 -5.317,-7.151 -4.173,-14.811c1.144,-7.66 4.871,-13.46 8.318,-12.945c3.447,0.514 5.317,7.151 4.173,14.81c-1.144,7.66 -4.871,13.461 -8.318,12.946Z" style="fill:none;stroke:currentColor;stroke-width:2px;"/><path d="M51.411,36.687l-8.831,0.256" style="fill:none;stroke:currentColor;stroke-width:2px;"/><path d="M47.439,45.188l1.482,-12.049" style="fill:none;stroke:currentColor;stroke-width:2px;"/><path d="M49.929,24.942l-0.425,3.451" style="fill:none;stroke:currentColor;stroke-width:2px;"/><path d="M47.854,37.3l-2.015,2.488" style="fill:none;stroke:currentColor;stroke-width:2px;"/><path d="M52.797,44.805l-1.783,-5.048" style="fill:none;stroke:currentColor;stroke-width:2px;"/></svg>
