<?xml version="1.0" encoding="UTF-8" standalone="no"?><!DOCTYPE svg PUBLIC "-//W3C//DTD SVG 1.1//EN" "http://www.w3.org/Graphics/SVG/1.1/DTD/svg11.dtd"><svg width="100%" height="100%" viewBox="0 0 64 64" version="1.1" xmlns="http://www.w3.org/2000/svg" xmlns:xlink="http://www.w3.org/1999/xlink" xml:space="preserve" xmlns:serif="http://www.serif.com/" style="fill-rule:evenodd;clip-rule:evenodd;stroke-linecap:round;stroke-linejoin:round;stroke-miterlimit:2;"><rect id="_90---Meat" serif:id="90 - Meat" x="0" y="0" width="64" height="64" style="fill:none;"/><path d="M48.362,12.828l-22.145,35.422" style="fill:none;stroke:currentColor;stroke-width:2px;"/><path d="M31.157,5.868l-7.989,39.435" style="fill:none;stroke:currentColor;stroke-width:2px;"/><path d="M33.882,10.205c4.89,0.38 9.37,2.228 13.001,5.103" style="fill:none;stroke:currentColor;stroke-width:2px;"/><path d="M49.45,17.661c4.06,4.3 6.55,10.097 6.55,16.471c0,13.246 -10.754,24 -24,24c-13.246,0 -24,-10.754 -24,-24c0,-12.452 9.504,-22.702 21.647,-23.886" style="fill:none;stroke:currentColor;stroke-width:2px;"/><path d="M44.616,20.165c2.783,2.508 4.847,5.867 5.739,9.795" style="fill:none;stroke:currentColor;stroke-width:2px;"/><path d="M47.827,44.315c-2.573,4 -6.654,7.036 -11.655,8.172c-2.13,0.485 -4.259,0.586 -6.315,0.35" style="fill:none;stroke:currentColor;stroke-width:2px;"/><path d="M24.173,41c1.084,1.59 2.63,2.794 4.413,3.461" style="fill:none;stroke:currentColor;stroke-width:2px;"/><path d="M31.5,45.042c2.285,0.083 4.536,-0.683 6.306,-2.175c0,0 0,0 0.001,0c2.578,-2.173 3.568,-5.7 2.496,-8.896c-0.167,-0.499 -0.338,-1.009 -0.509,-1.518" style="fill:none;stroke:currentColor;stroke-width:2px;"/><path d="M38.012,29.383c-1.849,-2.07 -4.626,-3.207 -7.524,-2.894c-0.62,0.067 -1.224,0.132 -1.784,0.192c-0.515,0.056 -1.032,0.062 -1.542,0.02" style="fill:none;stroke:currentColor;stroke-width:2px;"/><path d="M23.086,25.202c-0.411,-0.295 -0.84,-0.603 -1.26,-0.904c-0.666,-0.478 -1.524,-0.599 -2.296,-0.323c-0.772,0.276 -1.36,0.914 -1.572,1.706c0,0 0,0 0,0.001c-0.6,2.242 -0.26,4.632 0.941,6.619c0.865,1.431 1.953,3.231 3.101,5.13" style="fill:none;stroke:currentColor;stroke-width:2px;"/><path d="M43.011,41.262c1.982,-1.509 3.212,-3.871 3.241,-6.446c0.006,-0.526 0.013,-1.063 0.019,-1.6c0.048,-4.142 -2.793,-7.759 -6.828,-8.693c-0.607,-0.141 -1.199,-0.278 -1.747,-0.405c-1.951,-0.451 -3.667,-1.607 -4.82,-3.244c-0.291,-0.414 -0.595,-0.846 -0.892,-1.268c-0.472,-0.671 -1.243,-1.067 -2.063,-1.06" style="fill:none;stroke:currentColor;stroke-width:2px;"/><circle cx="22" cy="29" r="1.5" style="fill:none;stroke:currentColor;stroke-width:2px;"/></svg>
