<?xml version="1.0" encoding="UTF-8" standalone="no"?><!DOCTYPE svg PUBLIC "-//W3C//DTD SVG 1.1//EN" "http://www.w3.org/Graphics/SVG/1.1/DTD/svg11.dtd"><svg width="100%" height="100%" viewBox="0 0 64 64" version="1.1" xmlns="http://www.w3.org/2000/svg" xmlns:xlink="http://www.w3.org/1999/xlink" xml:space="preserve" xmlns:serif="http://www.serif.com/" style="fill-rule:evenodd;clip-rule:evenodd;stroke-linecap:round;stroke-linejoin:round;stroke-miterlimit:2;"><rect id="_26---Taco" serif:id="26 - Taco" x="0" y="0" width="64" height="64" style="fill:none;"/><path d="M9.903,53.085c8.532,11.506 27.786,-14.092 48,-24c0,0 -8.045,-15.461 -24,-14.176c-15.955,1.286 -10.164,33.928 -18.526,38.176c-4.097,2.082 -5.474,0 -5.474,0Z" style="fill:none;stroke:currentColor;stroke-width:2px;"/><path d="M9.903,53.085c0,0 -6.723,-6.679 4.854,-15.834" style="fill:none;stroke:currentColor;stroke-width:2px;"/><path d="M12.654,49.009c0,0 -1.958,-5.642 2.648,-7.024c0,0 -2.073,-6.103 1.497,-8.406c0,0 -2.418,-7.14 3.109,-9.673c0,0 -0.114,-11.471 12.092,-8.672" style="fill:none;stroke:currentColor;stroke-width:2px;"/><path d="M51.894,27.678c-2.228,1.179 -4.458,2.357 -6.171,4.224" style="fill:none;stroke:currentColor;stroke-width:2px;"/></svg>
