<?xml version="1.0" encoding="UTF-8" standalone="no"?><!DOCTYPE svg PUBLIC "-//W3C//DTD SVG 1.1//EN" "http://www.w3.org/Graphics/SVG/1.1/DTD/svg11.dtd"><svg width="100%" height="100%" viewBox="0 0 64 64" version="1.1" xmlns="http://www.w3.org/2000/svg" xmlns:xlink="http://www.w3.org/1999/xlink" xml:space="preserve" xmlns:serif="http://www.serif.com/" style="fill-rule:evenodd;clip-rule:evenodd;stroke-linecap:round;stroke-linejoin:round;stroke-miterlimit:2;"><rect id="_98---Coffee-Shop" serif:id="98 - Coffee Shop" x="0" y="0" width="64" height="64" style="fill:none;"/><path d="M34,34.747c0,-0.339 0.275,-0.614 0.614,-0.614c1.788,0 6.984,0 8.772,0c0.339,0 0.614,0.275 0.614,0.614c0,2.918 0,15.253 0,15.253l-10,0l0,-15.253Z" style="fill:none;stroke:currentColor;stroke-width:2px;"/><path d="M55,34.991c0,-0.474 -0.384,-0.858 -0.857,-0.858c-1.551,0 -4.802,0 -6.352,0c-0.474,0 -0.858,0.384 -0.858,0.858c0,1.538 0,4.747 0,6.285c0,0.473 0.384,0.857 0.858,0.857c1.55,0 4.801,0 6.352,0c0.473,0 0.857,-0.384 0.857,-0.857c0,-1.538 0,-4.747 0,-6.285Z" style="fill:none;stroke:currentColor;stroke-width:2px;"/><path d="M44,40.356l2.933,0" style="fill:none;stroke:currentColor;stroke-width:2px;"/><path d="M44,36.444l2.933,0" style="fill:none;stroke:currentColor;stroke-width:2px;"/><path d="M51.2,37.333l-1.067,1.067" style="fill:none;stroke:currentColor;stroke-width:2px;"/><path d="M50.769,13.394c-0.709,-1.654 -2.336,-2.727 -4.137,-2.727c-6.639,0 -22.625,0 -29.264,0c-1.801,0 -3.428,1.073 -4.137,2.727c-1.847,4.309 -5.231,12.206 -5.231,12.206l48,0c0,0 -3.384,-7.897 -5.231,-12.206Z" style="fill:none;stroke:currentColor;stroke-width:2px;"/><path d="M17.067,25.6l-7.467,0l0,1.465c0,0.743 0.295,1.456 0.82,1.981c0.526,0.526 1.238,0.821 1.981,0.821c0.61,0 1.255,0 1.864,0c0.743,0 1.456,-0.295 1.981,-0.821c0.526,-0.525 0.821,-1.238 0.821,-1.981c0,-0.803 0,-1.465 0,-1.465Z" style="fill:none;stroke:currentColor;stroke-width:2px;"/><path d="M24.533,25.6l-7.466,0l0,1.465c0,0.743 0.295,1.456 0.82,1.981c0.526,0.526 1.238,0.821 1.981,0.821c0.61,0 1.254,0 1.864,0c0.743,0 1.455,-0.295 1.981,-0.821c0.525,-0.525 0.82,-1.238 0.82,-1.981c0,-0.803 0,-1.465 0,-1.465Z" style="fill:none;stroke:currentColor;stroke-width:2px;"/><path d="M32,25.6l-7.467,0l0,1.465c0,0.743 0.295,1.456 0.821,1.981c0.525,0.526 1.238,0.821 1.981,0.821c0.609,0 1.254,0 1.864,0c0.743,0 1.455,-0.295 1.981,-0.821c0.525,-0.525 0.82,-1.238 0.82,-1.981c0,-0.803 0,-1.465 0,-1.465Z" style="fill:none;stroke:currentColor;stroke-width:2px;"/><path d="M39.467,25.6l-7.467,0l0,1.465c0,0.743 0.295,1.456 0.82,1.981c0.526,0.526 1.238,0.821 1.981,0.821c0.61,0 1.255,0 1.864,0c0.743,0 1.456,-0.295 1.981,-0.821c0.526,-0.525 0.821,-1.238 0.821,-1.981c0,-0.803 0,-1.465 0,-1.465Z" style="fill:none;stroke:currentColor;stroke-width:2px;"/><path d="M46.933,25.6l-7.466,0l0,1.465c0,0.743 0.295,1.456 0.82,1.981c0.526,0.526 1.238,0.821 1.981,0.821c0.61,0 1.254,0 1.864,0c0.743,0 1.455,-0.295 1.981,-0.821c0.525,-0.525 0.82,-1.238 0.82,-1.981c0,-0.803 0,-1.465 0,-1.465Z" style="fill:none;stroke:currentColor;stroke-width:2px;"/><path d="M54.4,25.6l-7.467,0l0,1.465c0,0.743 0.295,1.456 0.821,1.981c0.525,0.526 1.238,0.821 1.981,0.821c0.609,0 1.254,0 1.864,0c0.743,0 1.455,-0.295 1.981,-0.821c0.525,-0.525 0.82,-1.238 0.82,-1.981c0,-0.803 0,-1.465 0,-1.465Z" style="fill:none;stroke:currentColor;stroke-width:2px;"/><path d="M51,29.867l0,4.266" style="fill:none;stroke:currentColor;stroke-width:2px;"/><path d="M51,45.769l0,2.408c0,0.484 -0.194,0.947 -0.538,1.289c-0.345,0.342 -0.813,0.534 -1.3,0.534c-3.569,0 -11.566,0 -19.295,0" style="fill:none;stroke:currentColor;stroke-width:2px;"/><path d="M15,50.133l-1.162,0c-1.015,0 -1.838,-0.823 -1.838,-1.838l0,-18.428" style="fill:none;stroke:currentColor;stroke-width:2px;"/><path d="M14.4,54l11.733,0l-2.133,-13l-7.467,0l-2.133,13Z" style="fill:none;stroke:currentColor;stroke-width:2px;"/><path d="M19.2,46l2.133,0" style="fill:none;stroke:currentColor;stroke-width:2px;"/><path d="M19.2,49.067l2.133,0" style="fill:none;stroke:currentColor;stroke-width:2px;"/></svg>
