<?xml version="1.0" encoding="UTF-8" standalone="no"?><!DOCTYPE svg PUBLIC "-//W3C//DTD SVG 1.1//EN" "http://www.w3.org/Graphics/SVG/1.1/DTD/svg11.dtd"><svg width="100%" height="100%" viewBox="0 0 64 64" version="1.1" xmlns="http://www.w3.org/2000/svg" xmlns:xlink="http://www.w3.org/1999/xlink" xml:space="preserve" xmlns:serif="http://www.serif.com/" style="fill-rule:evenodd;clip-rule:evenodd;stroke-linecap:round;stroke-linejoin:round;stroke-miterlimit:2;"><rect id="_40---Ice-Cream" serif:id="40 - Ice Cream" x="0" y="0" width="64" height="64" style="fill:none;"/><path d="M41.049,15.129c0.925,0.833 1.759,1.795 2.481,2.86c3.815,1.232 6.614,5.24 6.614,9.989" style="fill:none;stroke:currentColor;stroke-width:2px;"/><path d="M13.79,27.978c0,-2.747 0.937,-5.247 2.466,-7.104" style="fill:none;stroke:currentColor;stroke-width:2px;"/><path d="M27.882,12.38c1.361,-0.491 2.809,-0.755 4.312,-0.755c0.899,0 1.773,0.088 4.058,0.688" style="fill:none;stroke:currentColor;stroke-width:2px;"/><path d="M36.88,18.133l10.055,-9.239" style="fill:none;stroke:currentColor;stroke-width:2px;"/><path d="M55.27,38.066c0,0.854 -0.692,1.545 -1.546,1.545c-0.427,0 -0.912,0 -1.411,0c-2.336,0 -4.358,1.622 -4.866,3.902c-0.487,2.185 -1.08,4.851 -1.511,6.786c-0.341,1.532 -1.701,2.622 -3.27,2.622c-5.037,0 -15.843,0 -20.88,0c-1.569,0 -2.929,-1.09 -3.27,-2.622c-0.431,-1.935 -1.024,-4.601 -1.511,-6.786c-0.508,-2.28 -2.53,-3.902 -4.866,-3.902c-0.499,0 -0.984,0 -1.411,0c-0.854,0 -1.546,-0.691 -1.546,-1.545c0,-2.227 0,-6.315 0,-8.542c0,-0.854 0.692,-1.546 1.546,-1.546c1.846,0 9.274,0 9.274,0l0,4.9c0,0.76 0.302,1.49 0.84,2.028c0.538,0.538 1.268,0.84 2.028,0.84l0.001,0c0.761,0 1.491,-0.302 2.028,-0.84c0.538,-0.538 0.84,-1.268 0.84,-2.028l0,-4.9c0,0 23.613,0 27.985,0c0.854,0 1.546,0.692 1.546,1.546c0,2.227 0,6.315 0,8.542Z" style="fill:none;stroke:currentColor;stroke-width:2px;"/><path d="M39.461,50.058c0,0 0.502,-0.023 1.051,-0.047c0.831,-0.037 1.542,-0.608 1.758,-1.411c0.342,-1.273 0.803,-2.987 0.803,-2.987" style="fill:none;stroke:currentColor;stroke-width:2px;"/><path d="M29.452,23.644l-1.57,-0.991" style="fill:none;stroke:currentColor;stroke-width:2px;"/><path d="M40.568,22.611l0.95,-0.206" style="fill:none;stroke:currentColor;stroke-width:2px;"/><circle cx="23.651" cy="15.129" r="5.016" style="fill:none;stroke:currentColor;stroke-width:2px;"/><path d="M20.064,11.625c0,0 0.021,-1.672 -2.608,-2.731" style="fill:none;stroke:currentColor;stroke-width:2px;"/></svg>
