<?xml version="1.0" encoding="UTF-8" standalone="no"?><!DOCTYPE svg PUBLIC "-//W3C//DTD SVG 1.1//EN" "http://www.w3.org/Graphics/SVG/1.1/DTD/svg11.dtd"><svg width="100%" height="100%" viewBox="0 0 64 64" version="1.1" xmlns="http://www.w3.org/2000/svg" xmlns:xlink="http://www.w3.org/1999/xlink" xml:space="preserve" xmlns:serif="http://www.serif.com/" style="fill-rule:evenodd;clip-rule:evenodd;stroke-linecap:round;stroke-linejoin:round;stroke-miterlimit:2;"><rect id="_81---Seasoning" serif:id="81 - Seasoning" x="0" y="0" width="64" height="64" style="fill:none;"/><path d="M49.571,26.085c-0.313,-1.227 -1.419,-2.085 -2.685,-2.085c-3.109,0 -8.828,0 -11.946,0c-1.273,0 -2.382,0.867 -2.689,2.103c-1.114,4.484 -3.753,15.106 -5.362,21.579c-0.318,1.279 -0.029,2.634 0.783,3.672c0.812,1.039 2.057,1.646 3.376,1.646c5.605,0 14.265,0 19.884,0c1.324,0 2.573,-0.612 3.385,-1.657c0.811,-1.045 1.094,-2.407 0.767,-3.689c-1.658,-6.484 -4.371,-17.101 -5.513,-21.569Z" style="fill:none;stroke:currentColor;stroke-width:2px;"/><path d="M31.32,29.848c-0.378,-1.481 -0.709,-2.773 -0.962,-3.763c-0.313,-1.227 -1.418,-2.085 -2.684,-2.085c-3.11,0 -8.828,0 -11.946,0c-1.273,0 -2.383,0.867 -2.69,2.103c-1.114,4.484 -3.753,15.105 -5.362,21.579c-0.317,1.279 -0.029,2.634 0.783,3.672c0.813,1.039 2.058,1.646 3.376,1.646c3.269,0 7.577,0 11.715,0" style="fill:none;stroke:currentColor;stroke-width:2px;"/><rect x="36.685" y="20" width="8.647" height="4" style="fill:none;stroke:currentColor;stroke-width:2px;"/><rect x="17.473" y="20" width="8.647" height="4" style="fill:none;stroke:currentColor;stroke-width:2px;"/><circle cx="38.005" cy="16" r="1" style="fill:currentColor;"/><circle cx="18.792" cy="16" r="1" style="fill:currentColor;"/><circle cx="41.009" cy="14.5" r="1" style="fill:currentColor;"/><circle cx="21.796" cy="14.5" r="1" style="fill:currentColor;"/><circle cx="40.505" cy="38.5" r="4.828" style="fill:none;stroke:currentColor;stroke-width:2px;"/><circle cx="21.292" cy="38.5" r="4.828" style="fill:none;stroke:currentColor;stroke-width:2px;"/><circle cx="44.013" cy="16" r="1" style="fill:currentColor;"/><circle cx="24.801" cy="16" r="1" style="fill:currentColor;"/><path d="M48.421,20l-14.824,0l0,-1.59c0,-1.965 0.781,-3.85 2.17,-5.24c1.39,-1.389 3.275,-2.17 5.24,-2.17c0.001,0 0.002,0 0.004,0c1.965,0 3.85,0.781 5.239,2.17c1.39,1.39 2.171,3.275 2.171,5.24c0,0.945 0,1.59 0,1.59Z" style="fill:none;stroke:currentColor;stroke-width:2px;"/><path d="M29.208,20l-14.824,0l0,-1.59c0,-1.965 0.781,-3.85 2.171,-5.24c1.389,-1.389 3.274,-2.17 5.239,-2.17c0.002,0 0.003,0 0.004,0c1.965,0 3.85,0.781 5.24,2.17c1.389,1.39 2.17,3.275 2.17,5.24c0,0.945 0,1.59 0,1.59Z" style="fill:none;stroke:currentColor;stroke-width:2px;"/></svg>
