<?xml version="1.0" encoding="UTF-8" standalone="no"?><!DOCTYPE svg PUBLIC "-//W3C//DTD SVG 1.1//EN" "http://www.w3.org/Graphics/SVG/1.1/DTD/svg11.dtd"><svg width="100%" height="100%" viewBox="0 0 64 64" version="1.1" xmlns="http://www.w3.org/2000/svg" xmlns:xlink="http://www.w3.org/1999/xlink" xml:space="preserve" xmlns:serif="http://www.serif.com/" style="fill-rule:evenodd;clip-rule:evenodd;stroke-linecap:round;stroke-linejoin:round;stroke-miterlimit:2;"><rect id="_27---Chiken" serif:id="27 - Chiken" x="0" y="0" width="64" height="64" style="fill:none;"/><path d="M34.396,33.289c0,0 -1.29,-4.264 -8.274,-7.182c-6.984,-2.918 -12.442,4.895 -7.199,14.274c6.447,11.535 30.852,11.503 37.077,2.901c4.545,-6.28 -6.669,-30.838 -26.44,-15.473" style="fill:none;stroke:currentColor;stroke-width:2px;"/><path d="M14.006,39.998c-2.89,2.274 -3.355,2.602 -3.976,2.818c-0.099,-0.022 -0.203,0.007 -0.277,0.077c-0.073,0.071 -0.107,0.173 -0.09,0.273c0.108,0.8 0.881,3.396 3.887,1.298c3.783,-2.64 9.088,0.129 9.088,0.129" style="fill:none;stroke:currentColor;stroke-width:2px;"/><path d="M19.997,26.107c0,0 -7.572,-5.572 -10.685,-7.862c-0.754,-0.555 -1.802,-0.476 -2.464,0.186c0,0.001 -0.001,0.001 -0.001,0.002c-0.295,0.294 -0.457,0.695 -0.451,1.111c0.006,0.417 0.18,0.813 0.483,1.098c2.745,2.586 9.43,8.887 9.43,8.887l3.688,-3.422Z" style="fill:none;stroke:currentColor;stroke-width:2px;"/><path d="M33.86,25.041c0,0 -2.554,-5.053 -8.435,-3.239" style="fill:none;stroke:currentColor;stroke-width:2px;"/><path d="M25.095,21.802c0,0 -5.375,-4.691 -7.85,-6.851c-0.315,-0.275 -0.731,-0.407 -1.148,-0.364c-0.417,0.042 -0.797,0.256 -1.05,0.59c-0.001,0 -0.001,0.001 -0.001,0.001c-0.141,0.186 -0.165,0.435 -0.062,0.643c0.39,0.791 1.325,2.683 1.325,2.683" style="fill:none;stroke:currentColor;stroke-width:2px;"/></svg>
