<?xml version="1.0" encoding="UTF-8" standalone="no"?><!DOCTYPE svg PUBLIC "-//W3C//DTD SVG 1.1//EN" "http://www.w3.org/Graphics/SVG/1.1/DTD/svg11.dtd"><svg width="100%" height="100%" viewBox="0 0 64 64" version="1.1" xmlns="http://www.w3.org/2000/svg" xmlns:xlink="http://www.w3.org/1999/xlink" xml:space="preserve" xmlns:serif="http://www.serif.com/" style="fill-rule:evenodd;clip-rule:evenodd;stroke-linecap:round;stroke-linejoin:round;stroke-miterlimit:2;"><rect id="_76---Coffee-Machine" serif:id="76 - Coffee Machine" x="0" y="0" width="64" height="64" style="fill:none;"/><path d="M28,9l-15.908,0c-0.82,0 -1.607,0.326 -2.186,0.906c-0.58,0.579 -0.906,1.366 -0.906,2.186c0,8.376 0,31.44 0,39.816c0,0.82 0.326,1.607 0.906,2.186c0.579,0.58 1.366,0.906 2.186,0.906c5.383,0 15.908,0 15.908,0l0,-46Z" style="fill:none;stroke:currentColor;stroke-width:2px;"/><path d="M55,52.296c0,-1.268 -1.028,-2.296 -2.296,-2.296c-6.524,0 -24.704,0 -24.704,0l0,5l27,0l0,-2.704Z" style="fill:none;stroke:currentColor;stroke-width:2px;"/><path d="M55,11.296c0,-1.268 -1.028,-2.296 -2.296,-2.296c-6.524,0 -24.704,0 -24.704,0l0,10l24.704,0c1.268,0 2.296,-1.028 2.296,-2.296c0,-1.622 0,-3.786 0,-5.408Z" style="fill:none;stroke:currentColor;stroke-width:2px;"/><rect x="37.702" y="19" width="10.298" height="4" style="fill:none;stroke:currentColor;stroke-width:2px;"/><path d="M50,13l0,2" style="fill:none;stroke:currentColor;stroke-width:2px;"/><path d="M50.889,31l-16.077,0l0,13.574c0,2.997 2.43,5.426 5.426,5.426c1.685,0 3.541,0 5.225,0c2.997,0 5.426,-2.429 5.426,-5.426c0,-5.616 0,-13.574 0,-13.574Z" style="fill:none;stroke:currentColor;stroke-width:2px;"/><path d="M50.889,32.9c0,0 0.186,-0.074 0.473,-0.189c0.862,-0.345 1.842,-0.218 2.588,0.336c0.746,0.553 1.152,1.454 1.072,2.38c-0.18,2.066 -1.072,4.148 -4.133,4.05" style="fill:none;stroke:currentColor;stroke-width:2px;"/><circle cx="19" cy="39.5" r="3" style="fill:none;stroke:currentColor;stroke-width:2px;"/><path d="M19,45l0,-2" style="fill:none;stroke:currentColor;stroke-width:2px;"/><path d="M19,36l0,-9" style="fill:none;stroke:currentColor;stroke-width:2px;"/></svg>
