<?xml version="1.0" encoding="UTF-8" standalone="no"?><!DOCTYPE svg PUBLIC "-//W3C//DTD SVG 1.1//EN" "http://www.w3.org/Graphics/SVG/1.1/DTD/svg11.dtd"><svg width="100%" height="100%" viewBox="0 0 64 64" version="1.1" xmlns="http://www.w3.org/2000/svg" xmlns:xlink="http://www.w3.org/1999/xlink" xml:space="preserve" xmlns:serif="http://www.serif.com/" style="fill-rule:evenodd;clip-rule:evenodd;stroke-linecap:round;stroke-linejoin:round;stroke-miterlimit:2;"><rect id="_19---Pizza-Slice" serif:id="19 - Pizza Slice" x="0" y="0" width="64" height="64" style="fill:none;"/><path d="M43.244,49.155c1.216,0.076 2.323,0.731 2.976,1.76c0.654,1.029 0.776,2.308 0.328,3.442c0.029,0.045 0.017,0.075 0.006,0.104c-0.583,1.478 -2.014,2.446 -3.602,2.439c-20.535,-0.274 -36.035,-15.775 -36.109,-36.108c0.007,-1.579 0.974,-2.995 2.443,-3.575c0.014,-0.026 0.035,-0.035 0.056,-0.043c1.155,-0.456 2.457,-0.332 3.505,0.333c1.047,0.665 1.714,1.791 1.793,3.029c1.048,16.132 12.468,27.541 28.604,28.619Z" style="fill:none;stroke:currentColor;stroke-width:2px;"/><path d="M27.703,24.967c1.311,1.31 1.311,3.438 0,4.748c-1.31,1.311 -3.438,1.311 -4.748,0c-1.31,-1.31 -1.31,-3.438 0,-4.748c1.31,-1.31 3.438,-1.31 4.748,0Z" style="fill:none;stroke:currentColor;stroke-width:2px;"/><path d="M41.44,27.059l0.509,2.656" style="fill:none;stroke:currentColor;stroke-width:2px;"/><path d="M35.417,17.312c-0.544,-0.881 -0.644,-1.966 -0.27,-2.931c0.375,-0.965 1.18,-1.699 2.176,-1.983c5.225,-1.513 14.366,-4.115 14.366,-4.115c1.232,-0.35 2.556,-0.006 3.462,0.899c0.905,0.906 1.249,2.23 0.899,3.462c0,0 -1.645,5.778 -2.644,9.29c-0.336,1.181 -1.294,2.081 -2.493,2.342c-1.199,0.262 -2.444,-0.158 -3.241,-1.092c0,-0.001 -0.001,-0.002 -0.002,-0.004c-2.869,-3.366 -1.026,-2.361 -6.516,-2.172c-2.726,0.095 -4.57,-1.782 -5.737,-3.696Z" style="fill:none;stroke:currentColor;stroke-width:2px;"/><path d="M50.462,24.343l-7.064,24.824c-0.047,-0.005 -0.094,-0.008 -0.141,-0.011c-16.158,-1.074 -27.59,-12.506 -28.621,-28.666c-0.003,-0.05 -0.007,-0.1 -0.012,-0.15l20.475,-5.827c-0.316,0.931 -0.201,1.958 0.318,2.799c1.167,1.914 3.011,3.791 5.737,3.696c5.49,-0.189 3.647,-1.194 6.516,2.172c0.001,0.002 0.002,0.003 0.002,0.004c0.697,0.817 1.737,1.24 2.79,1.159Z" style="fill:none;stroke:currentColor;stroke-width:2px;"/></svg>
