<?xml version="1.0" encoding="UTF-8" standalone="no"?><!DOCTYPE svg PUBLIC "-//W3C//DTD SVG 1.1//EN" "http://www.w3.org/Graphics/SVG/1.1/DTD/svg11.dtd"><svg width="100%" height="100%" viewBox="0 0 64 64" version="1.1" xmlns="http://www.w3.org/2000/svg" xmlns:xlink="http://www.w3.org/1999/xlink" xml:space="preserve" xmlns:serif="http://www.serif.com/" style="fill-rule:evenodd;clip-rule:evenodd;stroke-linecap:round;stroke-linejoin:round;stroke-miterlimit:2;"><rect id="_05---Hot-Dog" serif:id="05 - Hot Dog" x="0" y="0" width="64" height="64" style="fill:none;"/><path d="M51.799,19.272c0.938,-0.938 1.464,-2.209 1.464,-3.535c0,-1.327 -0.526,-2.598 -1.464,-3.536c0,0 0,0 0,0c-0.938,-0.938 -2.209,-1.464 -3.536,-1.464c-1.326,0 -2.597,0.526 -3.535,1.464c-7.517,7.517 -25.013,25.013 -32.528,32.528c-0.938,0.938 -1.464,2.209 -1.464,3.534c0,1.326 0.526,2.597 1.464,3.535c0.001,0.001 0.001,0.001 0.002,0.002c0.938,0.938 2.209,1.464 3.535,1.464c1.325,0 2.596,-0.526 3.534,-1.464c7.515,-7.515 25.011,-25.011 32.528,-32.528Z" style="fill:none;stroke:currentColor;stroke-width:2px;"/><path d="M52.506,19.979c0,0 0.544,0.544 1.313,1.314c2.79,2.789 2.79,7.311 0.001,10.101c-6.106,6.105 -16.321,16.32 -22.426,22.426c-2.79,2.789 -7.312,2.789 -10.101,-0.001c-0.77,-0.769 -1.314,-1.313 -1.314,-1.313" style="fill:none;stroke:currentColor;stroke-width:2px;"/><path d="M30.169,49.261c0,0 -0.927,0.927 -1.832,1.831c-0.452,0.452 -1.065,0.706 -1.704,0.706c-0.639,0 -1.252,-0.254 -1.704,-0.706c0,0 0,0 0,0" style="fill:none;stroke:currentColor;stroke-width:2px;"/><path d="M11.494,44.021c0,0 -0.544,-0.544 -1.313,-1.314c-2.79,-2.789 -2.79,-7.311 -0.001,-10.101c6.106,-6.105 16.321,-16.32 22.426,-22.426c2.79,-2.789 7.312,-2.789 10.101,0.001c0.77,0.769 1.314,1.313 1.314,1.313" style="fill:none;stroke:currentColor;stroke-width:2px;"/><path d="M49.324,29.525c0.586,0.586 0.586,1.536 0,2.121c-0.585,0.586 -1.536,0.586 -2.121,0c-0.586,-0.585 -0.586,-1.535 0,-2.121c0.585,-0.585 1.536,-0.585 2.121,0Z" style="fill:currentColor;"/><path d="M21.04,28.818c0.585,0.585 0.585,1.536 0,2.121c-0.586,0.586 -1.536,0.586 -2.121,0c-0.586,-0.585 -0.586,-1.536 0,-2.121c0.585,-0.585 1.535,-0.585 2.121,0Z" style="fill:currentColor;"/><path d="M34.475,15.383c0.585,0.585 0.585,1.536 0,2.121c-0.586,0.586 -1.536,0.586 -2.121,0c-0.586,-0.585 -0.586,-1.536 0,-2.121c0.585,-0.585 1.535,-0.585 2.121,0Z" style="fill:currentColor;"/><path d="M15.737,46.849c0.694,-0.695 1.597,-1.034 2.261,-0.849c0.001,0.001 0.002,0.001 0.003,0.001c0.663,0.185 1.566,-0.154 2.261,-0.849c0.695,-0.695 1.034,-1.598 0.849,-2.261c0,-0.001 -0.001,-0.002 -0.001,-0.003c-0.185,-0.663 0.154,-1.566 0.849,-2.261c0.695,-0.695 1.598,-1.034 2.261,-0.849c0.001,0 0.002,0 0.003,0.001c0.664,0.185 1.567,-0.154 2.262,-0.849c0.694,-0.695 1.033,-1.598 0.849,-2.262c-0.001,-0.001 -0.001,-0.002 -0.001,-0.003c-0.185,-0.663 0.154,-1.566 0.849,-2.261c0.694,-0.695 1.597,-1.034 2.261,-0.849c0.001,0 0.002,0.001 0.003,0.001c0.663,0.185 1.566,-0.154 2.261,-0.849c0.695,-0.695 1.034,-1.598 0.849,-2.261c0,-0.001 -0.001,-0.002 -0.001,-0.003c-0.185,-0.664 0.154,-1.567 0.849,-2.261c0.695,-0.695 1.598,-1.034 2.261,-0.849c0.001,0 0.002,0 0.003,0.001c0.664,0.184 1.567,-0.155 2.262,-0.849c0.695,-0.695 1.034,-1.598 0.849,-2.262c-0.001,-0.001 -0.001,-0.002 -0.001,-0.003c-0.185,-0.663 0.154,-1.566 0.849,-2.261c0.695,-0.695 1.598,-1.034 2.261,-0.849c0.001,0 0.002,0.001 0.003,0.001c0.663,0.185 1.566,-0.154 2.261,-0.849c0.695,-0.695 1.034,-1.598 0.849,-2.261c0,-0.001 0,-0.002 -0.001,-0.003c-0.185,-0.664 0.154,-1.567 0.849,-2.261" style="fill:none;stroke:currentColor;stroke-width:2px;"/></svg>
