<?xml version="1.0" encoding="UTF-8" standalone="no"?><!DOCTYPE svg PUBLIC "-//W3C//DTD SVG 1.1//EN" "http://www.w3.org/Graphics/SVG/1.1/DTD/svg11.dtd"><svg width="100%" height="100%" viewBox="0 0 64 64" version="1.1" xmlns="http://www.w3.org/2000/svg" xmlns:xlink="http://www.w3.org/1999/xlink" xml:space="preserve" xmlns:serif="http://www.serif.com/" style="fill-rule:evenodd;clip-rule:evenodd;stroke-linecap:round;stroke-linejoin:round;stroke-miterlimit:2;"><rect id="_97---Location" serif:id="97 - Location" x="0" y="0" width="64" height="64" style="fill:none;"/><path d="M44.151,39.5l12.543,5.913l-24.694,11.641l-24.694,-11.641l16.152,-7.614" style="fill:none;stroke:currentColor;stroke-width:2px;"/><path d="M32,44.102l7.857,0" style="fill:none;stroke:currentColor;stroke-width:2px;"/><path d="M37.12,44.572l-1.722,3.428" style="fill:none;stroke:currentColor;stroke-width:2px;"/><path d="M35.702,20.312c0,-2.043 -1.657,-3.7 -3.7,-3.699l-0.004,0c-0.981,0 -1.922,0.389 -2.616,1.083c-0.694,0.694 -1.084,1.635 -1.084,2.616l0,0.688l7.404,0l0,-0.688Z" style="fill:none;stroke:currentColor;stroke-width:2px;"/><path d="M28.298,27l7.404,0" style="fill:none;stroke:currentColor;stroke-width:2px;"/><path d="M28.298,24.635c0,0 0.304,-0.304 0.609,-0.608c0.335,-0.336 0.879,-0.336 1.214,0c0.001,0 0.001,0 0.001,0.001c0.162,0.161 0.38,0.251 0.608,0.251c0.228,0 0.446,-0.09 0.607,-0.251c0.01,-0.01 0.019,-0.019 0.028,-0.028c0.351,-0.351 0.919,-0.351 1.27,0c0.009,0.009 0.018,0.018 0.028,0.028c0.161,0.161 0.379,0.251 0.607,0.251c0.228,0 0.446,-0.09 0.608,-0.251c0,-0.001 0,-0.001 0.001,-0.001c0.335,-0.336 0.879,-0.336 1.214,0c0.305,0.304 0.609,0.608 0.609,0.608" style="fill:none;stroke:currentColor;stroke-width:2px;"/><path d="M32,44.041c0,0 -15.388,-7.075 -15.388,-22.041c0,-8.493 6.895,-15.388 15.388,-15.388c8.493,0 15.388,6.895 15.388,15.388c0,15.038 -15.388,22.041 -15.388,22.041Z" style="fill:none;stroke:currentColor;stroke-width:2px;"/><path d="M40.876,16c1.223,1.753 1.942,3.884 1.942,6.182c0,5.971 -4.848,10.818 -10.818,10.818c-5.97,0 -10.818,-4.847 -10.818,-10.818c0,-4.167 2.362,-7.786 5.818,-9.593" style="fill:none;stroke:currentColor;stroke-width:2px;"/></svg>
