<?xml version="1.0" encoding="UTF-8" standalone="no"?><!DOCTYPE svg PUBLIC "-//W3C//DTD SVG 1.1//EN" "http://www.w3.org/Graphics/SVG/1.1/DTD/svg11.dtd"><svg width="100%" height="100%" viewBox="0 0 64 64" version="1.1" xmlns="http://www.w3.org/2000/svg" xmlns:xlink="http://www.w3.org/1999/xlink" xml:space="preserve" xmlns:serif="http://www.serif.com/" style="fill-rule:evenodd;clip-rule:evenodd;stroke-linecap:round;stroke-linejoin:round;stroke-miterlimit:2;"><rect id="_46---Cheese" serif:id="46 - Cheese" x="0" y="0" width="64" height="64" style="fill:none;"/><path d="M28.064,34.745c1.758,0.824 2.516,2.919 1.692,4.677" style="fill:none;stroke:currentColor;stroke-width:2px;"/><circle cx="39.957" cy="22.6" r="2.596" style="fill:none;stroke:currentColor;stroke-width:2px;"/><path d="M24.605,15.868c23.225,-8.04 31.395,8.869 31.395,8.869l-26.219,11.753c-0.55,-1.224 -1.781,-2.078 -3.209,-2.078c-1.941,0 -3.517,1.576 -3.517,3.517c0,0.512 0.11,0.999 0.307,1.439c0,0 -7.081,3.174 -11.767,5.275c-0.631,0.283 -1.372,0.144 -1.858,-0.348c-0.485,-0.493 -0.614,-1.235 -0.323,-1.862c3.323,-7.158 9.916,-21.357 9.916,-21.357c0.187,0.022 0.377,0.034 0.569,0.034c2.613,0 4.733,-2.121 4.733,-4.733c0,-0.172 -0.009,-0.342 -0.027,-0.509Z" style="fill:none;stroke:currentColor;stroke-width:2px;"/><path d="M18.038,32c1.515,0 2.745,1.23 2.745,2.745" style="fill:none;stroke:currentColor;stroke-width:2px;"/><path d="M56,24.737l0,9.863c0,1.79 -1.07,3.406 -2.717,4.105c-7.892,3.349 -30.741,13.044 -38.388,16.289c-0.468,0.198 -1.005,0.135 -1.414,-0.167c-0.408,-0.302 -0.627,-0.797 -0.575,-1.303c0,0 0,0 0,-0.001c0.232,-2.246 -1.148,-3.978 -2.56,-3.415l0,-4.905" style="fill:none;stroke:currentColor;stroke-width:2px;"/></svg>
