<?xml version="1.0" encoding="UTF-8" standalone="no"?><!DOCTYPE svg PUBLIC "-//W3C//DTD SVG 1.1//EN" "http://www.w3.org/Graphics/SVG/1.1/DTD/svg11.dtd"><svg width="100%" height="100%" viewBox="0 0 64 64" version="1.1" xmlns="http://www.w3.org/2000/svg" xmlns:xlink="http://www.w3.org/1999/xlink" xml:space="preserve" xmlns:serif="http://www.serif.com/" style="fill-rule:evenodd;clip-rule:evenodd;stroke-linecap:round;stroke-linejoin:round;stroke-miterlimit:2;"><rect id="_95---Transaction" serif:id="95 - Transaction" x="0" y="0" width="64" height="64" style="fill:none;"/><path d="M53.5,17.365c0,-0.754 -0.611,-1.365 -1.365,-1.365l-29.27,0c-0.754,0 -1.365,0.611 -1.365,1.365l0,36.223c0,0.492 0.265,0.946 0.693,1.189c0.428,0.242 0.953,0.235 1.375,-0.018c1.383,-0.83 3.107,-1.864 4,-2.4c0.376,-0.225 0.837,-0.257 1.24,-0.084c1.727,0.74 6.454,2.766 8.11,3.476c0.369,0.158 0.789,0.145 1.148,-0.034c1.456,-0.728 5.32,-2.66 6.823,-3.412c0.385,-0.192 0.837,-0.192 1.222,0c1.14,0.57 3.637,1.819 5.413,2.707c0.423,0.212 0.926,0.189 1.328,-0.06c0.403,-0.249 0.648,-0.688 0.648,-1.161c0,-7.304 0,-30.539 0,-36.426Z" style="fill:none;stroke:currentColor;stroke-width:2px;"/><path d="M21.5,45c0,0 -1.001,-0.429 -1.692,-0.725c-0.403,-0.173 -0.864,-0.141 -1.24,0.084c-0.893,0.536 -2.617,1.57 -4,2.4c-0.422,0.253 -0.947,0.26 -1.375,0.018c-0.428,-0.243 -0.693,-0.697 -0.693,-1.189c0,-7.52 0,-30.39 0,-36.223c0,-0.754 0.611,-1.365 1.365,-1.365l29.27,0c0.754,0 1.365,0.611 1.365,1.365c0,1.159 0,2.635 0,2.635" style="fill:none;stroke:currentColor;stroke-width:2px;"/><path d="M40.524,20.713c1.98,1.499 1.966,4.859 -0.032,7.5c-1.997,2.641 -5.227,3.569 -7.208,2.07c-1.981,-1.498 -1.967,-4.859 0.031,-7.5c1.998,-2.641 5.228,-3.568 7.209,-2.07Z" style="fill:none;stroke:currentColor;stroke-width:2px;"/><path d="M33.284,30.283c0,0 0.804,-3.211 3.717,-4.084c2.912,-0.874 3.102,-5.758 3.102,-5.758" style="fill:none;stroke:currentColor;stroke-width:2px;"/><path d="M32,37l11,0" style="fill:none;stroke:currentColor;stroke-width:2px;"/><path d="M32,42l11,0" style="fill:none;stroke:currentColor;stroke-width:2px;"/><path d="M32,47l11,0" style="fill:none;stroke:currentColor;stroke-width:2px;"/></svg>
