<?xml version="1.0" encoding="UTF-8" standalone="no"?><!DOCTYPE svg PUBLIC "-//W3C//DTD SVG 1.1//EN" "http://www.w3.org/Graphics/SVG/1.1/DTD/svg11.dtd"><svg width="100%" height="100%" viewBox="0 0 64 64" version="1.1" xmlns="http://www.w3.org/2000/svg" xmlns:xlink="http://www.w3.org/1999/xlink" xml:space="preserve" xmlns:serif="http://www.serif.com/" style="fill-rule:evenodd;clip-rule:evenodd;stroke-linecap:round;stroke-linejoin:round;stroke-miterlimit:2;"><rect id="_44---Sausage" serif:id="44 - Sausage" x="0" y="0" width="64" height="64" style="fill:none;"/><path d="M38.045,22.556c2.158,-2.663 3.456,-5.816 3.645,-9.038c0.067,-1.158 -0.443,-2.274 -1.363,-2.98c-0.92,-0.706 -2.13,-0.911 -3.231,-0.546c-0.118,0.039 -0.235,0.077 -0.35,0.116c-1.424,0.471 -2.388,1.797 -2.399,3.297c0.068,1.15 -0.195,2.289 -0.669,3.365" style="fill:none;stroke:currentColor;stroke-width:2px;"/><path d="M23.302,23.313c-3.249,0.037 -6.239,-1.305 -8.008,-3.627c-0.899,-1.163 -2.435,-1.631 -3.83,-1.169c-0.125,0.005 -0.239,0.043 -0.354,0.081c-1.107,0.366 -1.959,1.259 -2.272,2.382c-0.313,1.123 -0.047,2.328 0.711,3.215c3.874,4.532 10.604,6.645 17.39,5.123" style="fill:none;stroke:currentColor;stroke-width:2px;"/><path d="M41.414,7.174l-2.166,1.826l-0.662,-1.997" style="fill:none;stroke:currentColor;stroke-width:2px;"/><path d="M5.738,19.418l2.827,0.172l-0.661,-1.997" style="fill:none;stroke:currentColor;stroke-width:2px;"/><path d="M52.903,23.336c1.104,0.366 1.955,1.256 2.269,2.376c0.315,1.119 0.053,2.323 -0.699,3.21c-4.256,4.981 -11.959,7.043 -19.397,4.58c-7.437,-2.463 -12.386,-8.716 -12.766,-15.256c-0.073,-1.141 0.426,-2.243 1.331,-2.941c0.905,-0.698 2.098,-0.901 3.182,-0.542c0.149,-0.015 0.278,0.028 0.405,0.07c1.415,0.469 2.378,1.784 2.398,3.275c-0.004,3.974 2.951,7.835 7.459,9.329c4.509,1.493 9.184,0.158 11.604,-2.994c0.89,-1.163 2.418,-1.634 3.808,-1.173c0.148,-0.019 0.276,0.023 0.406,0.066Z" style="fill:none;stroke:currentColor;stroke-width:2px;"/><path d="M22.586,12.172l2.166,1.825l0.662,-1.997" style="fill:none;stroke:currentColor;stroke-width:2px;"/><path d="M58.414,24.382l-2.828,0.172l0.662,-1.998" style="fill:none;stroke:currentColor;stroke-width:2px;"/><path d="M33.066,26.187l-0.661,1.997" style="fill:none;stroke:currentColor;stroke-width:2px;"/><path d="M37.061,27.51l-0.661,1.998" style="fill:none;stroke:currentColor;stroke-width:2px;"/><path d="M35.076,33.502l-7.521,22.712" style="fill:none;stroke:currentColor;stroke-width:2px;"/><path d="M41.056,28.833l-0.662,1.998" style="fill:none;stroke:currentColor;stroke-width:2px;"/><path d="M31.082,32.179c0,0 -0.859,2.594 -1.654,4.994c-0.351,1.06 -0.267,2.215 0.234,3.212c0.501,0.998 1.378,1.755 2.437,2.106c0.001,0 0.001,0 0.001,0c1.059,0.351 2.215,0.267 3.212,-0.234c0.997,-0.501 1.755,-1.378 2.106,-2.438c0.795,-2.4 1.653,-4.994 1.653,-4.994" style="fill:none;stroke:currentColor;stroke-width:2px;"/></svg>
