<?xml version="1.0" encoding="UTF-8" standalone="no"?><!DOCTYPE svg PUBLIC "-//W3C//DTD SVG 1.1//EN" "http://www.w3.org/Graphics/SVG/1.1/DTD/svg11.dtd"><svg width="100%" height="100%" viewBox="0 0 64 64" version="1.1" xmlns="http://www.w3.org/2000/svg" xmlns:xlink="http://www.w3.org/1999/xlink" xml:space="preserve" xmlns:serif="http://www.serif.com/" style="fill-rule:evenodd;clip-rule:evenodd;stroke-linecap:round;stroke-linejoin:round;stroke-miterlimit:2;"><rect id="_37---Satay" serif:id="37 - Satay" x="0" y="0" width="64" height="64" style="fill:none;"/><path d="M36.09,19.152c-2.418,2.417 -2.418,6.341 0,8.758c2.417,2.418 6.341,2.418 8.758,0c2.418,-2.417 2.418,-6.341 0,-8.758c-2.417,-2.418 -6.341,-2.418 -8.758,0Z" style="fill:none;stroke:currentColor;stroke-width:2px;"/><path d="M27.331,27.91c-2.417,2.418 -2.417,6.342 0,8.759c2.417,2.417 6.341,2.417 8.759,0c2.417,-2.417 2.417,-6.341 0,-8.759c-2.418,-2.417 -6.342,-2.417 -8.759,0Z" style="fill:none;stroke:currentColor;stroke-width:2px;"/><path d="M18.572,36.669c-2.417,2.417 -2.417,6.342 0,8.759c2.417,2.417 6.342,2.417 8.759,0c2.417,-2.417 2.417,-6.342 0,-8.759c-2.417,-2.417 -6.342,-2.417 -8.759,0Z" style="fill:none;stroke:currentColor;stroke-width:2px;"/><path d="M9.813,45.428c-2.417,2.417 -2.417,6.342 0,8.759c2.417,2.417 6.342,2.417 8.759,0c2.417,-2.417 2.417,-6.342 0,-8.759c-2.417,-2.417 -6.342,-2.417 -8.759,0Z" style="fill:none;stroke:currentColor;stroke-width:2px;"/><path d="M8,56l1.813,-1.813" style="fill:none;stroke:currentColor;stroke-width:2px;"/><path d="M44.848,19.152l11.152,-11.152" style="fill:none;stroke:currentColor;stroke-width:2px;"/><path d="M11.884,50.326l1.464,0.585" style="fill:none;stroke:currentColor;stroke-width:2px;"/><path d="M32,32l0,1.111" style="fill:none;stroke:currentColor;stroke-width:2px;"/></svg>
