<?xml version="1.0" encoding="UTF-8" standalone="no"?><!DOCTYPE svg PUBLIC "-//W3C//DTD SVG 1.1//EN" "http://www.w3.org/Graphics/SVG/1.1/DTD/svg11.dtd"><svg width="100%" height="100%" viewBox="0 0 64 64" version="1.1" xmlns="http://www.w3.org/2000/svg" xmlns:xlink="http://www.w3.org/1999/xlink" xml:space="preserve" xmlns:serif="http://www.serif.com/" style="fill-rule:evenodd;clip-rule:evenodd;stroke-linecap:round;stroke-linejoin:round;stroke-miterlimit:2;"><rect id="_17---Potato-Sticks" serif:id="17 - Potato Sticks" x="0" y="0" width="64" height="64" style="fill:none;"/><path d="M32,32l-17,-9c0,0 2.908,22.578 3.913,30.383c0.193,1.497 1.467,2.617 2.975,2.617c4.895,0 15.329,0 20.224,0c1.508,0 2.782,-1.12 2.975,-2.617c1.005,-7.805 3.913,-30.383 3.913,-30.383l-31.875,16.875" style="fill:none;stroke:currentColor;stroke-width:2px;"/><path d="M24.5,28.029l-5,-2.647l0,-15.382l5,0l0,18.029Z" style="fill:none;stroke:currentColor;stroke-width:2px;"/><path d="M29.5,30.676l-5,-2.647l0,-14.029l5,0l0,16.676Z" style="fill:none;stroke:currentColor;stroke-width:2px;"/><path d="M39.5,28.029l-5,2.647l0,-13.676l5,0l0,11.029Z" style="fill:none;stroke:currentColor;stroke-width:2px;"/><path d="M32,32l-2.5,-1.324l0,-22.676l5,0l0,22.676l-2.5,1.324Z" style="fill:none;stroke:currentColor;stroke-width:2px;"/><path d="M44.5,25.382l-5,2.647l0,-16.029l5,0l0,13.382Z" style="fill:none;stroke:currentColor;stroke-width:2px;"/></svg>
