<?xml version="1.0" encoding="UTF-8" standalone="no"?><!DOCTYPE svg PUBLIC "-//W3C//DTD SVG 1.1//EN" "http://www.w3.org/Graphics/SVG/1.1/DTD/svg11.dtd"><svg width="100%" height="100%" viewBox="0 0 64 64" version="1.1" xmlns="http://www.w3.org/2000/svg" xmlns:xlink="http://www.w3.org/1999/xlink" xml:space="preserve" xmlns:serif="http://www.serif.com/" style="fill-rule:evenodd;clip-rule:evenodd;stroke-linecap:round;stroke-linejoin:round;stroke-miterlimit:2;"><rect id="_29---Egg" serif:id="29 - Egg" x="0" y="0" width="64" height="64" style="fill:none;"/><path d="M20.252,14.553c7.564,0 13.704,13.627 13.704,21.19c0,7.563 -6.14,13.704 -13.704,13.704c-7.563,0 -13.703,-6.141 -13.703,-13.704c0,-7.563 6.14,-21.19 13.703,-21.19Z" style="fill:none;stroke:currentColor;stroke-width:2px;"/><path d="M33.462,28.875c3.598,-5.682 14.692,-12.999 20.374,-9.401c5.682,3.597 3.814,16.755 0.217,22.437c-3.598,5.682 -11.132,7.375 -16.814,3.777" style="fill:none;stroke:currentColor;stroke-width:2px;"/><path d="M49.431,26.431c2.666,1.688 1.79,7.862 0.102,10.528c-1.688,2.666 -5.223,3.46 -7.889,1.772c-2.666,-1.688 -3.46,-5.223 -1.772,-7.889c1.688,-2.666 6.893,-6.099 9.559,-4.411Z" style="fill:none;stroke:currentColor;stroke-width:2px;"/><path d="M24.515,42.089c0,0 4.93,-2.467 3.652,-10.089" style="fill:none;stroke:currentColor;stroke-width:2px;"/></svg>
