<?xml version="1.0" encoding="UTF-8" standalone="no"?><!DOCTYPE svg PUBLIC "-//W3C//DTD SVG 1.1//EN" "http://www.w3.org/Graphics/SVG/1.1/DTD/svg11.dtd"><svg width="100%" height="100%" viewBox="0 0 64 64" version="1.1" xmlns="http://www.w3.org/2000/svg" xmlns:xlink="http://www.w3.org/1999/xlink" xml:space="preserve" xmlns:serif="http://www.serif.com/" style="fill-rule:evenodd;clip-rule:evenodd;stroke-linecap:round;stroke-linejoin:round;stroke-miterlimit:2;"><rect id="_93---Jug" serif:id="93 - Jug" x="0" y="0" width="64" height="64" style="fill:none;"/><path d="M30.989,53.734c3.442,0 6.931,0 9.797,0c1.739,0 3.407,-0.691 4.637,-1.921c1.23,-1.23 1.92,-2.898 1.92,-4.637c0,-8.575 0,-23.208 0,-29.182c0,-1.468 -1.19,-2.659 -2.658,-2.659c-8.478,0 -34.318,0 -34.318,0l5.689,5.689l0,16.71" style="fill:none;stroke:currentColor;stroke-width:2px;"/><path d="M37.388,22.802l0,26.665" style="fill:none;stroke:currentColor;stroke-width:2px;"/><path d="M35.255,47.867l6.4,0" style="fill:none;stroke:currentColor;stroke-width:2px;"/><path d="M35.255,42.001l6.4,0" style="fill:none;stroke:currentColor;stroke-width:2px;"/><path d="M35.255,36.134l6.4,0" style="fill:none;stroke:currentColor;stroke-width:2px;"/><path d="M35.255,24.402l6.4,0" style="fill:none;stroke:currentColor;stroke-width:2px;"/><path d="M47.521,46.267l3.791,0c0.833,0 1.633,-0.331 2.222,-0.92c0.589,-0.589 0.92,-1.389 0.92,-2.222c0,-4.708 0,-13.54 0,-18.248c0,-0.833 -0.331,-1.632 -0.92,-2.222c-0.589,-0.589 -1.389,-0.92 -2.222,-0.92c-1.834,0 -3.791,0 -3.791,0" style="fill:none;stroke:currentColor;stroke-width:2px;"/><path d="M22.845,37.673c-1.848,4.904 -1.525,6.454 -7.044,11.274c-2.508,2.192 -3.669,4.965 -4.133,7.541l-0.179,-0.07c-3.504,-2.023 -3.885,-7.93 -0.852,-13.183c3.033,-5.254 8.339,-7.877 11.842,-5.854l0.366,0.292Z" style="fill:none;stroke:currentColor;stroke-width:2px;"/><path d="M25.453,38.578c3.161,2.173 3.405,7.835 0.486,12.891c-2.99,5.18 -8.191,7.802 -11.663,5.924c0.464,-2.575 1.624,-5.349 4.133,-7.54c5.519,-4.821 5.196,-6.371 7.044,-11.275Z" style="fill:none;stroke:currentColor;stroke-width:2px;"/><path d="M48.196,6.628c1.581,-1.258 4.226,-0.567 5.904,1.541c1.677,2.109 1.755,4.842 0.173,6.1c-1.581,1.258 -4.227,0.567 -5.904,-1.541c-1.677,-2.109 -1.755,-4.842 -0.173,-6.1Z" style="fill:none;stroke:currentColor;stroke-width:2px;"/><path d="M54.273,14.269c0,0 -2.367,-1.284 -2.467,-3.755c-0.1,-2.472 -3.91,-3.609 -3.91,-3.609" style="fill:none;stroke:currentColor;stroke-width:2px;"/><path d="M16,29c0,0 8.398,-6.133 13.5,-1.5c6.843,6.214 14.295,3.753 17.559,1.5" style="fill:none;stroke:currentColor;stroke-width:2px;"/></svg>
