<?xml version="1.0" encoding="UTF-8" standalone="no"?><!DOCTYPE svg PUBLIC "-//W3C//DTD SVG 1.1//EN" "http://www.w3.org/Graphics/SVG/1.1/DTD/svg11.dtd"><svg width="100%" height="100%" viewBox="0 0 64 64" version="1.1" xmlns="http://www.w3.org/2000/svg" xmlns:xlink="http://www.w3.org/1999/xlink" xml:space="preserve" xmlns:serif="http://www.serif.com/" style="fill-rule:evenodd;clip-rule:evenodd;stroke-linecap:round;stroke-linejoin:round;stroke-miterlimit:2;"><rect id="_34---Cake" serif:id="34 - Cake" x="0" y="0" width="64" height="64" style="fill:none;"/><path d="M58.332,25.081c0,3.69 -4.032,6.964 -10.24,8.996" style="fill:none;stroke:currentColor;stroke-width:2px;"/><path d="M32,36.239c-4.632,0 -8.973,-0.561 -12.697,-1.539" style="fill:none;stroke:currentColor;stroke-width:2px;"/><path d="M7.375,36.508c-1.064,-0.684 -1.707,-1.862 -1.707,-3.127c0,-3.048 0,-8.452 0,-8.452c0,-6.471 11.799,-11.725 26.332,-11.725c14.533,0 26.332,5.254 26.332,11.725l0,10.194c0,0.658 -0.29,1.283 -0.794,1.706c-0.503,0.424 -1.168,0.604 -1.816,0.492c-0.524,-0.091 -1.07,-0.185 -1.581,-0.274c-1.428,-0.247 -2.89,0.189 -3.95,1.178c0,0 0,0.001 0,0.001c-3.088,2.884 -7.19,4.432 -11.413,4.307c-2.153,-0.063 -4.456,-0.131 -6.273,-0.184c-2.246,-0.066 -4.463,-0.514 -6.558,-1.326c-0.526,-0.203 -1.066,-0.412 -1.576,-0.61c-1.628,-0.631 -3.469,-0.346 -4.831,0.747c0,0 -0.001,0.001 -0.001,0.001c-1.309,1.05 -3.141,1.146 -4.553,0.239c-2.256,-1.45 -5.602,-3.601 -7.611,-4.892Z" style="fill:none;stroke:currentColor;stroke-width:2px;"/><path d="M6.942,36.167c0.157,0.142 0.327,0.273 0.509,0.39c2.009,1.291 5.284,3.396 7.512,4.828c1.425,0.916 3.276,0.819 4.597,-0.241c0.001,-0.001 0.001,-0.001 0.001,-0.001c1.349,-1.083 3.172,-1.365 4.785,-0.74c0.487,0.189 1.001,0.388 1.505,0.583c2.158,0.836 4.443,1.298 6.756,1.366c1.804,0.053 4.065,0.12 6.181,0.182c4.217,0.124 8.312,-1.422 11.395,-4.301c0,0 0,0 0,0c1.065,-0.994 2.534,-1.433 3.969,-1.184c0.369,0.064 0.756,0.131 1.139,0.197c0.614,0.106 1.24,-0.012 1.767,-0.324l0,2.716c0,6.159 -11.228,11.158 -25.058,11.158c-11.627,0 -21.415,-3.534 -24.238,-8.319c-0.535,-0.906 -0.82,-1.858 -0.82,-2.839l0,-3.471Z" style="fill:none;stroke:currentColor;stroke-width:2px;"/><path d="M51.822,22.542l0.182,1.82" style="fill:none;stroke:currentColor;stroke-width:2px;"/><path d="M13.689,26.364l-1.092,-1.456" style="fill:none;stroke:currentColor;stroke-width:2px;"/></svg>
