<?xml version="1.0" encoding="UTF-8" standalone="no"?><!DOCTYPE svg PUBLIC "-//W3C//DTD SVG 1.1//EN" "http://www.w3.org/Graphics/SVG/1.1/DTD/svg11.dtd"><svg width="100%" height="100%" viewBox="0 0 64 64" version="1.1" xmlns="http://www.w3.org/2000/svg" xmlns:xlink="http://www.w3.org/1999/xlink" xml:space="preserve" xmlns:serif="http://www.serif.com/" style="fill-rule:evenodd;clip-rule:evenodd;stroke-linecap:round;stroke-linejoin:round;stroke-miterlimit:2;"><rect id="_23---Donuts" serif:id="23 - Donuts" x="0" y="0" width="64" height="64" style="fill:none;"/><path d="M24.38,40.23c-2.446,3.735 -6.705,4.752 -11.566,4.187c0,0 0,0 0,0c-2.619,-0.305 -4.807,-2.137 -5.567,-4.661c-0.596,-2.327 -0.959,-4.763 -0.959,-7.283c0,-14.229 11.553,-25.782 25.782,-25.782c5.866,0 11.276,1.963 15.61,5.268c4.042,3.126 5.317,8.671 3.046,13.248c-0.493,1.118 -0.757,2.574 -0.803,4.468c-0.155,6.332 -2.562,8.441 -6.863,4.211c0.104,-0.613 0.158,-1.243 0.158,-1.886c0,-6.191 -5.027,-11.218 -11.218,-11.218c-6.191,0 -11.218,5.027 -11.218,11.218c0,3.251 1.386,6.18 3.598,8.23Z" style="fill:none;stroke:currentColor;stroke-width:2px;"/><path d="M41.834,18.146l1.48,1.735" style="fill:none;stroke:currentColor;stroke-width:2px;"/><path d="M51.595,18.146c2.774,3.914 4.405,8.695 4.405,13.854c0,13.246 -10.754,24 -24,24c-8.863,0 -16.61,-4.814 -20.767,-11.969" style="fill:none;stroke:currentColor;stroke-width:2px;"/><path d="M11.233,39.314l0,-2.241" style="fill:none;stroke:currentColor;stroke-width:2px;"/><path d="M27.717,14.075l-1.936,0.227" style="fill:none;stroke:currentColor;stroke-width:2px;"/><circle cx="32" cy="32" r="11.218" style="fill:none;stroke:currentColor;stroke-width:2px;"/></svg>
