<?xml version="1.0" encoding="UTF-8" standalone="no"?><!DOCTYPE svg PUBLIC "-//W3C//DTD SVG 1.1//EN" "http://www.w3.org/Graphics/SVG/1.1/DTD/svg11.dtd"><svg width="100%" height="100%" viewBox="0 0 64 64" version="1.1" xmlns="http://www.w3.org/2000/svg" xmlns:xlink="http://www.w3.org/1999/xlink" xml:space="preserve" xmlns:serif="http://www.serif.com/" style="fill-rule:evenodd;clip-rule:evenodd;stroke-linecap:round;stroke-linejoin:round;stroke-miterlimit:2;"><rect id="_71---Roasted-Meat" serif:id="71 - Roasted Meat" x="0" y="0" width="64" height="64" style="fill:none;"/><path d="M40.597,31.835c-1.715,-0.212 -3.37,-0.76 -4.872,-1.613c-0.92,-0.522 -2.053,-1.165 -3.275,-1.858c-6.908,-3.921 -15.233,-4.45 -22.582,-1.437c0,0.001 -0.001,0.001 -0.001,0.001c-2.142,0.878 -3.177,3.318 -2.32,5.469c0.342,0.857 0.711,1.785 1.079,2.707c1.553,3.899 4.785,6.886 8.793,8.129c0.658,0.204 1.335,0.414 2.012,0.624c5.594,1.735 11.57,1.823 17.213,0.255c0.402,-0.112 0.789,-0.22 1.154,-0.321c1.87,-0.52 3.814,-0.719 5.75,-0.59c1.993,0.133 4.637,0.309 6.721,0.448c2.128,0.142 4.195,-0.744 5.56,-2.382c0.002,-0.003 0.005,-0.006 0.007,-0.009c1.254,-1.504 1.254,-3.689 0,-5.193c0,0 0,0 0,0c-1.401,-1.681 -3.389,-2.766 -5.56,-3.034c-2.904,-0.359 -7.029,-0.869 -9.679,-1.196Z" style="fill:none;stroke:currentColor;stroke-width:2px;"/><path d="M7.259,30.514c-0.048,0.622 0.042,6.545 0.288,7.164c0.342,0.857 0.711,1.785 1.079,2.707c1.553,3.898 4.785,6.886 8.793,8.129c0.658,0.204 1.335,0.414 2.012,0.624c5.594,1.734 11.57,1.823 17.213,0.254c0.402,-0.111 0.789,-0.219 1.154,-0.32c1.87,-0.52 3.814,-0.719 5.75,-0.59c1.993,0.132 4.637,0.309 6.721,0.448c2.128,0.141 4.195,-0.744 5.56,-2.382c0.002,-0.003 0.005,-0.006 0.007,-0.009c0.66,-0.792 0.973,-7.054 0.938,-8.025" style="fill:none;stroke:currentColor;stroke-width:2px;"/><path d="M38.5,43.264l5,-4.722" style="fill:none;stroke:currentColor;stroke-width:2px;"/><path d="M46.958,35.222l1.5,-1.416" style="fill:none;stroke:currentColor;stroke-width:2px;"/><path d="M25.5,41.514l9,-8.5" style="fill:none;stroke:currentColor;stroke-width:2px;"/><path d="M17.531,19.993c0,0 0.394,-2.974 -0.562,-6.5" style="fill:none;stroke:currentColor;stroke-width:2px;"/><path d="M46.469,19.993c0,0 -0.394,-2.974 0.562,-6.5" style="fill:none;stroke:currentColor;stroke-width:2px;"/><path d="M27.092,19.993c0,0 0.394,-2.974 -0.561,-6.5" style="fill:none;stroke:currentColor;stroke-width:2px;"/><path d="M36.908,19.993c0,0 -0.394,-2.974 0.561,-6.5" style="fill:none;stroke:currentColor;stroke-width:2px;"/></svg>
