<?xml version="1.0" encoding="UTF-8" standalone="no"?><!DOCTYPE svg PUBLIC "-//W3C//DTD SVG 1.1//EN" "http://www.w3.org/Graphics/SVG/1.1/DTD/svg11.dtd"><svg width="100%" height="100%" viewBox="0 0 64 64" version="1.1" xmlns="http://www.w3.org/2000/svg" xmlns:xlink="http://www.w3.org/1999/xlink" xml:space="preserve" xmlns:serif="http://www.serif.com/" style="fill-rule:evenodd;clip-rule:evenodd;stroke-linecap:round;stroke-linejoin:round;stroke-miterlimit:2;"><rect id="_85---Beverage" serif:id="85 - Beverage" x="0" y="0" width="64" height="64" style="fill:none;"/><path d="M35.475,18.581c0.199,-0.348 0.197,-0.774 -0.004,-1.12c-0.2,-0.346 -0.57,-0.559 -0.97,-0.559c-5.209,0 -19.496,0 -24.705,0c-0.4,0 -0.77,0.213 -0.971,0.559c-0.2,0.346 -0.202,0.772 -0.003,1.12c3.202,5.604 13.326,23.321 13.326,23.321c0,0 10.125,-17.717 13.327,-23.321Z" style="fill:none;stroke:currentColor;stroke-width:2px;"/><path d="M22.148,41.402l0,11" style="fill:none;stroke:currentColor;stroke-width:2px;"/><path d="M16.934,52.902l10.5,0" style="fill:none;stroke:currentColor;stroke-width:2px;"/><path d="M11.837,23.858c4.913,2.505 5.254,-0.307 12.526,-1.456c3.885,-0.613 6.321,0.541 7.815,1.949" style="fill:none;stroke:currentColor;stroke-width:2px;"/><path d="M34.737,22.164c1.703,0.271 3.508,-0.249 4.82,-1.56c2.173,-2.174 2.173,-5.703 0,-7.876c-2.173,-2.174 -5.702,-2.174 -7.876,0" style="fill:none;stroke:currentColor;stroke-width:2px;"/><path d="M34.155,41.121c0,0 1.283,5.899 2.033,9.348c0.309,1.42 1.566,2.433 3.019,2.433l9.486,0c1.447,0 2.7,-1.005 3.015,-2.417c0.768,-3.448 2.086,-9.364 2.086,-9.364" style="fill:none;stroke:currentColor;stroke-width:2px;"/><path d="M40.184,30.847c-0.368,-0.087 -0.708,-0.274 -0.979,-0.546c-0.385,-0.385 -0.601,-0.797 -0.601,-1.341c0,-0.001 0,-0.002 0,-0.003c0,-0.544 0.216,-1.066 0.601,-1.451c0.385,-0.385 0.907,-0.601 1.451,-0.601c1.907,0 4.73,0 6.637,0c0.544,0 1.066,0.216 1.451,0.601c0.385,0.385 0.601,0.907 0.601,1.451c0,0.001 0,0.002 0,0.003c0,0.544 -0.216,0.956 -0.601,1.341c-0.271,0.272 -0.611,0.459 -0.978,0.546l0,0.055l2.685,0c0.67,0 1.313,0.267 1.787,0.741c0.474,0.474 0.74,1.116 0.74,1.787c0,0 0,0 0,0c0,0.67 -0.266,1.258 -0.74,1.732c-0.361,0.361 -0.819,0.601 -1.313,0.696l0,0.044l2.685,0c0.67,0 1.313,0.267 1.787,0.741c0.474,0.474 0.74,1.28 0.74,1.951c0,0 0,0 0,0c0,0.67 -0.266,1.313 -0.74,1.787c-0.474,0.474 -1.117,0.74 -1.787,0.74l-2.718,0c-2.425,0 -4.39,1.965 -4.39,4.39c0,0.284 0,0.559 0,0.813c0,0.419 -0.166,0.82 -0.462,1.116c-0.296,0.296 -0.698,0.462 -1.116,0.462c-0.001,0 -0.002,0 -0.003,0c-0.419,0 -0.82,-0.166 -1.116,-0.462c-0.296,-0.296 -0.462,-0.697 -0.462,-1.116c0,-0.254 0,-0.529 0,-0.813c0,-2.425 -1.966,-4.39 -4.39,-4.39c-1.781,0 -3.644,0 -4.614,0c-0.67,0 -1.313,-0.266 -1.787,-0.74c-0.474,-0.474 -0.74,-1.117 -0.74,-1.787c0,0 0,0 0,0c0,-0.671 0.266,-1.477 0.74,-1.951c0.474,-0.474 1.117,-0.741 1.787,-0.741l2.685,0l0,-0.044c-0.494,-0.095 -0.952,-0.335 -1.313,-0.696c-0.474,-0.474 -0.74,-1.062 -0.74,-1.732c0,0 0,0 0,0c0,-0.671 0.266,-1.313 0.74,-1.787c0.474,-0.474 1.117,-0.741 1.787,-0.741l2.686,0l0,-0.055Z" style="fill:none;stroke:currentColor;stroke-width:2px;"/><path d="M37.044,35.902l6.319,0" style="fill:none;stroke:currentColor;stroke-width:2px;"/><path d="M51.241,35.902l-1.896,0" style="fill:none;stroke:currentColor;stroke-width:2px;"/><path d="M44.29,30.902l3.791,0" style="fill:none;stroke:currentColor;stroke-width:2px;"/><circle cx="43.975" cy="24.693" r="2.211" style="fill:none;stroke:currentColor;stroke-width:2px;"/><path d="M43.975,22.482l0.315,-1.58" style="fill:none;stroke:currentColor;stroke-width:2px;"/></svg>
