<?xml version="1.0" encoding="UTF-8" standalone="no"?><!DOCTYPE svg PUBLIC "-//W3C//DTD SVG 1.1//EN" "http://www.w3.org/Graphics/SVG/1.1/DTD/svg11.dtd"><svg width="100%" height="100%" viewBox="0 0 64 64" version="1.1" xmlns="http://www.w3.org/2000/svg" xmlns:xlink="http://www.w3.org/1999/xlink" xml:space="preserve" xmlns:serif="http://www.serif.com/" style="fill-rule:evenodd;clip-rule:evenodd;stroke-linecap:round;stroke-linejoin:round;stroke-miterlimit:2;"><rect id="_49---Popcorn" serif:id="49 - Popcorn" x="0" y="0" width="64" height="64" style="fill:none;"/><path d="M52.746,34.727c0,0 1.442,-6.663 2.349,-10.849c0.175,-0.808 -0.026,-1.653 -0.545,-2.297c-0.519,-0.644 -1.302,-1.018 -2.13,-1.018c-8.762,0 -32.078,0 -40.84,0c-0.828,0 -1.611,0.374 -2.13,1.018c-0.519,0.644 -0.72,1.489 -0.545,2.297c1.494,6.899 4.914,22.698 6.327,29.222c0.366,1.692 1.863,2.9 3.595,2.9c4.661,0 13.173,0 13.173,0" style="fill:none;stroke:currentColor;stroke-width:2px;"/><path d="M11.338,20.563c-0.008,-0.125 -0.012,-0.252 -0.012,-0.38c0,-2.942 2.243,-5.33 5.007,-5.33c0.936,0 1.813,0.274 2.563,0.752c-0.006,-0.108 -0.009,-0.217 -0.009,-0.326c0,-2.942 2.243,-5.33 5.007,-5.33c1.142,0 2.195,0.408 3.038,1.094c0.804,-1.799 2.528,-3.043 4.523,-3.043c1.994,0 3.718,1.244 4.523,3.043c0.843,-0.686 1.896,-1.094 3.038,-1.094c2.763,0 5.007,2.388 5.007,5.33c0,0.109 -0.003,0.218 -0.01,0.326c0.751,-0.478 1.627,-0.752 2.564,-0.752c2.763,0 5.007,2.388 5.007,5.33c0,0.128 -0.004,0.255 -0.013,0.38" style="fill:none;stroke:currentColor;stroke-width:2px;"/><path d="M25.632,12.953c0,0 1.068,-2.833 4.087,-1.718" style="fill:none;stroke:currentColor;stroke-width:2px;"/><path d="M38.096,17.044c0,0 3.529,-0.464 4.133,3.111" style="fill:none;stroke:currentColor;stroke-width:2px;"/><path d="M54.165,36.727c0,-0.531 -0.211,-1.039 -0.586,-1.415c-0.375,-0.375 -0.883,-0.585 -1.414,-0.585c-3.891,0 -12.439,0 -16.33,0c-0.531,0 -1.039,0.21 -1.414,0.585c-0.375,0.376 -0.586,0.884 -0.586,1.415c0,0.504 0,1.045 0,1.549c0,0.531 0.211,1.039 0.586,1.415c0.375,0.375 0.883,0.585 1.414,0.585c3.891,0 12.439,0 16.33,0c0.531,0 1.039,-0.21 1.414,-0.585c0.375,-0.376 0.586,-0.884 0.586,-1.415c0,-0.504 0,-1.045 0,-1.549Z" style="fill:none;stroke:currentColor;stroke-width:2px;"/><path d="M52.746,40.276l-17.492,0c0,0 0.873,9.753 1.244,13.897c0.092,1.034 0.959,1.827 1.997,1.827c2.82,0 8.19,0 11.01,0c1.038,0 1.905,-0.793 1.997,-1.827c0.371,-4.144 1.244,-13.897 1.244,-13.897Z" style="fill:none;stroke:currentColor;stroke-width:2px;"/></svg>
