<?xml version="1.0" encoding="UTF-8" standalone="no"?><!DOCTYPE svg PUBLIC "-//W3C//DTD SVG 1.1//EN" "http://www.w3.org/Graphics/SVG/1.1/DTD/svg11.dtd"><svg width="100%" height="100%" viewBox="0 0 64 64" version="1.1" xmlns="http://www.w3.org/2000/svg" xmlns:xlink="http://www.w3.org/1999/xlink" xml:space="preserve" xmlns:serif="http://www.serif.com/" style="fill-rule:evenodd;clip-rule:evenodd;stroke-linecap:round;stroke-linejoin:round;stroke-miterlimit:2;"><rect id="_06---Sauce-and-Ketchup" serif:id="06 - Sauce and Ketchup" x="0" y="0" width="64" height="64" style="fill:none;"/><path d="M56,25.963c0,-1.061 -0.421,-2.079 -1.172,-2.829c-0.75,-0.75 -1.767,-1.171 -2.828,-1.171c-3.234,0 -7.766,0 -11,0c-1.061,0 -2.078,0.421 -2.828,1.171c-0.751,0.75 -1.172,1.768 -1.172,2.829c0,7.139 0,21.921 0,28.266c0,0.795 0.316,1.558 0.879,2.121c0.562,0.563 1.325,0.879 2.121,0.879c3.555,0 9.445,0 13,0c0.796,0 1.559,-0.316 2.121,-0.879c0.563,-0.563 0.879,-1.326 0.879,-2.121c0,-6.345 0,-21.127 0,-28.266Z" style="fill:none;stroke:currentColor;stroke-width:2px;"/><path d="M31.02,27.175l-6.02,0c-1.061,0 -2.078,0.421 -2.828,1.172c-0.751,0.75 -1.172,1.767 -1.172,2.828c0,6.105 0,17.61 0,23.054c0,0.795 0.316,1.558 0.879,2.121c0.562,0.563 1.325,0.879 2.121,0.879c5.621,0 17.179,0 17.179,0" style="fill:none;stroke:currentColor;stroke-width:2px;"/><path d="M52,19.537c0,-1.657 -1.343,-3 -3,-3l-5,0c-1.657,0 -3,1.343 -3,3l0,2.426l11,0l0,-2.426Z" style="fill:none;stroke:currentColor;stroke-width:2px;"/><path d="M33.386,25.551c0,-0.795 -0.316,-1.558 -0.878,-2.121c-0.563,-0.563 -1.326,-0.879 -2.122,-0.879c-1.04,0 -2.206,0 -3.247,0c-0.796,0 -1.559,0.316 -2.121,0.879c-0.563,0.563 -0.879,1.326 -0.879,2.121c0,0.886 0,1.624 0,1.624l9.247,0l0,-1.624Z" style="fill:none;stroke:currentColor;stroke-width:2px;"/><path d="M48.104,16.537c0,0 -0.655,-3.987 -1.128,-6.866c-0.038,-0.233 -0.24,-0.405 -0.476,-0.405c-0.236,0 -0.438,0.172 -0.476,0.405c-0.473,2.879 -1.128,6.866 -1.128,6.866" style="fill:none;stroke:currentColor;stroke-width:2px;"/><path d="M30.925,22.551c0,0 -0.893,-3.847 -1.464,-6.31c-0.051,-0.217 -0.244,-0.371 -0.467,-0.371c-0.223,0 -0.417,0.154 -0.467,0.371c-0.571,2.463 -1.464,6.31 -1.464,6.31" style="fill:none;stroke:currentColor;stroke-width:2px;"/><path d="M16.854,57.229l-2,0l0,-5.099c0.641,0.227 1.31,0.393 2,0.492" style="fill:none;stroke:currentColor;stroke-width:2px;"/><path d="M16.854,52.622c-4.761,-0.699 -8.496,-4.675 -8.953,-9.622l8.953,0" style="fill:none;stroke:currentColor;stroke-width:2px;"/><path d="M11.354,42.729c0,0 0.28,-6.5 5.5,-6.5" style="fill:none;stroke:currentColor;stroke-width:2px;"/><circle cx="46.604" cy="39.596" r="4" style="fill:none;stroke:currentColor;stroke-width:2px;"/><path d="M27.139,53.229l-1.864,0c-0.302,0 -0.59,-0.12 -0.803,-0.333c-0.213,-0.213 -0.333,-0.502 -0.333,-0.803c0,-1.558 0,-4.168 0,-4.168" style="fill:none;stroke:currentColor;stroke-width:2px;"/></svg>
