<?xml version="1.0" encoding="UTF-8" standalone="no"?><!DOCTYPE svg PUBLIC "-//W3C//DTD SVG 1.1//EN" "http://www.w3.org/Graphics/SVG/1.1/DTD/svg11.dtd"><svg width="100%" height="100%" viewBox="0 0 64 64" version="1.1" xmlns="http://www.w3.org/2000/svg" xmlns:xlink="http://www.w3.org/1999/xlink" xml:space="preserve" xmlns:serif="http://www.serif.com/" style="fill-rule:evenodd;clip-rule:evenodd;stroke-linecap:round;stroke-linejoin:round;stroke-miterlimit:2;"><rect id="_92---Board" serif:id="92 - Board" x="0" y="0" width="64" height="64" style="fill:none;"/><path d="M20,23l-9.681,0c0,0.842 -0.334,1.649 -0.93,2.244c-0.595,0.596 -1.402,0.93 -2.244,0.93c0,4.999 0,14.653 0,19.652c0.842,0 1.649,0.334 2.244,0.93c0.596,0.595 0.93,1.402 0.93,2.244c8.963,0 34.399,0 43.362,0c0,-0.842 0.334,-1.649 0.93,-2.244c0.595,-0.596 1.402,-0.93 2.244,-0.93c0,-4.999 0,-14.653 0,-19.652c-0.842,0 -1.649,-0.334 -2.244,-0.93c-0.596,-0.595 -0.93,-1.402 -0.93,-2.244c-2.54,0 -5.681,0 -5.681,0" style="fill:none;stroke:currentColor;stroke-width:2px;"/><path d="M43.5,23l-18.5,0" style="fill:none;stroke:currentColor;stroke-width:2px;"/><circle cx="32" cy="11" r="2.536" style="fill:none;stroke:currentColor;stroke-width:2px;"/><path d="M36,33l-11,0l0,5.872c0,3.038 2.462,5.5 5.5,5.5c3.038,0 5.5,-2.462 5.5,-5.5c0,-2.904 0,-5.872 0,-5.872Z" style="fill:none;stroke:currentColor;stroke-width:2px;"/><path d="M35.521,33l3.409,0c0.424,0 0.783,0.313 0.841,0.733c0.204,1.645 0.256,5.483 -3.771,5.483" style="fill:none;stroke:currentColor;stroke-width:2px;"/><path d="M26.231,29.322l0,-1.694" style="fill:none;stroke:currentColor;stroke-width:2px;"/><path d="M30.365,29.322l0,-1.694" style="fill:none;stroke:currentColor;stroke-width:2px;"/><path d="M34.5,29.322l0,-1.694" style="fill:none;stroke:currentColor;stroke-width:2px;"/><path d="M24.277,44.372l12.176,0" style="fill:none;stroke:currentColor;stroke-width:2px;"/><path d="M17,27l12.896,-14.586" style="fill:none;stroke:currentColor;stroke-width:2px;"/><path d="M34.161,12.327l12.839,14.673" style="fill:none;stroke:currentColor;stroke-width:2px;"/></svg>
