<?xml version="1.0" encoding="UTF-8" standalone="no"?><!DOCTYPE svg PUBLIC "-//W3C//DTD SVG 1.1//EN" "http://www.w3.org/Graphics/SVG/1.1/DTD/svg11.dtd"><svg width="100%" height="100%" viewBox="0 0 64 64" version="1.1" xmlns="http://www.w3.org/2000/svg" xmlns:xlink="http://www.w3.org/1999/xlink" xml:space="preserve" xmlns:serif="http://www.serif.com/" style="fill-rule:evenodd;clip-rule:evenodd;stroke-linecap:round;stroke-linejoin:round;stroke-miterlimit:2;"><rect id="_16---Sushi" serif:id="16 - Sushi" x="0" y="0" width="64" height="64" style="fill:none;"/><ellipse cx="20.05" cy="14.415" rx="11.476" ry="5.11" style="fill:none;stroke:currentColor;stroke-width:2px;"/><ellipse cx="20.05" cy="14.415" rx="3.873" ry="1.724" style="fill:none;stroke:currentColor;stroke-width:2px;"/><path d="M31.526,26.03l0,3.147c0,2.821 -5.142,5.111 -11.476,5.111c-2.158,0 -4.178,-0.266 -5.903,-0.728" style="fill:none;stroke:currentColor;stroke-width:2px;"/><ellipse cx="46.875" cy="35.431" rx="11.125" ry="4.954" style="fill:none;stroke:currentColor;stroke-width:2px;"/><ellipse cx="46.875" cy="35.431" rx="3.754" ry="1.672" style="fill:none;stroke:currentColor;stroke-width:2px;"/><path d="M58,35.431l0,14.311c0,2.734 -4.985,4.954 -11.125,4.954c-5.162,0 -9.507,-1.569 -10.76,-3.694c-0.238,-0.402 -0.364,-0.825 -0.364,-1.26l0,-14.311c0,-2.734 4.984,-4.953 11.124,-4.953c6.14,0 11.125,2.219 11.125,4.953Z" style="fill:none;stroke:currentColor;stroke-width:2px;"/><path d="M8.949,30.478c-0.245,-0.416 -0.375,-0.851 -0.375,-1.301l0,-14.762c0,-2.821 5.142,-5.111 11.476,-5.111c6.334,0 11.476,2.29 11.476,5.111l0,6.457" style="fill:none;stroke:currentColor;stroke-width:2px;"/><path d="M52.708,11.859l-46.708,19.874" style="fill:none;stroke:currentColor;stroke-width:2px;"/><path d="M51.551,17.451l-20.025,2.388" style="fill:none;stroke:currentColor;stroke-width:2px;"/></svg>
