<?xml version="1.0" encoding="UTF-8" standalone="no"?><!DOCTYPE svg PUBLIC "-//W3C//DTD SVG 1.1//EN" "http://www.w3.org/Graphics/SVG/1.1/DTD/svg11.dtd"><svg width="100%" height="100%" viewBox="0 0 64 64" version="1.1" xmlns="http://www.w3.org/2000/svg" xmlns:xlink="http://www.w3.org/1999/xlink" xml:space="preserve" xmlns:serif="http://www.serif.com/" style="fill-rule:evenodd;clip-rule:evenodd;stroke-linecap:round;stroke-linejoin:round;stroke-miterlimit:2;"><rect id="_33---Sunny-Side-Up-Eggs" serif:id="33 - Sunny Side Up Eggs" x="0" y="0" width="64" height="64" style="fill:none;"/><circle cx="38.575" cy="36.288" r="6.033" style="fill:none;stroke:currentColor;stroke-width:2px;"/><path d="M38.575,16.152c4.415,0 7.997,8.54 10.996,11.33c3.296,3.067 7.541,6.133 7.541,10.986c0,9.268 -9.269,14.611 -18.537,14.611c-9.267,0 -20.716,-5.343 -20.716,-14.611c0,-9.267 11.449,-22.316 20.716,-22.316Z" style="fill:none;stroke:currentColor;stroke-width:2px;"/><path d="M22.473,47.608c-5.075,2.034 -11.689,2.884 -14.652,-1.17c-2.913,-3.986 1.846,-11.15 2.751,-17.433c0.794,-5.511 -0.703,-15.029 2.793,-17.584c3.565,-2.605 9.344,-0.518 13.411,-0.035c0.594,0.07 1.221,0.203 1.868,0.389" style="fill:none;stroke:currentColor;stroke-width:2px;"/><path d="M18.853,33.302c-1.386,-1.106 -2.275,-2.81 -2.275,-4.72c0,-3.329 2.703,-6.033 6.033,-6.033c0.98,0 1.906,0.234 2.725,0.65" style="fill:none;stroke:currentColor;stroke-width:2px;"/><path d="M34.437,47.608c0,0 -11.224,-1.788 -11.585,-10.574" style="fill:none;stroke:currentColor;stroke-width:2px;"/></svg>
