<?xml version="1.0" encoding="UTF-8" standalone="no"?><!DOCTYPE svg PUBLIC "-//W3C//DTD SVG 1.1//EN" "http://www.w3.org/Graphics/SVG/1.1/DTD/svg11.dtd"><svg width="100%" height="100%" viewBox="0 0 64 64" version="1.1" xmlns="http://www.w3.org/2000/svg" xmlns:xlink="http://www.w3.org/1999/xlink" xml:space="preserve" xmlns:serif="http://www.serif.com/" style="fill-rule:evenodd;clip-rule:evenodd;stroke-linecap:round;stroke-linejoin:round;stroke-miterlimit:2;"><rect id="_80---Coffee-Seed" serif:id="80 - Coffee Seed" x="0" y="0" width="64" height="64" style="fill:none;"/><path d="M37.461,23.882c-1.732,4.598 -1.429,6.051 -6.603,10.571c-2.352,2.054 -3.44,4.655 -3.875,7.07l-0.169,-0.066c-3.284,-1.897 -3.642,-7.435 -0.799,-12.36c2.844,-4.925 7.819,-7.385 11.104,-5.488l0.342,0.273Z" style="fill:none;stroke:currentColor;stroke-width:2px;"/><path d="M39.906,24.731c2.964,2.038 3.193,7.346 0.456,12.086c-2.804,4.856 -7.679,7.315 -10.935,5.554c0.435,-2.414 1.523,-5.015 3.875,-7.069c5.175,-4.52 4.872,-5.973 6.604,-10.571Z" style="fill:none;stroke:currentColor;stroke-width:2px;"/><ellipse cx="52.096" cy="17.486" rx="4.5" ry="6" style="fill:none;stroke:currentColor;stroke-width:2px;"/><path d="M22.216,11.032c1.981,1.498 1.967,4.859 -0.031,7.5c-1.998,2.64 -5.228,3.568 -7.209,2.07c-1.98,-1.499 -1.966,-4.859 0.032,-7.5c1.997,-2.641 5.227,-3.569 7.208,-2.07Z" style="fill:none;stroke:currentColor;stroke-width:2px;"/><path d="M16.12,36.699c1.981,1.498 1.967,4.859 -0.031,7.5c-1.998,2.641 -5.228,3.568 -7.209,2.07c-1.981,-1.498 -1.967,-4.859 0.031,-7.5c1.998,-2.641 5.228,-3.569 7.209,-2.07Z" style="fill:none;stroke:currentColor;stroke-width:2px;"/><path d="M52.39,49.846c0.473,2.438 -1.783,4.929 -5.034,5.559c-3.251,0.63 -6.274,-0.838 -6.746,-3.276c-0.473,-2.438 1.783,-4.929 5.034,-5.559c3.251,-0.631 6.274,0.837 6.746,3.276Z" style="fill:none;stroke:currentColor;stroke-width:2px;"/><path d="M52.096,23.486c0,0 -1.295,-3.047 0.5,-5.5c1.796,-2.454 -1,-6.464 -1,-6.464" style="fill:none;stroke:currentColor;stroke-width:2px;"/><path d="M14.976,20.602c0,0 0.805,-3.211 3.717,-4.085c2.913,-0.874 3.102,-5.758 3.102,-5.758" style="fill:none;stroke:currentColor;stroke-width:2px;"/><path d="M8.88,46.269c0,0 0.805,-3.211 3.717,-4.085c2.913,-0.873 3.102,-5.758 3.102,-5.758" style="fill:none;stroke:currentColor;stroke-width:2px;"/><circle cx="15.699" cy="28.65" r="2.687" style="fill:none;stroke:currentColor;stroke-width:2px;"/><circle cx="40.547" cy="9.986" r="1.537" style="fill:none;stroke:currentColor;stroke-width:2px;"/><circle cx="54.596" cy="39.986" r="2" style="fill:none;stroke:currentColor;stroke-width:2px;"/><path d="M46.104,51.573c2.751,1.296 6.155,-2.211 6.155,-2.211" style="fill:none;stroke:currentColor;stroke-width:2px;"/></svg>
