<?xml version="1.0" encoding="UTF-8" standalone="no"?><!DOCTYPE svg PUBLIC "-//W3C//DTD SVG 1.1//EN" "http://www.w3.org/Graphics/SVG/1.1/DTD/svg11.dtd"><svg width="100%" height="100%" viewBox="0 0 64 64" version="1.1" xmlns="http://www.w3.org/2000/svg" xmlns:xlink="http://www.w3.org/1999/xlink" xml:space="preserve" xmlns:serif="http://www.serif.com/" style="fill-rule:evenodd;clip-rule:evenodd;stroke-linecap:round;stroke-linejoin:round;stroke-miterlimit:2;"><rect id="_87---Ice-Cream" serif:id="87 - Ice Cream" x="0" y="0" width="64" height="64" style="fill:none;"/><path d="M10.863,30.835c0,0 5.272,18.151 7.141,24.584c0.383,1.319 1.592,2.227 2.967,2.227c0.792,0 1.676,0 2.467,0c1.371,0 2.578,-0.902 2.964,-2.217c1.89,-6.425 7.235,-24.594 7.235,-24.594" style="fill:none;stroke:currentColor;stroke-width:2px;"/><path d="M11.25,31l0,-0.071c-0.782,-0.149 -1.508,-0.53 -2.078,-1.101c-0.751,-0.75 -1.172,-1.767 -1.172,-2.828c0,0 0,0 0,0c0,-1.061 0.421,-2.078 1.172,-2.828c0.75,-0.751 1.767,-1.172 2.828,-1.172l4.25,0l0,-0.087c-0.582,-0.138 -1.119,-0.435 -1.549,-0.864c-0.609,-0.609 -0.951,-1.436 -0.951,-2.297c0,-0.001 0,-0.003 0,-0.004c0,-0.861 0.342,-1.688 0.951,-2.297c0.609,-0.609 1.436,-0.951 2.297,-0.951c3.017,0 7.487,0 10.504,0c0.861,0 1.688,0.342 2.297,0.951c0.609,0.609 0.951,1.436 0.951,2.297c0,0.001 0,0.003 0,0.004c0,0.861 -0.342,1.688 -0.951,2.297c-0.43,0.429 -0.967,0.726 -1.549,0.864l0,0.087l4.25,0c1.061,0 2.078,0.421 2.828,1.172c0.751,0.75 1.172,1.767 1.172,2.828c0,0 0,0 0,0c0,1.061 -0.421,2.078 -1.172,2.828c-0.57,0.571 -1.296,0.952 -2.078,1.101c0,0 -0.477,0 -1.12,0c-1.867,0 -3.38,1.513 -3.38,3.38c0,0.429 0,0.858 0,1.26c0,1.173 -0.951,2.124 -2.124,2.124c-0.001,0 -0.001,0 -0.002,0c-1.173,0 -2.124,-0.951 -2.124,-2.124c0,-0.402 0,-0.831 0,-1.26c0,-0.896 -0.356,-1.756 -0.99,-2.39c-0.634,-0.634 -1.494,-0.99 -2.39,-0.99c-3.926,0 -9.87,0 -9.87,0" style="fill:none;stroke:currentColor;stroke-width:2px;"/><path d="M20.25,23l8.5,0" style="fill:none;stroke:currentColor;stroke-width:2px;"/><circle cx="22.25" cy="13" r="3.5" style="fill:none;stroke:currentColor;stroke-width:2px;"/><path d="M22.25,9.5l0.5,-2.5" style="fill:none;stroke:currentColor;stroke-width:2px;"/><path d="M35.792,45.169c0,0 1.131,5.205 1.826,8.398c0.309,1.42 1.565,2.433 3.019,2.433c2.379,0 5.944,0 8.319,0c1.448,0 2.701,-1.005 3.016,-2.418c0.711,-3.192 1.874,-8.413 1.874,-8.413" style="fill:none;stroke:currentColor;stroke-width:2px;"/><path d="M41.334,35.725c-0.338,-0.08 -0.65,-0.253 -0.9,-0.502c-0.354,-0.354 -0.552,-0.733 -0.552,-1.234c0,-0.001 0,-0.001 0,-0.002c0,-0.5 0.198,-0.98 0.552,-1.334c0.354,-0.354 0.834,-0.553 1.334,-0.553c1.753,0 4.349,0 6.101,0c0.501,0 0.981,0.199 1.334,0.553c0.354,0.354 0.553,0.834 0.553,1.334c0,0.001 0,0.001 0,0.002c0,0.501 -0.199,0.88 -0.553,1.234c-0.249,0.249 -0.561,0.422 -0.899,0.502l0,0.05l2.468,0c0.617,0 1.208,0.245 1.643,0.681c0.436,0.436 0.681,1.027 0.681,1.643c0,0 0,0 0,0c0,0.616 -0.245,1.157 -0.681,1.592c-0.331,0.332 -0.753,0.553 -1.207,0.64l0,0.041l2.469,0c0.616,0 1.207,0.245 1.642,0.68c0.436,0.436 0.681,1.178 0.681,1.794c0,0 0,0 0,0c0,0.616 -0.245,1.207 -0.681,1.643c-0.435,0.436 -1.026,0.68 -1.642,0.68l-2.265,0c-1.132,0 -2.218,0.45 -3.019,1.251c-0.801,0.801 -1.251,1.887 -1.251,3.019c0,0.178 0,0.349 0,0.512c0,0.386 -0.153,0.755 -0.425,1.027c-0.272,0.273 -0.642,0.425 -1.027,0.425c0,0 0,0 0,0c-0.385,0 -0.755,-0.152 -1.027,-0.425c-0.272,-0.272 -0.425,-0.641 -0.425,-1.027c0,-0.163 0,-0.334 0,-0.512c0,-1.132 -0.45,-2.218 -1.251,-3.019c-0.801,-0.801 -1.887,-1.251 -3.019,-1.251c-1.564,0 -3.158,0 -4.007,0c-0.616,0 -1.207,-0.244 -1.643,-0.68c-0.436,-0.436 -0.681,-1.027 -0.681,-1.643c0,0 0,0 0,0c0,-0.616 0.245,-1.358 0.681,-1.794c0.436,-0.435 1.027,-0.68 1.643,-0.68l2.468,0l0,-0.041c-0.454,-0.087 -0.875,-0.308 -1.207,-0.64c-0.436,-0.435 -0.68,-0.976 -0.68,-1.592c0,0 0,0 0,0c0,-0.616 0.244,-1.207 0.68,-1.643c0.436,-0.436 1.027,-0.681 1.643,-0.681l2.469,0l0,-0.05Z" style="fill:none;stroke:currentColor;stroke-width:2px;"/><path d="M38.448,40.372l5.808,0" style="fill:none;stroke:currentColor;stroke-width:2px;"/><path d="M51.498,40.372l-1.742,0" style="fill:none;stroke:currentColor;stroke-width:2px;"/><path d="M45.109,35.775l3.485,0" style="fill:none;stroke:currentColor;stroke-width:2px;"/><circle cx="44.819" cy="30.067" r="2.033" style="fill:none;stroke:currentColor;stroke-width:2px;"/><path d="M44.819,28.034l0.29,-1.452" style="fill:none;stroke:currentColor;stroke-width:2px;"/></svg>
