<?xml version="1.0" encoding="UTF-8" standalone="no"?><!DOCTYPE svg PUBLIC "-//W3C//DTD SVG 1.1//EN" "http://www.w3.org/Graphics/SVG/1.1/DTD/svg11.dtd"><svg width="100%" height="100%" viewBox="0 0 64 64" version="1.1" xmlns="http://www.w3.org/2000/svg" xmlns:xlink="http://www.w3.org/1999/xlink" xml:space="preserve" xmlns:serif="http://www.serif.com/" style="fill-rule:evenodd;clip-rule:evenodd;stroke-linecap:round;stroke-linejoin:round;stroke-miterlimit:2;"><rect id="_70---Food-and-Drink" serif:id="70 - Food and Drink" x="0" y="0" width="64" height="64" style="fill:none;"/><path d="M35.986,27l-27.626,0c0,0 2.118,18.768 2.822,25.009c0.128,1.134 1.087,1.991 2.228,1.991c4.104,0 13.422,0 17.525,0c1.142,0 2.101,-0.857 2.229,-1.991c0.704,-6.241 2.822,-25.009 2.822,-25.009Z" style="fill:none;stroke:currentColor;stroke-width:2px;"/><path d="M38.346,23.266c0,-0.595 -0.237,-1.166 -0.657,-1.586c-0.421,-0.421 -0.991,-0.657 -1.586,-0.657c-5.923,0 -21.937,0 -27.86,0c-0.595,0 -1.166,0.236 -1.586,0.657c-0.421,0.42 -0.657,0.991 -0.657,1.586c0,0.487 0,1.004 0,1.491c0,0.595 0.236,1.166 0.657,1.586c0.42,0.421 0.991,0.657 1.586,0.657c5.923,0 21.937,0 27.86,0c0.595,0 1.165,-0.236 1.586,-0.657c0.42,-0.42 0.657,-0.991 0.657,-1.586c0,-0.487 0,-1.004 0,-1.491Z" style="fill:none;stroke:currentColor;stroke-width:2px;"/><path d="M33.276,21.023l-22.206,0l0,-1.762c0,-1.239 1.004,-2.243 2.243,-2.243c4.257,0 13.463,0 17.72,0c1.239,0 2.243,1.004 2.243,2.243c0,0.915 0,1.762 0,1.762Z" style="fill:none;stroke:currentColor;stroke-width:2px;"/><path d="M21.221,35.019c0.468,2.843 1.048,3.492 -0.255,7.305c-0.592,1.733 -0.382,3.373 0.105,4.727l-0.105,0.016c-2.224,0 -4.029,-2.708 -4.029,-6.043c0,-3.335 1.805,-6.043 4.029,-6.043l0.255,0.038Z" style="fill:none;stroke:currentColor;stroke-width:2px;"/><path d="M23.634,34.981c2.103,0.166 3.775,2.794 3.775,6.004c0,3.288 -1.755,5.967 -3.925,6.027c-0.487,-1.354 -0.697,-2.993 -0.105,-4.726c1.303,-3.813 0.723,-4.462 0.255,-7.305Z" style="fill:none;stroke:currentColor;stroke-width:2px;"/><path d="M37.662,52c0,0 9.393,0.926 14.98,1.477c2.537,0.251 4.81,-1.571 5.118,-4.101c0.709,-5.916 -0.657,-15.745 -17.063,-17.362c-1.897,-0.187 -3.624,-0.228 -5.197,-0.145" style="fill:none;stroke:currentColor;stroke-width:2px;"/><path d="M47.05,33.708c0.657,1.217 1.786,4.066 1.762,9.249" style="fill:none;stroke:currentColor;stroke-width:2px;"/><path d="M38.662,32.204c0,0 2.254,2.669 2.22,9.971" style="fill:none;stroke:currentColor;stroke-width:2px;"/><path d="M22,17.018l1,-7.018l8,1" style="fill:none;stroke:currentColor;stroke-width:2px;"/></svg>
