<?xml version="1.0" encoding="UTF-8" standalone="no"?><!DOCTYPE svg PUBLIC "-//W3C//DTD SVG 1.1//EN" "http://www.w3.org/Graphics/SVG/1.1/DTD/svg11.dtd"><svg width="100%" height="100%" viewBox="0 0 64 64" version="1.1" xmlns="http://www.w3.org/2000/svg" xmlns:xlink="http://www.w3.org/1999/xlink" xml:space="preserve" xmlns:serif="http://www.serif.com/" style="fill-rule:evenodd;clip-rule:evenodd;stroke-linecap:round;stroke-linejoin:round;stroke-miterlimit:2;"><rect id="_52---Chiken-Thighs" serif:id="52 - Chiken Thighs" x="0" y="0" width="64" height="64" style="fill:none;"/><path d="M24,37l5,0" style="fill:none;stroke:currentColor;stroke-width:2px;"/><path d="M39.5,37l7.5,0c0.53,0 1.039,-0.211 1.414,-0.586c0.375,-0.375 0.586,-0.884 0.586,-1.414c0,-1.392 0,-3 0,-3l-34,0l0,3c0,0.53 0.211,1.039 0.586,1.414c0.375,0.375 0.884,0.586 1.414,0.586c0.551,0 1,0 1,0" style="fill:none;stroke:currentColor;stroke-width:2px;"/><path d="M18,37l0,2.002c0,7.731 6.267,13.998 13.998,13.998c0.001,0 0.001,0 0.002,0c3.713,0 7.274,-1.475 9.899,-4.101c2.626,-2.625 4.101,-6.186 4.101,-9.899c0,-1.218 0,-2 0,-2" style="fill:none;stroke:currentColor;stroke-width:2px;"/><path d="M32,47l0,9" style="fill:none;stroke:currentColor;stroke-width:2px;"/><path d="M20.371,47l-3.041,9" style="fill:none;stroke:currentColor;stroke-width:2px;"/><path d="M43.629,47l3.041,9" style="fill:none;stroke:currentColor;stroke-width:2px;"/><path d="M31.669,23.118c0,0 -0.695,-2.299 -4.46,-3.872c-3.766,-1.574 -6.708,2.638 -3.882,7.695c3.476,6.219 17.383,6.661 19.99,1.564c1.091,-2.132 0.235,-4.167 0.235,-4.167c-1.3,-4.712 -6.646,-10.271 -14.489,-4.175" style="fill:none;stroke:currentColor;stroke-width:2px;"/><path d="M20.677,26.735c-1.123,0.883 -1.567,1.222 -1.852,1.386c-0.106,-0.064 -0.239,-0.061 -0.341,0.008c-0.102,0.07 -0.155,0.192 -0.134,0.314c0.045,0.436 0.463,1.828 2.081,0.7c2.039,-1.424 4.899,0.069 4.899,0.069" style="fill:none;stroke:currentColor;stroke-width:2px;"/><path d="M23.907,19.246c0,0 -4.082,-3.004 -5.761,-4.239c-0.407,-0.3 -0.972,-0.257 -1.329,0.101c-0.001,0 -0.001,0 -0.001,0.001c-0.159,0.158 -0.246,0.374 -0.243,0.598c0.003,0.224 0.097,0.438 0.26,0.591c1.479,1.394 5.085,4.792 5.085,4.792" style="fill:none;stroke:currentColor;stroke-width:2px;"/><path d="M42.295,10.6l0,-2.6" style="fill:none;stroke:currentColor;stroke-width:2px;"/><path d="M26.655,10.6l0,-2.6" style="fill:none;stroke:currentColor;stroke-width:2px;"/><path d="M37.382,10.6l0,-2.6" style="fill:none;stroke:currentColor;stroke-width:2px;"/><path d="M21.742,10.6l0,-2.6" style="fill:none;stroke:currentColor;stroke-width:2px;"/><path d="M13,32l38,0" style="fill:none;stroke:currentColor;stroke-width:2px;"/></svg>
