<?xml version="1.0" encoding="UTF-8" standalone="no"?><!DOCTYPE svg PUBLIC "-//W3C//DTD SVG 1.1//EN" "http://www.w3.org/Graphics/SVG/1.1/DTD/svg11.dtd"><svg width="100%" height="100%" viewBox="0 0 64 64" version="1.1" xmlns="http://www.w3.org/2000/svg" xmlns:xlink="http://www.w3.org/1999/xlink" xml:space="preserve" xmlns:serif="http://www.serif.com/" style="fill-rule:evenodd;clip-rule:evenodd;stroke-linecap:round;stroke-linejoin:round;stroke-miterlimit:2;"><rect id="_30---Boiled-Egg" serif:id="30 - Boiled Egg" x="0" y="0" width="64" height="64" style="fill:none;"/><path d="M20.215,22.663c7.587,0 13.747,13.67 13.747,21.257c0,7.587 -6.16,13.747 -13.747,13.747c-7.587,0 -13.747,-6.16 -13.747,-13.747c0,-7.587 6.16,-21.257 13.747,-21.257Z" style="fill:none;stroke:currentColor;stroke-width:2px;"/><path d="M33.467,37.03c3.609,-5.7 14.739,-13.04 20.439,-9.431c5.7,3.609 3.826,16.808 0.217,22.509c-3.609,5.7 -11.167,7.397 -16.867,3.789" style="fill:none;stroke:currentColor;stroke-width:2px;"/><path d="M49.487,34.578c2.674,1.694 1.795,7.887 0.102,10.561c-1.694,2.675 -5.24,3.472 -7.914,1.778c-2.675,-1.693 -3.471,-5.239 -1.778,-7.914c1.693,-2.674 6.915,-6.118 9.59,-4.425Z" style="fill:none;stroke:currentColor;stroke-width:2px;"/><path d="M24.492,50.286c0,0 4.945,-2.475 3.663,-10.121" style="fill:none;stroke:currentColor;stroke-width:2px;"/><path d="M46.757,18.099c0,0 0.538,-0.737 1.124,-1.539c0.849,-1.163 0.759,-2.763 -0.215,-3.824c0,0 -0.001,-0.001 -0.001,-0.001c-0.452,-0.492 -0.683,-1.148 -0.639,-1.814c0.044,-0.667 0.359,-1.286 0.872,-1.715c0.757,-0.632 1.443,-1.206 1.443,-1.206" style="fill:none;stroke:currentColor;stroke-width:2px;"/><path d="M16.79,18.099c0,0 -0.538,-0.737 -1.123,-1.539c-0.849,-1.163 -0.76,-2.763 0.214,-3.824c0.001,0 0.001,-0.001 0.002,-0.001c0.452,-0.492 0.682,-1.148 0.638,-1.814c-0.044,-0.667 -0.359,-1.286 -0.871,-1.715c-0.757,-0.632 -1.444,-1.206 -1.444,-1.206" style="fill:none;stroke:currentColor;stroke-width:2px;"/><path d="M37.885,15.423c0,0 0.538,-0.737 1.124,-1.539c0.849,-1.163 0.759,-2.763 -0.215,-3.824c-0.001,0 -0.001,-0.001 -0.001,-0.001c-0.452,-0.492 -0.683,-1.148 -0.639,-1.814c0.044,-0.667 0.359,-1.286 0.871,-1.715c0.757,-0.632 1.444,-1.206 1.444,-1.206" style="fill:none;stroke:currentColor;stroke-width:2px;"/><path d="M25.663,15.423c0,0 -0.539,-0.737 -1.124,-1.539c-0.849,-1.163 -0.759,-2.763 0.214,-3.824c0.001,0 0.001,-0.001 0.002,-0.001c0.452,-0.492 0.682,-1.148 0.638,-1.814c-0.044,-0.667 -0.358,-1.286 -0.871,-1.715c-0.757,-0.632 -1.444,-1.206 -1.444,-1.206" style="fill:none;stroke:currentColor;stroke-width:2px;"/></svg>
