<?xml version="1.0" encoding="UTF-8" standalone="no"?><!DOCTYPE svg PUBLIC "-//W3C//DTD SVG 1.1//EN" "http://www.w3.org/Graphics/SVG/1.1/DTD/svg11.dtd"><svg width="100%" height="100%" viewBox="0 0 64 64" version="1.1" xmlns="http://www.w3.org/2000/svg" xmlns:xlink="http://www.w3.org/1999/xlink" xml:space="preserve" xmlns:serif="http://www.serif.com/" style="fill-rule:evenodd;clip-rule:evenodd;stroke-linecap:round;stroke-linejoin:round;stroke-miterlimit:2;"><rect id="_09---Meat" serif:id="09 - Meat" x="0" y="0" width="64" height="64" style="fill:none;"/><path d="M25.448,24.351c-3.116,0.864 -6.44,0.549 -9.338,-0.885c-0.732,-0.362 -1.496,-0.74 -2.244,-1.11c-1.186,-0.587 -2.585,-0.554 -3.743,0.089c-1.158,0.642 -1.926,1.811 -2.056,3.129c0,0 0,0.001 0,0.001c-0.368,3.73 0.799,7.449 3.233,10.299c2.707,3.169 6.494,7.602 10.137,11.868c2.842,3.328 6.998,5.245 11.375,5.246c4.376,0.002 8.534,-1.913 11.378,-5.239c0.001,0 0.001,-0.001 0.002,-0.001c3.537,-4.137 4.189,-10.015 1.644,-14.826c-0.397,-0.751 -0.803,-1.518 -1.208,-2.285c-3.127,-5.91 -9.946,-8.848 -16.39,-7.061c-0.97,0.27 -1.915,0.532 -2.79,0.775Z" style="fill:none;stroke:currentColor;stroke-width:2px;"/><path d="M52.061,43.827c2.763,-2.923 4.102,-7.008 3.474,-11.118c-0.128,-0.839 -0.259,-1.697 -0.39,-2.555c-1.009,-6.61 -6.483,-11.627 -13.155,-12.057c-1.005,-0.065 -1.984,-0.128 -2.89,-0.187c-3.227,-0.208 -6.263,-1.599 -8.529,-3.905c-0.572,-0.583 -1.169,-1.191 -1.753,-1.786c-0.928,-0.945 -2.26,-1.374 -3.564,-1.148c-1.305,0.226 -2.415,1.078 -2.971,2.279c0,0 -0.001,0.001 -0.001,0.001c-1.044,2.256 -2.464,6.02 -1.221,11.449" style="fill:none;stroke:currentColor;stroke-width:2px;"/><circle cx="15.895" cy="30.427" r="2.757" style="fill:none;stroke:currentColor;stroke-width:2px;"/><path d="M29.832,47.808c0,0 9.482,2.59 12.868,-5.365" style="fill:none;stroke:currentColor;stroke-width:2px;"/></svg>
