<?xml version="1.0" encoding="UTF-8" standalone="no"?><!DOCTYPE svg PUBLIC "-//W3C//DTD SVG 1.1//EN" "http://www.w3.org/Graphics/SVG/1.1/DTD/svg11.dtd"><svg width="100%" height="100%" viewBox="0 0 64 64" version="1.1" xmlns="http://www.w3.org/2000/svg" xmlns:xlink="http://www.w3.org/1999/xlink" xml:space="preserve" xmlns:serif="http://www.serif.com/" style="fill-rule:evenodd;clip-rule:evenodd;stroke-linecap:round;stroke-linejoin:round;stroke-miterlimit:2;"><rect id="_35---Pancake" serif:id="35 - Pancake" x="0" y="0" width="64" height="64" style="fill:none;"/><path d="M56,17.128c0,3.363 -3.675,6.348 -9.333,8.199" style="fill:none;stroke:currentColor;stroke-width:2px;"/><path d="M32,27.298c-4.222,0 -8.178,-0.512 -11.572,-1.403" style="fill:none;stroke:currentColor;stroke-width:2px;"/><path d="M9.546,27.656c-0.971,-0.699 -1.546,-1.822 -1.546,-3.018c0,-2.787 0,-7.648 0,-7.648c0,-5.899 10.754,-10.687 24,-10.687c13.246,0 24,4.788 24,10.687l0,8.733c0,0.739 -0.326,1.439 -0.891,1.914c-0.565,0.476 -1.31,0.678 -2.038,0.552c-0.298,-0.052 -0.597,-0.104 -0.884,-0.153c-1.306,-0.227 -2.643,0.172 -3.612,1.077c0,0 0,0 0,0c-2.812,2.626 -6.546,4.035 -10.391,3.922c-2.644,-0.078 -5.537,-0.163 -7.262,-0.214c-1.029,-0.03 -2.044,-0.235 -3.004,-0.607c0,0 -0.001,0 -0.002,-0.001c-1.309,-0.506 -2.774,-0.41 -4.005,0.264c-1.231,0.674 -2.102,1.857 -2.38,3.233c-0.512,2.538 -1.128,5.588 -1.683,8.338c-0.166,0.819 -0.875,1.416 -1.71,1.44c-0.836,0.023 -1.577,-0.534 -1.788,-1.343c-1.641,-6.299 -3.718,-14.268 -3.718,-14.268c0,0 -1.739,-1.252 -3.086,-2.221Z" style="fill:none;stroke:currentColor;stroke-width:2px;"/><path d="M54.839,30.564l0,12.963c0,5.613 -10.234,10.17 -22.839,10.17c-10.597,0 -19.518,-3.221 -22.092,-7.582c-0.487,-0.826 -0.747,-1.694 -0.747,-2.588l0,-8.492" style="fill:none;stroke:currentColor;stroke-width:2px;"/><path d="M50.066,14.814l0.166,1.659" style="fill:none;stroke:currentColor;stroke-width:2px;"/><path d="M15.311,18.298l-0.995,-1.328" style="fill:none;stroke:currentColor;stroke-width:2px;"/><path d="M54.839,27.92l0,2.476c0,5.613 -10.234,10.17 -22.839,10.17c-1.999,0 -3.938,-0.115 -5.786,-0.33" style="fill:none;stroke:currentColor;stroke-width:2px;"/><path d="M14.464,36.909c-2.115,-1.128 -3.692,-2.462 -4.556,-3.925c-0.487,-0.827 -0.747,-1.694 -0.747,-2.588l0,-3.164" style="fill:none;stroke:currentColor;stroke-width:2px;"/><path d="M54.839,31.252l0,5.298c0,5.613 -10.234,10.17 -22.839,10.17c-2.455,0 -4.82,-0.173 -7.036,-0.493" style="fill:none;stroke:currentColor;stroke-width:2px;"/><path d="M16.294,43.931c-3.04,-1.284 -5.289,-2.935 -6.386,-4.793c-0.487,-0.827 -0.747,-1.694 -0.747,-2.588l0,-5.986" style="fill:none;stroke:currentColor;stroke-width:2px;"/></svg>
