<?xml version="1.0" encoding="UTF-8" standalone="no"?><!DOCTYPE svg PUBLIC "-//W3C//DTD SVG 1.1//EN" "http://www.w3.org/Graphics/SVG/1.1/DTD/svg11.dtd"><svg width="100%" height="100%" viewBox="0 0 64 64" version="1.1" xmlns="http://www.w3.org/2000/svg" xmlns:xlink="http://www.w3.org/1999/xlink" xml:space="preserve" xmlns:serif="http://www.serif.com/" style="fill-rule:evenodd;clip-rule:evenodd;stroke-linecap:round;stroke-linejoin:round;stroke-miterlimit:2;"><rect id="_68---Bread" serif:id="68 - Bread" x="0" y="0" width="64" height="64" style="fill:none;"/><path d="M20.224,44.097c-0.057,1.279 0.41,2.525 1.294,3.45c0.884,0.925 2.108,1.448 3.388,1.448c7.242,0.005 21.728,0.005 28.796,0.005c2.55,0 4.633,-2.035 4.691,-4.583c0.125,-5.957 -2.199,-15.605 -18.685,-15.605c-16.194,0 -19.214,9.31 -19.484,15.285Z" style="fill:none;stroke:currentColor;stroke-width:2px;"/><path d="M46.197,29.875c0.774,1.147 2.176,3.871 2.661,9.031" style="fill:none;stroke:currentColor;stroke-width:2px;"/><path d="M37.702,29.201c0,0 2.505,2.435 3.187,9.705" style="fill:none;stroke:currentColor;stroke-width:2px;"/><path d="M30.88,30.937c0.754,1.479 1.668,4.005 2.04,7.969" style="fill:none;stroke:currentColor;stroke-width:2px;"/><path d="M39.892,28.438c1.465,-1.561 1.804,-3.953 0.68,-5.901c-2.99,-5.175 -9.864,-11.873 -23.809,-3.746c-13.684,7.975 -11.996,17.298 -9.319,22.66c0.616,1.232 1.714,2.153 3.034,2.547c1.319,0.393 2.743,0.223 3.933,-0.471c0.491,-0.286 1.018,-0.593 1.575,-0.918" style="fill:none;stroke:currentColor;stroke-width:2px;"/><path d="M22.905,16.442c1.448,-0.006 4.229,1.049 6.846,6.463" style="fill:none;stroke:currentColor;stroke-width:2px;"/><path d="M15.226,20.137c0.211,-0.582 4.025,-0.903 7.64,6.78" style="fill:none;stroke:currentColor;stroke-width:2px;"/><path d="M10.206,25.072c2.091,0.588 4.552,2.134 5.775,5.858" style="fill:none;stroke:currentColor;stroke-width:2px;"/></svg>
