<?xml version="1.0" encoding="UTF-8" standalone="no"?><!DOCTYPE svg PUBLIC "-//W3C//DTD SVG 1.1//EN" "http://www.w3.org/Graphics/SVG/1.1/DTD/svg11.dtd"><svg width="100%" height="100%" viewBox="0 0 64 64" version="1.1" xmlns="http://www.w3.org/2000/svg" xmlns:xlink="http://www.w3.org/1999/xlink" xml:space="preserve" xmlns:serif="http://www.serif.com/" style="fill-rule:evenodd;clip-rule:evenodd;stroke-linecap:round;stroke-linejoin:round;stroke-miterlimit:2;"><rect id="_10---Chiken-Thighs" serif:id="10 - Chiken Thighs" x="0" y="0" width="64" height="64" style="fill:none;"/><path d="M20.083,37.846c4.168,-4.168 6.647,-9.729 6.961,-15.615c0.163,-3.581 1.62,-7.109 4.352,-9.841c5.854,-5.853 15.36,-5.853 21.214,0c5.853,5.854 5.853,15.36 0,21.214c-2.732,2.732 -6.26,4.189 -9.84,4.371c-5.881,0.314 -11.438,2.791 -15.602,6.956c-0.014,-0.014 -0.014,-0.014 -0.014,-0.014l-7.071,-7.071c0,0 0,0 0,0Z" style="fill:none;stroke:currentColor;stroke-width:2px;"/><path d="M25.386,43.15l-3.536,-3.536c0,0 -8.96,8.96 -12.85,12.85c-0.469,0.469 -0.732,1.105 -0.732,1.768c0,0.663 0.263,1.299 0.732,1.768c0,0 0.001,0.001 0.001,0.001c0.976,0.976 2.558,0.976 3.533,0c3.89,-3.889 12.852,-12.851 12.852,-12.851Z" style="fill:none;stroke:currentColor;stroke-width:2px;"/><path d="M51,19c0,0 2.624,6.312 -3,12" style="fill:none;stroke:currentColor;stroke-width:2px;"/></svg>
