<?xml version="1.0" encoding="UTF-8" standalone="no"?><!DOCTYPE svg PUBLIC "-//W3C//DTD SVG 1.1//EN" "http://www.w3.org/Graphics/SVG/1.1/DTD/svg11.dtd"><svg width="100%" height="100%" viewBox="0 0 64 64" version="1.1" xmlns="http://www.w3.org/2000/svg" xmlns:xlink="http://www.w3.org/1999/xlink" xml:space="preserve" xmlns:serif="http://www.serif.com/" style="fill-rule:evenodd;clip-rule:evenodd;stroke-linecap:round;stroke-linejoin:round;stroke-miterlimit:2;"><rect id="_21---Cake" serif:id="21 - Cake" x="0" y="0" width="64" height="64" style="fill:none;"/><path d="M47.541,38.773l-31.082,0l4.104,18.873l22.874,0l4.104,-18.873Z" style="fill:none;stroke:currentColor;stroke-width:2px;"/><path d="M45,23.773c4.142,0 7.5,3.357 7.5,7.5c0,0 0,0 0,0c0,4.142 -3.358,7.5 -7.5,7.5" style="fill:none;stroke:currentColor;stroke-width:2px;"/><path d="M19,38.773c-4.142,0 -7.5,-3.358 -7.5,-7.5c0,0 0,0 0,0c0,-4.143 3.358,-7.5 7.5,-7.5l0.614,0c0.742,-6.179 6.008,-10.975 12.386,-10.975c2.513,0 4.854,0.744 6.813,2.025" style="fill:none;stroke:currentColor;stroke-width:2px;"/><path d="M44.386,23.773c0,2.398 -0.142,4.244 -0.567,5.5" style="fill:none;stroke:currentColor;stroke-width:2px;"/><path d="M25,24l0,1" style="fill:none;stroke:currentColor;stroke-width:2px;"/><circle cx="44.102" cy="18.484" r="5.289" style="fill:none;stroke:currentColor;stroke-width:2px;"/><path d="M34.425,53.83l5.581,0l1.419,-6.79" style="fill:none;stroke:currentColor;stroke-width:2px;"/><path d="M46.052,13.148c0,0 0.714,-1.785 2.231,-2.945" style="fill:none;stroke:currentColor;stroke-width:2px;"/></svg>
