<?xml version="1.0" encoding="UTF-8" standalone="no"?><!DOCTYPE svg PUBLIC "-//W3C//DTD SVG 1.1//EN" "http://www.w3.org/Graphics/SVG/1.1/DTD/svg11.dtd"><svg width="100%" height="100%" viewBox="0 0 64 64" version="1.1" xmlns="http://www.w3.org/2000/svg" xmlns:xlink="http://www.w3.org/1999/xlink" xml:space="preserve" xmlns:serif="http://www.serif.com/" style="fill-rule:evenodd;clip-rule:evenodd;stroke-linecap:round;stroke-linejoin:round;stroke-miterlimit:2;"><rect id="_45---Cake" serif:id="45 - Cake" x="0" y="0" width="64" height="64" style="fill:none;"/><path d="M28.05,14.825c-0.844,0.218 -1.71,0.47 -2.599,0.759c-2.664,0.851 -4.849,2.778 -6.026,5.314c-2.564,5.495 -7.36,15.826 -10.007,21.527c-0.292,0.628 -0.163,1.372 0.324,1.865c0.487,0.493 1.229,0.633 1.861,0.349c0.865,-0.388 8.93,-4.003 10.005,-4.485c0,0 0.292,0.893 0.596,1.828c0.18,0.551 0.575,1.007 1.095,1.264c0.519,0.258 1.121,0.295 1.669,0.104c0,0 0,-0.001 0.001,-0.001c0.768,-0.268 1.318,-0.948 1.421,-1.755c0.157,-1.238 0.369,-2.901 0.369,-2.901c0,0 12.934,-1.697 14.115,-2.325c6.565,-3.491 11.696,-3.82 14.201,-5.24c0.551,-0.438 0.872,-1.104 0.872,-1.808c0.053,-1.653 0.053,-4.583 0.053,-4.583c0,0 -6.239,-12.913 -23.311,-10.805" style="fill:none;stroke:currentColor;stroke-width:2px;"/><path d="M11.221,44.81l0,9.337c0,0.528 0.263,1.02 0.701,1.314c0.438,0.293 0.993,0.349 1.481,0.149c7.474,-3.072 31.996,-13.149 39.437,-16.207c1.307,-0.538 2.16,-1.811 2.16,-3.223c0,-2.138 0,-4.97 0,-4.97" style="fill:none;stroke:currentColor;stroke-width:2px;"/><circle cx="29.385" cy="21.921" r="4.226" style="fill:none;stroke:currentColor;stroke-width:2px;"/><path d="M38.602,20.397c-1.185,-0.837 -2.826,-0.555 -3.663,0.63c-0.837,1.184 -0.555,2.826 0.63,3.663c1.185,0.837 2.826,0.554 3.663,-0.63c0.837,-1.185 0.555,-2.826 -0.63,-3.663Z" style="fill:none;stroke:currentColor;stroke-width:2px;"/><path d="M28.926,17.695c0,0 -0.766,-1.332 -0.866,-2.873c-0.06,-0.93 0.123,-1.937 0.866,-2.772" style="fill:none;stroke:currentColor;stroke-width:2px;"/><path d="M38.835,20.562c0,0 2.231,-1.033 2.026,-2.867" style="fill:none;stroke:currentColor;stroke-width:2px;"/><path d="M56,24.511l-20.829,9.036" style="fill:none;stroke:currentColor;stroke-width:2px;"/></svg>
