<?xml version="1.0" encoding="UTF-8" standalone="no"?><!DOCTYPE svg PUBLIC "-//W3C//DTD SVG 1.1//EN" "http://www.w3.org/Graphics/SVG/1.1/DTD/svg11.dtd"><svg width="100%" height="100%" viewBox="0 0 64 64" version="1.1" xmlns="http://www.w3.org/2000/svg" xmlns:xlink="http://www.w3.org/1999/xlink" xml:space="preserve" xmlns:serif="http://www.serif.com/" style="fill-rule:evenodd;clip-rule:evenodd;stroke-linecap:round;stroke-linejoin:round;stroke-miterlimit:2;"><rect id="_62---Drink" serif:id="62 - Drink" x="0" y="0" width="64" height="64" style="fill:none;"/><path d="M47.396,19.126l-30.792,0c0,0 2.496,27.104 3.208,34.837c0.107,1.154 1.075,2.037 2.234,2.037l19.908,0c1.159,0 2.127,-0.883 2.234,-2.037c0.712,-7.733 3.208,-34.837 3.208,-34.837Z" style="fill:none;stroke:currentColor;stroke-width:2px;"/><path d="M13.164,19.126l37.672,0" style="fill:none;stroke:currentColor;stroke-width:2px;"/><path d="M34.641,18.765l2.29,-10.765l3.747,0" style="fill:none;stroke:currentColor;stroke-width:2px;"/><path d="M35.804,52.665l3.181,0c1.147,0 2.112,-0.858 2.247,-1.996c0.319,-2.674 0.844,-7.089 0.844,-7.089" style="fill:none;stroke:currentColor;stroke-width:2px;"/></svg>
