<?xml version="1.0" encoding="UTF-8" standalone="no"?><!DOCTYPE svg PUBLIC "-//W3C//DTD SVG 1.1//EN" "http://www.w3.org/Graphics/SVG/1.1/DTD/svg11.dtd"><svg width="100%" height="100%" viewBox="0 0 64 64" version="1.1" xmlns="http://www.w3.org/2000/svg" xmlns:xlink="http://www.w3.org/1999/xlink" xml:space="preserve" xmlns:serif="http://www.serif.com/" style="fill-rule:evenodd;clip-rule:evenodd;stroke-linecap:round;stroke-linejoin:round;stroke-miterlimit:2;"><rect id="_20---Cake" serif:id="20 - Cake" x="0" y="0" width="64" height="64" style="fill:none;"/><path d="M16.459,38.773l4.104,18.873l22.874,0l4.104,-18.873" style="fill:none;stroke:currentColor;stroke-width:2px;"/><path d="M45,38.773c-8.509,2.358 -17.183,2.262 -26,0c-4.142,0 -7.5,-3.358 -7.5,-7.5c0,0 0,0 0,0c0,-4.143 3.358,-7.5 7.5,-7.5l0.614,0c0.742,-6.179 6.008,-10.975 12.386,-10.975c6.378,0 11.644,4.796 12.386,10.975l0.614,0c4.142,0 7.5,3.357 7.5,7.5c0,0 0,0 0,0c0,4.142 -3.358,7.5 -7.5,7.5Z" style="fill:none;stroke:currentColor;stroke-width:2px;"/><path d="M44.386,23.773c0,2.398 -0.142,4.244 -0.567,5.5" style="fill:none;stroke:currentColor;stroke-width:2px;"/><path d="M25,24l0,1" style="fill:none;stroke:currentColor;stroke-width:2px;"/></svg>
