<?xml version="1.0" encoding="UTF-8" standalone="no"?><!DOCTYPE svg PUBLIC "-//W3C//DTD SVG 1.1//EN" "http://www.w3.org/Graphics/SVG/1.1/DTD/svg11.dtd"><svg width="100%" height="100%" viewBox="0 0 64 64" version="1.1" xmlns="http://www.w3.org/2000/svg" xmlns:xlink="http://www.w3.org/1999/xlink" xml:space="preserve" xmlns:serif="http://www.serif.com/" style="fill-rule:evenodd;clip-rule:evenodd;stroke-linecap:round;stroke-linejoin:round;stroke-miterlimit:2;"><rect id="_47---Pizza" serif:id="47 - Pizza" x="0" y="0" width="64" height="64" style="fill:none;"/><path d="M10,45.64l0,2.257c0,0.524 0.26,1.015 0.695,1.309c0.434,0.294 0.986,0.354 1.473,0.159c3.457,-1.383 9.832,-3.934 9.832,-3.934" style="fill:none;stroke:currentColor;stroke-width:2px;"/><path d="M25,44.231c0,0 22.719,-9.089 29.259,-11.705c1.051,-0.42 1.741,-1.439 1.741,-2.572c0,-1.845 0,-4.387 0,-4.387" style="fill:none;stroke:currentColor;stroke-width:2px;"/><path d="M11.603,45.469c-0.632,0.283 -1.374,0.144 -1.861,-0.349c-0.487,-0.493 -0.616,-1.237 -0.324,-1.866c2.753,-5.93 7.833,-16.871 10.293,-22.171c0.96,-2.067 2.72,-3.654 4.875,-4.394c23.241,-8.038 31.414,8.878 31.414,8.878l-27,12.103" style="fill:none;stroke:currentColor;stroke-width:2px;"/><path d="M28.934,21.83c2.244,0 3.2,1.344 2.134,3c-1.067,1.655 -3.754,3 -5.998,3c-2.244,0 -3.2,-1.345 -2.134,-3c1.067,-1.656 3.754,-3 5.998,-3Z" style="fill:none;stroke:currentColor;stroke-width:2px;"/><path d="M41.801,24.644c1.261,0 1.798,0.756 1.199,1.686c-0.599,0.93 -2.109,1.685 -3.369,1.685c-1.261,0 -1.798,-0.755 -1.199,-1.685c0.599,-0.93 2.109,-1.686 3.369,-1.686Z" style="fill:none;stroke:currentColor;stroke-width:2px;"/><path d="M22,43.18c0,-0.521 -0.264,-1.006 -0.701,-1.289c-0.437,-0.283 -0.988,-0.326 -1.464,-0.113c-3.046,1.366 -8.232,3.691 -8.232,3.691c-0.632,0.283 -1.374,0.144 -1.861,-0.349c-0.487,-0.493 -0.616,-1.237 -0.324,-1.866c0,0 2.824,-6.082 4.256,-9.167c0.524,-1.128 1.445,-2.023 2.588,-2.513c0.001,0 0.001,0 0.001,0c0.457,-0.196 0.973,-0.199 1.432,-0.009c0.459,0.19 0.822,0.558 1.007,1.019c0.122,0.305 0.25,0.627 0.377,0.944c0.526,1.313 1.95,2.027 3.317,1.663c2.213,-0.59 5.556,-1.482 8.243,-2.198c0.776,-0.207 1.601,0.059 2.11,0.68c0.509,0.621 0.607,1.483 0.252,2.203c-0.001,0.001 -0.001,0.001 -0.001,0.001l-8.5,3.81l0,4.677c0,0.69 -0.56,1.25 -1.25,1.25c-0.69,0 -1.25,-0.56 -1.25,-1.25l0,-1.184Z" style="fill:none;stroke:currentColor;stroke-width:2px;"/></svg>
