<?xml version="1.0" encoding="UTF-8" standalone="no"?><!DOCTYPE svg PUBLIC "-//W3C//DTD SVG 1.1//EN" "http://www.w3.org/Graphics/SVG/1.1/DTD/svg11.dtd"><svg width="100%" height="100%" viewBox="0 0 64 64" version="1.1" xmlns="http://www.w3.org/2000/svg" xmlns:xlink="http://www.w3.org/1999/xlink" xml:space="preserve" xmlns:serif="http://www.serif.com/" style="fill-rule:evenodd;clip-rule:evenodd;stroke-linecap:round;stroke-linejoin:round;stroke-miterlimit:2;"><rect id="_63---Drink" serif:id="63 - Drink" x="0" y="0" width="64" height="64" style="fill:none;"/><path d="M39.775,13.569l-15.823,0c0,0 0.064,11.969 0.108,20.149c0.023,4.133 3.379,7.472 7.512,7.472c0.001,0 0.002,0 0.002,0c2.21,0 4.329,-0.881 5.888,-2.448c1.558,-1.567 2.428,-3.691 2.416,-5.901c-0.044,-8.131 -0.103,-19.272 -0.103,-19.272Z" style="fill:none;stroke:currentColor;stroke-width:2px;"/><path d="M32.012,41.294l0,14.706" style="fill:none;stroke:currentColor;stroke-width:2px;"/><path d="M27.275,56l9.473,0" style="fill:none;stroke:currentColor;stroke-width:2px;"/><path d="M20.376,18.081c-1.396,-1.012 -2.305,-2.657 -2.305,-4.512c0,-3.074 2.495,-5.569 5.569,-5.569c3.073,0 5.569,2.495 5.569,5.569" style="fill:none;stroke:currentColor;stroke-width:2px;"/></svg>
