<?xml version="1.0" encoding="UTF-8" standalone="no"?><!DOCTYPE svg PUBLIC "-//W3C//DTD SVG 1.1//EN" "http://www.w3.org/Graphics/SVG/1.1/DTD/svg11.dtd"><svg width="100%" height="100%" viewBox="0 0 64 64" version="1.1" xmlns="http://www.w3.org/2000/svg" xmlns:xlink="http://www.w3.org/1999/xlink" xml:space="preserve" xmlns:serif="http://www.serif.com/" style="fill-rule:evenodd;clip-rule:evenodd;stroke-linecap:round;stroke-linejoin:round;stroke-miterlimit:2;"><rect id="_61---Coffee" serif:id="61 - Coffee" x="0" y="0" width="64" height="64" style="fill:none;"/><path d="M47.396,19.126l-30.792,0c0,0 2.496,27.104 3.208,34.837c0.107,1.154 1.075,2.037 2.234,2.037l19.908,0c1.159,0 2.127,-0.883 2.234,-2.037c0.712,-7.733 3.208,-34.837 3.208,-34.837Z" style="fill:none;stroke:currentColor;stroke-width:2px;"/><path d="M50.026,14.706c0,-1.238 -1.004,-2.242 -2.242,-2.242c-6.467,0 -25.101,0 -31.568,0c-1.238,0 -2.242,1.004 -2.242,2.242c0,0.702 0,1.476 0,2.177c0,1.239 1.004,2.243 2.242,2.243c6.467,0 25.101,0 31.568,0c1.238,0 2.242,-1.004 2.242,-2.243c0,-0.701 0,-1.475 0,-2.177Z" style="fill:none;stroke:currentColor;stroke-width:2px;"/><path d="M44.375,12.464l-24.75,0l0,-2.221c0,-1.239 1.004,-2.243 2.242,-2.243c4.705,0 15.561,0 20.266,0c1.238,0 2.242,1.004 2.242,2.243c0,1.112 0,2.221 0,2.221Z" style="fill:none;stroke:currentColor;stroke-width:2px;"/><path d="M30.939,34.844c0.522,3.169 1.168,3.892 -0.284,8.142c-0.66,1.932 -0.426,3.759 0.117,5.268l-0.117,0.018c-2.479,0 -4.491,-3.018 -4.491,-6.735c0,-3.718 2.012,-6.736 4.491,-6.736l0.284,0.043Z" style="fill:none;stroke:currentColor;stroke-width:2px;"/><path d="M33.628,34.801c2.344,0.185 4.208,3.115 4.208,6.693c0,3.665 -1.956,6.65 -4.374,6.717c-0.543,-1.509 -0.777,-3.336 -0.117,-5.268c1.452,-4.25 0.805,-4.973 0.283,-8.142Z" style="fill:none;stroke:currentColor;stroke-width:2px;"/></svg>
