<?xml version="1.0" encoding="UTF-8" standalone="no"?><!DOCTYPE svg PUBLIC "-//W3C//DTD SVG 1.1//EN" "http://www.w3.org/Graphics/SVG/1.1/DTD/svg11.dtd"><svg width="100%" height="100%" viewBox="0 0 64 64" version="1.1" xmlns="http://www.w3.org/2000/svg" xmlns:xlink="http://www.w3.org/1999/xlink" xml:space="preserve" xmlns:serif="http://www.serif.com/" style="fill-rule:evenodd;clip-rule:evenodd;stroke-linecap:round;stroke-linejoin:round;stroke-miterlimit:2;"><rect id="_38---Satay" serif:id="38 - Satay" x="0" y="0" width="64" height="64" style="fill:none;"/><path d="M33.17,19.152c-3.223,3.222 -3.223,8.455 0,11.678c3.223,3.223 8.456,3.223 11.678,0c3.223,-3.223 3.223,-8.456 0,-11.678c-3.222,-3.223 -8.455,-3.223 -11.678,0Z" style="fill:none;stroke:currentColor;stroke-width:2px;"/><path d="M9.813,42.509c-3.223,3.222 -3.223,8.455 0,11.678c3.223,3.223 8.456,3.223 11.678,0c3.223,-3.223 3.223,-8.456 0,-11.678c-3.222,-3.223 -8.455,-3.223 -11.678,0Z" style="fill:none;stroke:currentColor;stroke-width:2px;"/><path d="M8,56l1.813,-1.813" style="fill:none;stroke:currentColor;stroke-width:2px;"/><path d="M44.848,19.152l11.152,-11.152" style="fill:none;stroke:currentColor;stroke-width:2px;"/><path d="M11.884,50.326l1.464,0.585" style="fill:none;stroke:currentColor;stroke-width:2px;"/><path d="M41.26,23.88l0,1.111" style="fill:none;stroke:currentColor;stroke-width:2px;"/><path d="M30.872,44.131c-0.696,0.33 -1.429,0.557 -2.176,0.682c0,0 0,0 -0.002,0c-0.581,0.011 -1.129,-0.274 -1.453,-0.757c-0.324,-0.482 -0.382,-1.097 -0.152,-1.631c0.121,-1.091 -0.075,-2.842 -0.677,-5.825c-0.697,-3.449 0.193,-5.443 1.206,-6.562c0.936,-0.987 2.424,-1.209 3.608,-0.54c0.663,0.378 1.289,0.859 1.944,1.332c3.72,2.687 3.065,8.213 3.065,8.213c0,0 -0.504,7.796 -0.736,11.39c-0.065,0.999 -0.894,1.776 -1.894,1.776c-0.001,0 -0.002,0 -0.003,0c-0.724,0 -1.418,-0.288 -1.93,-0.8c-0.512,-0.512 -0.8,-1.206 -0.8,-1.93c0,-2.344 0,-5.348 0,-5.348Z" style="fill:none;stroke:currentColor;stroke-width:2px;"/><path d="M26.157,43.448c-1.749,-0.095 -3.471,-0.81 -4.807,-2.145c-2.875,-2.876 -2.875,-7.546 0,-10.421c1.968,-1.968 4.775,-2.589 7.273,-1.864" style="fill:none;stroke:currentColor;stroke-width:2px;"/><path d="M45.754,29.758l0,8.463c0,0.595 -0.237,1.167 -0.658,1.588c-0.422,0.421 -0.993,0.658 -1.588,0.658c-0.001,0 -0.001,0 -0.002,0c-0.596,0 -1.167,-0.237 -1.588,-0.658c-0.421,-0.421 -0.658,-0.993 -0.658,-1.588c0,-2.219 0,-5.285 0,-5.285" style="fill:none;stroke:currentColor;stroke-width:2px;"/><path d="M36.797,17.577c0,0 1.909,2.238 -0.329,5.659c-2.237,3.422 -1.25,10.011 -1.25,10.011" style="fill:none;stroke:currentColor;stroke-width:2px;"/></svg>
