<?xml version="1.0" encoding="UTF-8" standalone="no"?><!DOCTYPE svg PUBLIC "-//W3C//DTD SVG 1.1//EN" "http://www.w3.org/Graphics/SVG/1.1/DTD/svg11.dtd"><svg width="100%" height="100%" viewBox="0 0 64 64" version="1.1" xmlns="http://www.w3.org/2000/svg" xmlns:xlink="http://www.w3.org/1999/xlink" xml:space="preserve" xmlns:serif="http://www.serif.com/" style="fill-rule:evenodd;clip-rule:evenodd;stroke-linecap:round;stroke-linejoin:round;stroke-miterlimit:2;"><rect id="_82---Ice-Cream" serif:id="82 - Ice Cream" x="0" y="0" width="64" height="64" style="fill:none;"/><path d="M16.459,39c0,0 2.427,11.161 3.526,16.213c0.308,1.42 1.565,2.433 3.018,2.433c4.404,0 13.513,0 17.907,0c1.448,0 2.701,-1.005 3.016,-2.417c1.124,-5.045 3.615,-16.229 3.615,-16.229" style="fill:none;stroke:currentColor;stroke-width:2px;"/><path d="M26,22.913c-0.582,-0.138 -1.119,-0.435 -1.549,-0.864c-0.609,-0.609 -0.951,-1.436 -0.951,-2.297c0,-0.001 0,-0.003 0,-0.004c0,-0.861 0.342,-1.688 0.951,-2.297c0.609,-0.609 1.436,-0.951 2.297,-0.951c3.017,0 7.487,0 10.504,0c0.861,0 1.688,0.342 2.297,0.951c0.609,0.609 0.951,1.436 0.951,2.297c0,0.001 0,0.003 0,0.004c0,0.861 -0.342,1.688 -0.951,2.297c-0.43,0.429 -0.967,0.726 -1.549,0.864l0,0.087l4.25,0c1.061,0 2.078,0.421 2.828,1.172c0.751,0.75 1.172,1.767 1.172,2.828c0,0 0,0 0,0c0,1.061 -0.421,2.078 -1.172,2.828c-0.57,0.571 -1.296,0.952 -2.078,1.101l0,0.071l4.25,0c1.061,0 2.078,0.421 2.828,1.172c0.751,0.75 1.172,1.767 1.172,2.828c0,0 0,0 0,0c0,1.061 -0.421,2.078 -1.172,2.828c-0.75,0.751 -1.767,1.172 -2.828,1.172c-7.392,0 -23.108,0 -30.5,0c-1.061,0 -2.078,-0.421 -2.828,-1.172c-0.751,-0.75 -1.172,-1.767 -1.172,-2.828c0,0 0,0 0,0c0,-1.061 0.421,-2.078 1.172,-2.828c0.75,-0.751 1.767,-1.172 2.828,-1.172l4.25,0l0,-0.071c-0.782,-0.149 -1.508,-0.53 -2.078,-1.101c-0.751,-0.75 -1.172,-1.767 -1.172,-2.828c0,0 0,0 0,0c0,-1.061 0.421,-2.078 1.172,-2.828c0.75,-0.751 1.767,-1.172 2.828,-1.172l4.25,0l0,-0.087Z" style="fill:none;stroke:currentColor;stroke-width:2px;"/><path d="M21,30.929l10,0" style="fill:none;stroke:currentColor;stroke-width:2px;"/><path d="M43.5,31l-3,0" style="fill:none;stroke:currentColor;stroke-width:2px;"/><path d="M30,23l8.5,0" style="fill:none;stroke:currentColor;stroke-width:2px;"/><circle cx="32" cy="13" r="3.5" style="fill:none;stroke:currentColor;stroke-width:2px;"/><path d="M32,9.5l0.5,-2.5" style="fill:none;stroke:currentColor;stroke-width:2px;"/></svg>
