<?xml version="1.0" encoding="UTF-8" standalone="no"?><!DOCTYPE svg PUBLIC "-//W3C//DTD SVG 1.1//EN" "http://www.w3.org/Graphics/SVG/1.1/DTD/svg11.dtd"><svg width="100%" height="100%" viewBox="0 0 64 64" version="1.1" xmlns="http://www.w3.org/2000/svg" xmlns:xlink="http://www.w3.org/1999/xlink" xml:space="preserve" xmlns:serif="http://www.serif.com/" style="fill-rule:evenodd;clip-rule:evenodd;stroke-linecap:round;stroke-linejoin:round;stroke-miterlimit:2;"><rect id="_73---Cheer" serif:id="73 - Cheer" x="0" y="0" width="64" height="64" style="fill:none;"/><path d="M46.205,12.56l-15.283,4.095c0,0 3.16,11.544 5.319,19.434c1.092,3.987 5.198,6.343 9.19,5.273c0.001,0 0.001,0 0.002,0c2.135,-0.572 3.954,-1.972 5.053,-3.889c1.1,-1.917 1.391,-4.193 0.807,-6.325c-2.146,-7.842 -5.088,-18.588 -5.088,-18.588Z" style="fill:none;stroke:currentColor;stroke-width:2px;"/><path d="M45.883,41.349l3.806,14.205" style="fill:none;stroke:currentColor;stroke-width:2px;"/><path d="M45.114,56.78l9.15,-2.452" style="fill:none;stroke:currentColor;stroke-width:2px;"/><path d="M30.264,16.095l-12.756,-3.418c0,0 -3.036,11.578 -5.11,19.49c-1.049,3.998 1.33,8.092 5.322,9.162c0,0 0.001,0 0.002,0c2.135,0.572 4.409,0.27 6.32,-0.84c1.911,-1.111 3.301,-2.937 3.861,-5.075c1.12,-4.268 2.264,-8.634 2.264,-8.634" style="fill:none;stroke:currentColor;stroke-width:2px;"/><path d="M18.117,41.543l-3.806,14.205" style="fill:none;stroke:currentColor;stroke-width:2px;"/><path d="M9.736,54.522l9.15,2.452" style="fill:none;stroke:currentColor;stroke-width:2px;"/><path d="M33.5,11.5l1.5,-2.5" style="fill:none;stroke:currentColor;stroke-width:2px;"/><path d="M30.5,12l-1,-1.5" style="fill:none;stroke:currentColor;stroke-width:2px;"/></svg>
