<?xml version="1.0" encoding="UTF-8" standalone="no"?><!DOCTYPE svg PUBLIC "-//W3C//DTD SVG 1.1//EN" "http://www.w3.org/Graphics/SVG/1.1/DTD/svg11.dtd"><svg width="100%" height="100%" viewBox="0 0 64 64" version="1.1" xmlns="http://www.w3.org/2000/svg" xmlns:xlink="http://www.w3.org/1999/xlink" xml:space="preserve" xmlns:serif="http://www.serif.com/" style="fill-rule:evenodd;clip-rule:evenodd;stroke-linecap:round;stroke-linejoin:round;stroke-miterlimit:2;"><rect id="_22---Cake" serif:id="22 - Cake" x="0" y="0" width="64" height="64" style="fill:none;"/><path d="M58.332,25.081c0,3.69 -4.032,6.964 -10.24,8.996" style="fill:none;stroke:currentColor;stroke-width:2px;"/><path d="M32,36.239c-4.632,0 -8.973,-0.561 -12.697,-1.539" style="fill:none;stroke:currentColor;stroke-width:2px;"/><ellipse cx="32" cy="25.081" rx="9.763" ry="4.347" style="fill:none;stroke:currentColor;stroke-width:2px;"/><path d="M7.375,36.508c-1.064,-0.684 -1.707,-1.862 -1.707,-3.127c0,-3.048 0,-8.452 0,-8.452c0,-6.471 11.799,-11.725 26.332,-11.725c14.533,0 26.332,5.254 26.332,11.725l0,10.194c0,0.658 -0.29,1.283 -0.794,1.706c-0.503,0.424 -1.168,0.604 -1.816,0.492c-0.524,-0.091 -1.07,-0.185 -1.581,-0.274c-1.428,-0.247 -2.89,0.189 -3.95,1.178c0,0 0,0.001 0,0.001c-3.088,2.884 -7.19,4.432 -11.413,4.307c-2.153,-0.063 -4.456,-0.131 -6.273,-0.184c-2.246,-0.066 -4.463,-0.514 -6.558,-1.326c-0.526,-0.203 -1.066,-0.412 -1.576,-0.61c-1.628,-0.631 -3.469,-0.346 -4.831,0.747c0,0 -0.001,0.001 -0.001,0.001c-1.309,1.05 -3.141,1.146 -4.553,0.239c-2.256,-1.45 -5.602,-3.601 -7.611,-4.892Z" style="fill:none;stroke:currentColor;stroke-width:2px;"/><path d="M57.058,37.552l0,2.086c0,6.159 -11.228,11.158 -25.058,11.158c-11.627,0 -21.415,-3.534 -24.238,-8.319c-0.535,-0.906 -0.82,-1.858 -0.82,-2.839l0,-3.471" style="fill:none;stroke:currentColor;stroke-width:2px;"/><path d="M51.822,22.542l0.182,1.82" style="fill:none;stroke:currentColor;stroke-width:2px;"/><path d="M13.689,26.364l-1.092,-1.456" style="fill:none;stroke:currentColor;stroke-width:2px;"/></svg>
