<?xml version="1.0" encoding="UTF-8" standalone="no"?><!DOCTYPE svg PUBLIC "-//W3C//DTD SVG 1.1//EN" "http://www.w3.org/Graphics/SVG/1.1/DTD/svg11.dtd"><svg width="100%" height="100%" viewBox="0 0 64 64" version="1.1" xmlns="http://www.w3.org/2000/svg" xmlns:xlink="http://www.w3.org/1999/xlink" xml:space="preserve" xmlns:serif="http://www.serif.com/" style="fill-rule:evenodd;clip-rule:evenodd;stroke-linecap:round;stroke-linejoin:round;stroke-miterlimit:2;"><rect id="_74---Milk" serif:id="74 - Milk" x="0" y="0" width="64" height="64" style="fill:none;"/><path d="M47,22.289l-30,0l0,30.249c0,1.36 1.102,2.462 2.462,2.462c5.639,0 19.437,0 25.076,0c1.36,0 2.462,-1.102 2.462,-2.462c0,-7.611 0,-30.249 0,-30.249Z" style="fill:none;stroke:currentColor;stroke-width:2px;"/><path d="M47,22.289l-30,0l5,-8.178l20,0l5,8.178Z" style="fill:none;stroke:currentColor;stroke-width:2px;"/><path d="M42,11.462c0,-0.653 -0.259,-1.279 -0.721,-1.741c-0.462,-0.462 -1.088,-0.721 -1.741,-0.721c-3.845,0 -11.231,0 -15.076,0c-0.653,0 -1.279,0.259 -1.741,0.721c-0.462,0.462 -0.721,1.088 -0.721,1.741c0,1.308 0,2.649 0,2.649l20,0l0,-2.649Z" style="fill:none;stroke:currentColor;stroke-width:2px;"/><path d="M32,31.489c2.484,0 4.5,5.128 4.5,7.667c0,2.538 -2.016,4.6 -4.5,4.6c-2.484,0 -4.5,-2.062 -4.5,-4.6c0,-2.539 2.016,-7.667 4.5,-7.667Z" style="fill:none;stroke:currentColor;stroke-width:2px;"/></svg>
