<?xml version="1.0" encoding="UTF-8" standalone="no"?><!DOCTYPE svg PUBLIC "-//W3C//DTD SVG 1.1//EN" "http://www.w3.org/Graphics/SVG/1.1/DTD/svg11.dtd"><svg width="100%" height="100%" viewBox="0 0 64 64" version="1.1" xmlns="http://www.w3.org/2000/svg" xmlns:xlink="http://www.w3.org/1999/xlink" xml:space="preserve" xmlns:serif="http://www.serif.com/" style="fill-rule:evenodd;clip-rule:evenodd;stroke-linecap:round;stroke-linejoin:round;stroke-miterlimit:2;"><rect id="_60---Sandwich" serif:id="60 - Sandwich" x="0" y="0" width="64" height="64" style="fill:none;"/><path d="M40.772,58.038c4.521,-4.521 7.061,-10.652 7.061,-17.046c0,-6.393 -2.54,-12.525 -7.061,-17.045c-0.24,-0.24 -0.479,-0.479 -0.719,-0.719c-4.52,-4.521 -10.652,-7.061 -17.045,-7.061c-6.394,0 -12.525,2.54 -17.046,7.061c0,0 0,0.001 -0.001,0.001c-0.754,0.754 -0.754,1.978 0,2.732c5.567,5.567 26.511,26.511 32.078,32.078c0.754,0.754 1.978,0.754 2.732,0c0,-0.001 0.001,-0.001 0.001,-0.001Z" style="fill:none;stroke:currentColor;stroke-width:2px;"/><path d="M7.169,22.15c-0.116,-0.175 -0.223,-0.358 -0.32,-0.55c-1.402,-2.75 -0.307,-6.122 2.444,-7.524c1.558,-0.793 3.315,-0.786 4.801,-0.131c0.805,-1.41 2.213,-2.46 3.938,-2.748c1.841,-0.308 3.623,0.323 4.857,1.543c1.224,-1.23 3.001,-1.876 4.844,-1.584c1.727,0.273 3.145,1.312 3.961,2.715c1.48,-0.668 3.237,-0.689 4.802,0.091c1.67,0.834 2.741,2.392 3.022,4.104c1.713,-0.276 3.531,0.246 4.85,1.566c1.237,1.236 1.773,2.909 1.609,4.524c1.59,0.33 3.024,1.345 3.831,2.897c0.861,1.655 0.811,3.545 0.033,5.096c1.548,0.784 2.711,2.274 3.003,4.118c0.274,1.727 -0.276,3.395 -1.358,4.606c1.092,1.201 1.656,2.865 1.397,4.594c-0.277,1.846 -1.427,3.346 -2.969,4.143c0.792,1.544 0.857,3.434 0.01,5.097c-1.402,2.751 -4.774,3.846 -7.524,2.444c-0.192,-0.097 -0.375,-0.204 -0.55,-0.32" style="fill:none;stroke:currentColor;stroke-width:2px;"/><path d="M54.027,30.542c0.69,1.629 0.371,3.585 -0.956,4.912c-0.107,0.107 -0.218,0.207 -0.332,0.301" style="fill:none;stroke:currentColor;stroke-width:2px;"/><path d="M21.111,11.553c0.116,-0.807 0.485,-1.585 1.106,-2.206c1.528,-1.528 4.009,-1.528 5.538,0c0.594,0.594 0.957,1.333 1.089,2.103" style="fill:none;stroke:currentColor;stroke-width:2px;"/></svg>
