<?xml version="1.0" encoding="UTF-8" standalone="no"?><!DOCTYPE svg PUBLIC "-//W3C//DTD SVG 1.1//EN" "http://www.w3.org/Graphics/SVG/1.1/DTD/svg11.dtd"><svg width="100%" height="100%" viewBox="0 0 64 64" version="1.1" xmlns="http://www.w3.org/2000/svg" xmlns:xlink="http://www.w3.org/1999/xlink" xml:space="preserve" xmlns:serif="http://www.serif.com/" style="fill-rule:evenodd;clip-rule:evenodd;stroke-linecap:round;stroke-linejoin:round;stroke-miterlimit:2;"><rect id="_64---Dish" serif:id="64 - Dish" x="0" y="0" width="64" height="64" style="fill:none;"/><path d="M21.704,13.569l-15.823,0c0,0 0.065,11.969 0.109,20.149c0.022,4.133 3.379,7.472 7.512,7.472c0,0 0.001,0 0.002,0c2.21,0 4.329,-0.881 5.887,-2.448c1.559,-1.567 2.428,-3.691 2.416,-5.901c-0.043,-8.131 -0.103,-19.272 -0.103,-19.272Z" style="fill:none;stroke:currentColor;stroke-width:2px;"/><path d="M13.941,41.294l0,14.706" style="fill:none;stroke:currentColor;stroke-width:2px;"/><path d="M9.205,56l9.472,0" style="fill:none;stroke:currentColor;stroke-width:2px;"/><path d="M56.316,53.389c-0.47,0.269 -1.003,0.41 -1.545,0.41c-0.781,0 -1.967,0 -2.898,0c-0.891,0 -1.735,0.405 -2.293,1.1c0,0 0,0.001 0,0.001c-0.558,0.695 -1.402,1.1 -2.293,1.1c-2.955,0 -9.766,0 -12.721,0c-0.892,0 -1.735,-0.405 -2.293,-1.1c-0.001,0 -0.001,-0.001 -0.001,-0.001c-0.558,-0.695 -1.401,-1.1 -2.293,-1.1c-0.93,0 -2.117,0 -2.898,0c-0.542,0 -1.075,-0.141 -1.545,-0.41c-1.248,-0.713 -3.684,-2.106 -3.684,-2.106l38.148,0c0,0 -2.436,1.393 -3.684,2.106Z" style="fill:none;stroke:currentColor;stroke-width:2px;"/><path d="M23.896,51.242c0,0.055 34.06,0.055 34.06,0c0,-9.399 -7.631,-17.03 -17.03,-17.03c-9.399,0 -17.03,7.631 -17.03,17.03Z" style="fill:none;stroke:currentColor;stroke-width:2px;"/><path d="M53.869,51.252c0,-2.276 -0.588,-4.414 -1.621,-6.273" style="fill:none;stroke:currentColor;stroke-width:2px;"/><path d="M48.9,41.059c-0.826,-0.648 -1.734,-1.197 -2.704,-1.631" style="fill:none;stroke:currentColor;stroke-width:2px;"/><path d="M40.926,34.088l0,-2.725" style="fill:none;stroke:currentColor;stroke-width:2px;"/><path d="M44.332,31.363l-6.812,0" style="fill:none;stroke:currentColor;stroke-width:2px;"/></svg>
