<?xml version="1.0" encoding="UTF-8" standalone="no"?><!DOCTYPE svg PUBLIC "-//W3C//DTD SVG 1.1//EN" "http://www.w3.org/Graphics/SVG/1.1/DTD/svg11.dtd"><svg width="100%" height="100%" viewBox="0 0 64 64" version="1.1" xmlns="http://www.w3.org/2000/svg" xmlns:xlink="http://www.w3.org/1999/xlink" xml:space="preserve" xmlns:serif="http://www.serif.com/" style="fill-rule:evenodd;clip-rule:evenodd;stroke-linecap:round;stroke-linejoin:round;stroke-miterlimit:2;"><rect id="_13---Salad" serif:id="13 - Salad" x="0" y="0" width="64" height="64" style="fill:none;"/><path d="M54.448,33c0.389,0 0.759,0.17 1.013,0.464c0.254,0.295 0.367,0.686 0.309,1.07c-0.175,1.167 -0.435,2.897 -0.726,4.839c-1.175,7.833 -7.903,13.627 -15.823,13.627c-4.636,0 -9.806,0 -14.442,0c-7.92,0 -14.648,-5.794 -15.823,-13.627c-0.291,-1.942 -0.551,-3.672 -0.726,-4.839c-0.058,-0.384 0.055,-0.775 0.309,-1.07c0.254,-0.294 0.624,-0.464 1.013,-0.464c7.24,0 37.656,0 44.896,0Z" style="fill:none;stroke:currentColor;stroke-width:2px;"/><path d="M10.5,33c0,0 0.335,-4.618 3.662,-5" style="fill:none;stroke:currentColor;stroke-width:2px;"/><path d="M47.5,45.284c-2.628,2.155 -5.982,3.432 -9.6,3.432" style="fill:none;stroke:currentColor;stroke-width:2px;"/><path d="M43,52.503l0,1.37c0,0.829 -0.33,1.624 -0.916,2.211c-0.587,0.587 -1.382,0.916 -2.212,0.916c-4.184,0 -11.56,0 -15.744,0c-0.83,0 -1.625,-0.329 -2.212,-0.916c-0.586,-0.587 -0.916,-1.382 -0.916,-2.211c0,-0.766 0,-1.37 0,-1.37" style="fill:none;stroke:currentColor;stroke-width:2px;"/><path d="M15.662,33c0.589,-0.986 1.472,-1.777 2.527,-2.252c-0.207,-0.585 -0.319,-1.215 -0.319,-1.871c0,-3.102 2.518,-5.62 5.62,-5.62c0.115,0 0.229,0.003 0.343,0.01c-0.009,-0.129 -0.014,-0.259 -0.014,-0.39c0,-3.102 2.519,-5.62 5.62,-5.62c0.749,0 1.463,0.146 2.117,0.412c0.84,-0.87 2.019,-1.412 3.324,-1.412c2.55,0 4.62,2.07 4.62,4.62c0,2.55 -2.07,4.62 -4.62,4.62c-0.154,0 -0.306,-0.008 -0.456,-0.022c-0.939,1.795 -2.82,3.022 -4.985,3.022c-0.115,0 -0.229,-0.003 -0.342,-0.01c0.008,0.129 0.013,0.259 0.013,0.39c0,1.628 -0.694,3.096 -1.803,4.123" style="fill:none;stroke:currentColor;stroke-width:2px;"/><path d="M22,33c0,0 -0.35,-5.557 7.9,-10" style="fill:none;stroke:currentColor;stroke-width:2px;"/><path d="M52,33c0,0 -0.688,-4.299 -4,-4c0,0 -2.097,-5.241 -6,-3" style="fill:none;stroke:currentColor;stroke-width:2px;"/><path d="M47,27c0,0 1.933,-6.361 -3,-8" style="fill:none;stroke:currentColor;stroke-width:2px;"/><path d="M40.5,31l-1,1" style="fill:none;stroke:currentColor;stroke-width:2px;"/></svg>
