<?xml version="1.0" encoding="UTF-8" standalone="no"?><!DOCTYPE svg PUBLIC "-//W3C//DTD SVG 1.1//EN" "http://www.w3.org/Graphics/SVG/1.1/DTD/svg11.dtd"><svg width="100%" height="100%" viewBox="0 0 64 64" version="1.1" xmlns="http://www.w3.org/2000/svg" xmlns:xlink="http://www.w3.org/1999/xlink" xml:space="preserve" xmlns:serif="http://www.serif.com/" style="fill-rule:evenodd;clip-rule:evenodd;stroke-linecap:round;stroke-linejoin:round;stroke-miterlimit:2;"><rect id="_54---Sandwich" serif:id="54 - Sandwich" x="0" y="0" width="64" height="64" style="fill:none;"/><path d="M27.667,20.608c-6.883,3.644 -15.089,7.988 -20.685,10.951c-0.749,0.397 -1.132,1.253 -0.927,2.076c0.204,0.823 0.943,1.401 1.791,1.401c12.7,0 38.19,0 48.308,0c0.737,0 1.403,-0.438 1.695,-1.115c0.292,-0.677 0.153,-1.462 -0.353,-1.998c-4.587,-4.857 -13.22,-13.998 -16.103,-17.05c-0.569,-0.603 -1.472,-0.752 -2.205,-0.364c-1.437,0.761 -4.016,2.126 -7.188,3.805" style="fill:none;stroke:currentColor;stroke-width:2px;"/><path d="M6,33.635l0,3.868c0,0.495 0.197,0.97 0.547,1.32c0.35,0.35 0.825,0.546 1.32,0.546c8.101,0 40.165,0 48.266,0c0.495,0 0.97,-0.196 1.32,-0.546c0.35,-0.35 0.547,-0.825 0.547,-1.32c0,-1.748 0,-4.092 0,-4.092" style="fill:none;stroke:currentColor;stroke-width:2px;"/><path d="M6,43.801l0,5.618c0,0.495 0.197,0.97 0.547,1.32c0.35,0.35 0.825,0.547 1.32,0.547c8.101,0 40.165,0 48.266,0c0.495,0 0.97,-0.197 1.32,-0.547c0.35,-0.35 0.547,-0.825 0.547,-1.32c0,-2.217 0,-5.618 0,-5.618" style="fill:none;stroke:currentColor;stroke-width:2px;"/><path d="M32,39.369l7.255,8.864l7.255,-8.864" style="fill:none;stroke:currentColor;stroke-width:2px;"/><path d="M6,43.703l0,0.542c0,1.196 0.97,2.166 2.166,2.166c0,0 0.001,0 0.001,0c0.575,0 1.126,-0.228 1.532,-0.634c0.406,-0.407 0.634,-0.957 0.634,-1.532c0,-0.301 0,-0.51 0,-0.51l0,0.51c0,0.575 0.229,1.125 0.635,1.532c0.406,0.406 0.957,0.634 1.531,0.634c0.001,0 0.001,0 0.002,0c0.574,0 1.125,-0.228 1.531,-0.634c0.406,-0.407 0.635,-0.957 0.635,-1.532c0,-0.301 0,-0.51 0,-0.51l0,0.51c0,0.575 0.228,1.125 0.634,1.532c0.406,0.406 0.957,0.634 1.532,0.634c0,0 0.001,0 0.001,0c0.574,0 1.125,-0.228 1.532,-0.634c0.406,-0.407 0.634,-0.957 0.634,-1.532c0,-0.301 0,-0.51 0,-0.51l0,0.51c0,0.575 0.228,1.125 0.634,1.532c0.407,0.406 0.958,0.634 1.532,0.634c0,0 0.001,0 0.001,0c0.575,0 1.126,-0.228 1.532,-0.634c0.406,-0.407 0.634,-0.957 0.634,-1.532c0,-0.301 0,-0.51 0,-0.51l0,0.51c0,0.575 0.229,1.125 0.635,1.532c0.406,0.406 0.957,0.634 1.531,0.634c0.001,0 0.001,0 0.002,0c0.574,0 1.125,-0.228 1.531,-0.634c0.406,-0.407 0.635,-0.957 0.635,-1.532c0,-0.301 0,-0.51 0,-0.51l0,0.47c0,1.218 0.987,2.206 2.206,2.206c0,0 0,0 0,0c1.218,0 2.206,-0.988 2.206,-2.206c0,-0.28 0,-0.47 0,-0.47" style="fill:none;stroke:currentColor;stroke-width:2px;"/><path d="M45,43.735l0,0.51c0,0.575 0.228,1.125 0.634,1.532c0.407,0.406 0.958,0.634 1.532,0.634c0,0 0.001,0 0.001,0c0.575,0 1.126,-0.228 1.532,-0.634c0.406,-0.407 0.634,-0.957 0.634,-1.532c0,-0.301 0,-0.51 0,-0.51l0,0.51c0,0.575 0.229,1.125 0.635,1.532c0.406,0.406 0.957,0.634 1.531,0.634c0.001,0 0.001,0 0.002,0c0.574,0 1.125,-0.228 1.531,-0.634c0.406,-0.407 0.635,-0.957 0.635,-1.532c0,-0.301 0,-0.51 0,-0.51l0,0.51c0,0.575 0.228,1.125 0.634,1.532c0.406,0.406 0.957,0.634 1.532,0.634c0,0 0.001,0 0.001,0c0.574,0 1.125,-0.228 1.532,-0.634c0.406,-0.407 0.634,-0.957 0.634,-1.532c0,-0.301 0,-0.51 0,-0.51" style="fill:none;stroke:currentColor;stroke-width:2px;"/><path d="M32,14.994l0,11.917" style="fill:none;stroke:currentColor;stroke-width:2px;"/><path d="M30.104,27.453l3.792,0" style="fill:none;stroke:currentColor;stroke-width:2px;"/></svg>
