<?xml version="1.0" encoding="UTF-8" standalone="no"?><!DOCTYPE svg PUBLIC "-//W3C//DTD SVG 1.1//EN" "http://www.w3.org/Graphics/SVG/1.1/DTD/svg11.dtd"><svg width="100%" height="100%" viewBox="0 0 64 64" version="1.1" xmlns="http://www.w3.org/2000/svg" xmlns:xlink="http://www.w3.org/1999/xlink" xml:space="preserve" xmlns:serif="http://www.serif.com/" style="fill-rule:evenodd;clip-rule:evenodd;stroke-linecap:round;stroke-linejoin:round;stroke-miterlimit:2;"><rect id="_79---Bread-and-Coffee" serif:id="79 - Bread and Coffee" x="0" y="0" width="64" height="64" style="fill:none;"/><path d="M34.478,23l-23.405,0c0,0 0.823,6.214 1.575,11.882c0.692,5.219 5.142,9.118 10.407,9.118c0,0 0.001,0 0.002,0c5.225,0 9.608,-3.942 10.161,-9.138c0.601,-5.663 1.26,-11.862 1.26,-11.862Z" style="fill:none;stroke:currentColor;stroke-width:2px;"/><path d="M16.784,19.915c0,0 0.189,-1.735 -0.702,-3.511" style="fill:none;stroke:currentColor;stroke-width:2px;"/><path d="M29.423,19.915c0,0 -0.189,-1.735 0.702,-3.511" style="fill:none;stroke:currentColor;stroke-width:2px;"/><path d="M20.638,18.511c0,0 0.189,-1.736 -0.702,-3.511" style="fill:none;stroke:currentColor;stroke-width:2px;"/><path d="M25.569,18.511c0,0 -0.189,-1.736 0.703,-3.511" style="fill:none;stroke:currentColor;stroke-width:2px;"/><path d="M36.175,46.299c-0.555,0.454 -1.25,0.701 -1.967,0.701c-0.639,0 -1.439,0 -2.077,0c-0.704,0 -1.376,0.301 -1.845,0.826c0,0 -0.001,0.001 -0.001,0.001c-0.469,0.526 -1.141,0.826 -1.845,0.826c-2.454,0 -8.323,0 -10.776,0c-0.705,0 -1.376,-0.3 -1.846,-0.826c0,0 0,-0.001 0,-0.001c-0.47,-0.525 -1.141,-0.826 -1.846,-0.826c-0.638,0 -1.438,0 -2.076,0c-0.717,0 -1.412,-0.247 -1.968,-0.701c-1.087,-0.886 -2.82,-2.299 -2.82,-2.299l31.888,0c0,0 -1.733,1.413 -2.821,2.299Z" style="fill:none;stroke:currentColor;stroke-width:2px;"/><path d="M33.98,29.472c0,0 0.146,-0.087 0.383,-0.229c0.934,-0.561 2.117,-0.491 2.979,0.176c0.861,0.667 1.225,1.795 0.915,2.84c-0.58,1.952 -1.965,3.904 -5.149,4.736" style="fill:none;stroke:currentColor;stroke-width:2px;"/><path d="M36.658,46c0,0 9.393,0.926 14.98,1.477c2.537,0.251 4.81,-1.571 5.118,-4.101c0.709,-5.916 -0.658,-15.745 -17.064,-17.362" style="fill:none;stroke:currentColor;stroke-width:2px;"/><path d="M47.734,28.251c0.657,1.217 1.785,4.066 1.761,9.249" style="fill:none;stroke:currentColor;stroke-width:2px;"/><path d="M40.275,26.529c0,0 2.254,2.669 2.22,9.971" style="fill:none;stroke:currentColor;stroke-width:2px;"/></svg>
