<?xml version="1.0" encoding="UTF-8" standalone="no"?><!DOCTYPE svg PUBLIC "-//W3C//DTD SVG 1.1//EN" "http://www.w3.org/Graphics/SVG/1.1/DTD/svg11.dtd"><svg width="100%" height="100%" viewBox="0 0 64 64" version="1.1" xmlns="http://www.w3.org/2000/svg" xmlns:xlink="http://www.w3.org/1999/xlink" xml:space="preserve" xmlns:serif="http://www.serif.com/" style="fill-rule:evenodd;clip-rule:evenodd;stroke-linecap:round;stroke-linejoin:round;stroke-miterlimit:2;"><rect id="_32---Soup" serif:id="32 - Soup" x="0" y="0" width="64" height="64" style="fill:none;"/><path d="M54.478,30c0.385,0 0.751,0.166 1.004,0.455c0.254,0.289 0.371,0.673 0.321,1.054c-0.216,1.655 -0.585,4.486 -0.986,7.56c-1.039,7.97 -7.829,13.931 -15.866,13.931l-13.902,0c-8.037,0 -14.827,-5.961 -15.866,-13.931c-0.401,-3.074 -0.77,-5.905 -0.986,-7.56c-0.05,-0.381 0.067,-0.765 0.321,-1.054c0.253,-0.289 0.619,-0.455 1.004,-0.455c7.196,0 37.76,0 44.956,0Z" style="fill:none;stroke:currentColor;stroke-width:2px;"/><path d="M46.739,42.239c0.111,0 0.216,0.047 0.29,0.13c0.074,0.083 0.109,0.194 0.096,0.304c-0.024,0.209 -0.056,0.483 -0.093,0.799c-0.348,2.99 -2.881,5.244 -5.89,5.244c-0.001,0 -0.002,0 -0.002,0c-3.01,0 -5.542,-2.254 -5.89,-5.244c-0.037,-0.316 -0.069,-0.59 -0.093,-0.799c-0.013,-0.11 0.022,-0.221 0.095,-0.304c0.074,-0.083 0.18,-0.13 0.291,-0.13c1.885,0 9.311,0 11.196,0Z" style="fill:none;stroke:currentColor;stroke-width:2px;"/><path d="M47.176,42.239l2.824,-12.239" style="fill:none;stroke:currentColor;stroke-width:2px;"/><path d="M50.893,25.357l1.321,-9.322l3.786,0.228" style="fill:none;stroke:currentColor;stroke-width:2px;"/><path d="M43,52.503l0,2.088c0,0.639 -0.254,1.252 -0.706,1.703c-0.451,0.452 -1.064,0.706 -1.703,0.706c-4.232,0 -12.95,0 -17.182,0c-0.639,0 -1.252,-0.254 -1.703,-0.706c-0.452,-0.451 -0.706,-1.064 -0.706,-1.703c0,-1.068 0,-2.088 0,-2.088" style="fill:none;stroke:currentColor;stroke-width:2px;"/><path d="M54,37.562c0,0 -7.634,-3.866 -15.163,-1.12c-7.528,2.746 -8.004,0.529 -14.609,-0.711c-6.605,-1.24 -14.228,1.831 -14.228,1.831" style="fill:none;stroke:currentColor;stroke-width:2px;"/><path d="M31.927,47.165l-1.466,1.551" style="fill:none;stroke:currentColor;stroke-width:2px;"/><path d="M19.207,43.259l-0.775,-0.259" style="fill:none;stroke:currentColor;stroke-width:2px;"/><path d="M15.444,23.35c0,0 -2.036,-1.336 -0.627,-3.838c2.195,-3.897 -0.941,-5.256 -0.941,-5.256" style="fill:none;stroke:currentColor;stroke-width:2px;"/><path d="M25.347,17.814c0,0 -2.036,-1.335 -0.627,-3.838c2.195,-3.897 -0.941,-5.256 -0.941,-5.256" style="fill:none;stroke:currentColor;stroke-width:2px;"/><path d="M41.47,17.814c0,0 2.037,-1.335 0.627,-3.838c-2.195,-3.897 0.941,-5.256 0.941,-5.256" style="fill:none;stroke:currentColor;stroke-width:2px;"/></svg>
