<svg width="48" height="48" viewBox="0 0 48 48" fill="none" xmlns="http://www.w3.org/2000/svg">
<path d="M37.4706 8.0008C36.9172 7.99287 36.3468 8.04407 35.7673 8.15931C33.0464 8.70053 30.2804 10.5524 29.6515 12.2537C29.5032 12.6549 29.3289 12.9773 29.2642 12.971C29.1994 12.9646 28.7904 12.501 28.3547 11.9412C27.2393 10.5078 25.1888 9.51841 23.6936 9.69165C21.5163 9.94391 19.3988 11.6134 18.2704 13.9675C17.7633 15.0253 17.6468 15.5513 17.6435 16.7987C17.6387 18.4537 18.1844 20.2502 18.9998 21.2643C19.5899 21.9981 19.8336 21.701 19.5998 20.5327C19.2997 19.0335 19.4651 16.8015 19.8333 15.7444C20.2186 14.6383 21.2184 13.5653 22.3333 12.8912C23.3669 12.2663 24.9931 12.0777 26.0833 12.8912C27.0718 13.6288 28.4712 15.0693 29.5753 16.9679C30.0469 17.7789 30.5293 18.4175 30.6472 18.3868C30.9974 18.2955 30.8203 16.5705 30.324 15.2389L30.25 14.114L30.6667 13.2988C31.9195 11.5303 34.1093 10.4655 36.776 10.4456C38.0224 10.4363 38.7313 10.5031 39.4167 10.8532C40.5276 11.4207 41.3868 12.1268 41.7223 13.222C42.2955 15.0937 41.0109 18.1986 38.7665 20.3656C38.0151 21.0911 37.4003 21.7556 37.4003 21.8426C37.4003 22.4968 40.3789 20.9631 41.497 19.7331C42.6564 18.4578 43.7847 16.1248 43.9591 14.6426C44.3913 10.9674 41.3448 8.05395 37.4706 8.0008ZM11.7526 15.4151C9.14354 15.4422 6.42613 16.4587 5.05398 18.3278C2.94027 21.207 4.06224 24.6421 7.91256 27.0786C9.1243 27.8454 11.6816 28.7435 13.4526 29.0246C14.9306 29.2593 15.4151 29.9404 16.7366 33.6401C17.3958 35.4856 18.1745 37.3064 18.4667 37.6858C19.1849 38.6181 20.3314 39.3257 21.7503 39.7129C23.6101 40.2204 28.3528 40.0295 30.9688 39.3418C35.8682 38.0538 39.9707 35.5867 41.2307 33.1707C41.8941 31.8987 41.9889 30.8859 41.5891 29.3388C41.0503 27.2536 38.0434 21.4864 38.0434 22.5381C38.0434 22.603 38.4735 23.9478 38.9989 25.5266C40.748 30.7821 40.4057 30.9913 38.7666 32.738C37.5104 34.0765 35.6302 34.8116 33.1667 35.7168C29.2873 37.1423 25.2773 38.0814 22.75 37.3472C20.9087 36.8123 20.7518 36.5249 19.4167 32.8636C18.7652 31.0771 17.6777 29.612 17.6783 29.553C17.6789 29.4941 18.5908 29.4302 19.7049 29.4109C22.2088 29.3676 25.9897 28.9371 29 27.9724C33.6123 26.4944 38.7593 23.2594 36.776 23.2594C36.5505 23.2594 35.2241 23.5912 33.8282 23.9971C32.4324 24.403 28.3378 25.5723 24.7291 26.5953C21.1203 27.6183 17.9738 28.5564 17.7373 28.6802C17.383 28.8657 17.2175 28.811 16.7956 28.3689C16.0192 27.5551 15.0366 26.6614 13.1667 26.342C8.26612 25.5052 5.87927 22.5355 7.33333 19.8204C8.81744 17.0492 12.6443 15.7213 16.0826 17.2612C17.6108 17.9456 17.6756 17.9423 16.9598 17.2112C15.7456 15.9714 13.7819 15.394 11.7526 15.4151Z" fill="#CB1B36"/>
</svg>
